STARTFONT 2.1
COMMENT
COMMENT Converted from OpenType font "godoMaum.ttf" by "otf2bdf 3.0".
COMMENT
FONT -FreeType-godoMaum-Medium-R-Normal--17-120-100-100-P-42-ISO10646-1
SIZE 12 100 100
FONTBOUNDINGBOX 23 141 -5 -7
STARTPROPERTIES 19
FOUNDRY "FreeType"
FAMILY_NAME "godoMaum"
WEIGHT_NAME "Medium"
SLANT "R"
SETWIDTH_NAME "Normal"
ADD_STYLE_NAME ""
PIXEL_SIZE 17
POINT_SIZE 120
RESOLUTION_X 100
RESOLUTION_Y 100
SPACING "P"
AVERAGE_WIDTH 42
CHARSET_REGISTRY "ISO10646"
CHARSET_ENCODING "1"
FONT_ASCENT 13
FONT_DESCENT 3
COPYRIGHT "Copyright Ò 2017 NHNgodo All rights reserved...?f?"
_OTF_FONTFILE "godoMaum.ttf"
_OTF_PSNAME "godoMaum"
ENDPROPERTIES
CHARS 12700
STARTCHAR 0000
ENCODING 0
SWIDTH 300 0
DWIDTH 5 0
BBX 0 0 0 0
BITMAP
ENDCHAR
STARTCHAR 0001
ENCODING 1
SWIDTH 300 0
DWIDTH 5 0
BBX 0 0 0 0
BITMAP
ENDCHAR
STARTCHAR 0002
ENCODING 2
SWIDTH 300 0
DWIDTH 5 0
BBX 0 0 0 0
BITMAP
ENDCHAR
STARTCHAR 0003
ENCODING 3
SWIDTH 300 0
DWIDTH 5 0
BBX 0 0 0 0
BITMAP
ENDCHAR
STARTCHAR 0004
ENCODING 4
SWIDTH 300 0
DWIDTH 5 0
BBX 0 0 0 0
BITMAP
ENDCHAR
STARTCHAR 0005
ENCODING 5
SWIDTH 300 0
DWIDTH 5 0
BBX 0 0 0 0
BITMAP
ENDCHAR
STARTCHAR 0006
ENCODING 6
SWIDTH 300 0
DWIDTH 5 0
BBX 0 0 0 0
BITMAP
ENDCHAR
STARTCHAR 0007
ENCODING 7
SWIDTH 300 0
DWIDTH 5 0
BBX 0 0 0 0
BITMAP
ENDCHAR
STARTCHAR 0008
ENCODING 8
SWIDTH 300 0
DWIDTH 5 0
BBX 0 0 0 0
BITMAP
ENDCHAR
STARTCHAR 0009
ENCODING 9
SWIDTH 300 0
DWIDTH 5 0
BBX 0 0 0 0
BITMAP
ENDCHAR
STARTCHAR 000A
ENCODING 10
SWIDTH 300 0
DWIDTH 5 0
BBX 0 0 0 0
BITMAP
ENDCHAR
STARTCHAR 000B
ENCODING 11
SWIDTH 300 0
DWIDTH 5 0
BBX 0 0 0 0
BITMAP
ENDCHAR
STARTCHAR 000C
ENCODING 12
SWIDTH 300 0
DWIDTH 5 0
BBX 0 0 0 0
BITMAP
ENDCHAR
STARTCHAR 000D
ENCODING 13
SWIDTH 300 0
DWIDTH 5 0
BBX 0 0 0 0
BITMAP
ENDCHAR
STARTCHAR 000E
ENCODING 14
SWIDTH 300 0
DWIDTH 5 0
BBX 0 0 0 0
BITMAP
ENDCHAR
STARTCHAR 000F
ENCODING 15
SWIDTH 300 0
DWIDTH 5 0
BBX 0 0 0 0
BITMAP
ENDCHAR
STARTCHAR 0010
ENCODING 16
SWIDTH 300 0
DWIDTH 5 0
BBX 0 0 0 0
BITMAP
ENDCHAR
STARTCHAR 0011
ENCODING 17
SWIDTH 300 0
DWIDTH 5 0
BBX 0 0 0 0
BITMAP
ENDCHAR
STARTCHAR 0012
ENCODING 18
SWIDTH 300 0
DWIDTH 5 0
BBX 0 0 0 0
BITMAP
ENDCHAR
STARTCHAR 0013
ENCODING 19
SWIDTH 300 0
DWIDTH 5 0
BBX 0 0 0 0
BITMAP
ENDCHAR
STARTCHAR 0014
ENCODING 20
SWIDTH 300 0
DWIDTH 5 0
BBX 0 0 0 0
BITMAP
ENDCHAR
STARTCHAR 0015
ENCODING 21
SWIDTH 300 0
DWIDTH 5 0
BBX 0 0 0 0
BITMAP
ENDCHAR
STARTCHAR 0016
ENCODING 22
SWIDTH 300 0
DWIDTH 5 0
BBX 0 0 0 0
BITMAP
ENDCHAR
STARTCHAR 0017
ENCODING 23
SWIDTH 300 0
DWIDTH 5 0
BBX 0 0 0 0
BITMAP
ENDCHAR
STARTCHAR 0018
ENCODING 24
SWIDTH 300 0
DWIDTH 5 0
BBX 0 0 0 0
BITMAP
ENDCHAR
STARTCHAR 0019
ENCODING 25
SWIDTH 300 0
DWIDTH 5 0
BBX 0 0 0 0
BITMAP
ENDCHAR
STARTCHAR 001A
ENCODING 26
SWIDTH 300 0
DWIDTH 5 0
BBX 0 0 0 0
BITMAP
ENDCHAR
STARTCHAR 001B
ENCODING 27
SWIDTH 300 0
DWIDTH 5 0
BBX 0 0 0 0
BITMAP
ENDCHAR
STARTCHAR 001C
ENCODING 28
SWIDTH 300 0
DWIDTH 5 0
BBX 0 0 0 0
BITMAP
ENDCHAR
STARTCHAR 001D
ENCODING 29
SWIDTH 300 0
DWIDTH 5 0
BBX 0 0 0 0
BITMAP
ENDCHAR
STARTCHAR 001E
ENCODING 30
SWIDTH 300 0
DWIDTH 5 0
BBX 0 0 0 0
BITMAP
ENDCHAR
STARTCHAR 001F
ENCODING 31
SWIDTH 300 0
DWIDTH 5 0
BBX 0 0 0 0
BITMAP
ENDCHAR
STARTCHAR 0020
ENCODING 32
SWIDTH 300 0
DWIDTH 5 0
BBX 0 0 0 0
BITMAP
ENDCHAR
STARTCHAR 0021
ENCODING 33
SWIDTH 240 0
DWIDTH 4 0
BBX 2 9 2 1
BITMAP
80
C0
C0
80
80
80
00
80
80
ENDCHAR
STARTCHAR 0022
ENCODING 34
SWIDTH 300 0
DWIDTH 5 0
BBX 3 3 1 9
BITMAP
A0
A0
A0
ENDCHAR
STARTCHAR 0023
ENCODING 35
SWIDTH 540 0
DWIDTH 9 0
BBX 7 8 2 2
BITMAP
68
FC
FC
68
68
7E
FE
68
ENDCHAR
STARTCHAR 0024
ENCODING 36
SWIDTH 420 0
DWIDTH 7 0
BBX 5 9 1 2
BITMAP
20
70
40
40
70
18
88
F8
30
ENDCHAR
STARTCHAR 0025
ENCODING 37
SWIDTH 540 0
DWIDTH 9 0
BBX 8 9 1 1
BITMAP
E6
A4
EC
18
1E
35
35
66
20
ENDCHAR
STARTCHAR 0026
ENCODING 38
SWIDTH 540 0
DWIDTH 9 0
BBX 8 11 1 1
BITMAP
10
38
78
78
78
32
73
D6
DC
FC
6C
ENDCHAR
STARTCHAR 0027
ENCODING 39
SWIDTH 180 0
DWIDTH 3 0
BBX 1 3 1 9
BITMAP
80
80
80
ENDCHAR
STARTCHAR 0028
ENCODING 40
SWIDTH 300 0
DWIDTH 5 0
BBX 3 11 1 1
BITMAP
40
40
C0
C0
C0
C0
C0
C0
40
60
20
ENDCHAR
STARTCHAR 0029
ENCODING 41
SWIDTH 300 0
DWIDTH 5 0
BBX 2 11 2 1
BITMAP
80
C0
C0
40
40
40
40
C0
C0
C0
80
ENDCHAR
STARTCHAR 002A
ENCODING 42
SWIDTH 420 0
DWIDTH 7 0
BBX 5 4 1 4
BITMAP
50
38
F0
78
ENDCHAR
STARTCHAR 002B
ENCODING 43
SWIDTH 540 0
DWIDTH 9 0
BBX 6 6 2 3
BITMAP
30
30
FC
30
30
30
ENDCHAR
STARTCHAR 002C
ENCODING 44
SWIDTH 120 0
DWIDTH 2 0
BBX 1 3 1 0
BITMAP
80
80
80
ENDCHAR
STARTCHAR 002D
ENCODING 45
SWIDTH 420 0
DWIDTH 7 0
BBX 5 2 1 5
BITMAP
F8
60
ENDCHAR
STARTCHAR 002E
ENCODING 46
SWIDTH 180 0
DWIDTH 3 0
BBX 1 2 1 1
BITMAP
80
80
ENDCHAR
STARTCHAR 002F
ENCODING 47
SWIDTH 480 0
DWIDTH 8 0
BBX 5 9 2 1
BITMAP
18
18
30
20
60
C0
C0
80
80
ENDCHAR
STARTCHAR 0030
ENCODING 48
SWIDTH 420 0
DWIDTH 7 0
BBX 6 9 0 1
BITMAP
30
38
6C
4C
4C
CC
4C
78
30
ENDCHAR
STARTCHAR 0031
ENCODING 49
SWIDTH 240 0
DWIDTH 4 0
BBX 1 9 2 1
BITMAP
80
80
80
80
80
80
80
80
80
ENDCHAR
STARTCHAR 0032
ENCODING 50
SWIDTH 420 0
DWIDTH 7 0
BBX 7 9 1 1
BITMAP
70
F8
18
10
30
20
60
FC
FE
ENDCHAR
STARTCHAR 0033
ENCODING 51
SWIDTH 420 0
DWIDTH 7 0
BBX 6 11 0 0
BITMAP
38
F8
98
10
30
38
3C
0C
0C
18
30
ENDCHAR
STARTCHAR 0034
ENCODING 52
SWIDTH 480 0
DWIDTH 8 0
BBX 8 9 1 1
BITMAP
08
48
C8
C8
C8
FF
08
08
08
ENDCHAR
STARTCHAR 0035
ENCODING 53
SWIDTH 420 0
DWIDTH 7 0
BBX 5 9 1 1
BITMAP
F8
F8
C0
C0
F0
F8
18
10
30
ENDCHAR
STARTCHAR 0036
ENCODING 54
SWIDTH 420 0
DWIDTH 7 0
BBX 5 9 1 1
BITMAP
20
70
40
C0
F8
C8
C8
D8
70
ENDCHAR
STARTCHAR 0037
ENCODING 55
SWIDTH 420 0
DWIDTH 7 0
BBX 5 9 1 1
BITMAP
F8
F8
08
08
18
18
18
18
10
ENDCHAR
STARTCHAR 0038
ENCODING 56
SWIDTH 360 0
DWIDTH 6 0
BBX 5 11 1 0
BITMAP
78
E0
D8
50
70
30
78
48
58
70
60
ENDCHAR
STARTCHAR 0039
ENCODING 57
SWIDTH 420 0
DWIDTH 7 0
BBX 6 10 1 1
BITMAP
38
7C
4C
CC
78
08
18
18
18
18
ENDCHAR
STARTCHAR 003A
ENCODING 58
SWIDTH 300 0
DWIDTH 5 0
BBX 2 6 2 3
BITMAP
C0
80
00
00
C0
C0
ENDCHAR
STARTCHAR 003B
ENCODING 59
SWIDTH 300 0
DWIDTH 5 0
BBX 2 6 2 3
BITMAP
C0
C0
00
80
C0
C0
ENDCHAR
STARTCHAR 003C
ENCODING 60
SWIDTH 360 0
DWIDTH 6 0
BBX 5 7 1 2
BITMAP
10
30
60
C0
C0
70
18
ENDCHAR
STARTCHAR 003D
ENCODING 61
SWIDTH 420 0
DWIDTH 7 0
BBX 6 4 1 3
BITMAP
F8
00
7C
78
ENDCHAR
STARTCHAR 003E
ENCODING 62
SWIDTH 420 0
DWIDTH 7 0
BBX 5 7 1 2
BITMAP
80
E0
38
18
30
60
C0
ENDCHAR
STARTCHAR 003F
ENCODING 63
SWIDTH 360 0
DWIDTH 6 0
BBX 3 9 2 2
BITMAP
E0
A0
20
60
40
40
40
40
40
ENDCHAR
STARTCHAR 0040
ENCODING 64
SWIDTH 540 0
DWIDTH 9 0
BBX 7 10 1 1
BITMAP
3C
66
D2
9A
BE
9E
D4
40
78
38
ENDCHAR
STARTCHAR 0041
ENCODING 65
SWIDTH 480 0
DWIDTH 8 0
BBX 7 9 1 2
BITMAP
30
30
38
78
48
FE
E8
8C
88
ENDCHAR
STARTCHAR 0042
ENCODING 66
SWIDTH 480 0
DWIDTH 8 0
BBX 6 10 1 1
BITMAP
78
EC
C8
D8
FC
C4
CC
5C
F8
70
ENDCHAR
STARTCHAR 0043
ENCODING 67
SWIDTH 480 0
DWIDTH 8 0
BBX 6 8 1 2
BITMAP
38
60
C0
C0
C0
C4
7C
38
ENDCHAR
STARTCHAR 0044
ENCODING 68
SWIDTH 420 0
DWIDTH 7 0
BBX 6 8 1 2
BITMAP
F0
D8
4C
4C
4C
4C
78
E0
ENDCHAR
STARTCHAR 0045
ENCODING 69
SWIDTH 420 0
DWIDTH 7 0
BBX 6 9 1 1
BITMAP
7C
FC
C0
C0
F8
C0
80
FC
E0
ENDCHAR
STARTCHAR 0046
ENCODING 70
SWIDTH 480 0
DWIDTH 8 0
BBX 7 8 1 3
BITMAP
7E
C0
40
5C
78
40
40
40
ENDCHAR
STARTCHAR 0047
ENCODING 71
SWIDTH 480 0
DWIDTH 8 0
BBX 7 10 1 1
BITMAP
38
60
C0
C0
9E
9C
CC
FC
78
08
ENDCHAR
STARTCHAR 0048
ENCODING 72
SWIDTH 420 0
DWIDTH 7 0
BBX 7 10 1 1
BITMAP
80
C4
C4
C6
FC
FC
C4
C4
C4
C6
ENDCHAR
STARTCHAR 0049
ENCODING 73
SWIDTH 240 0
DWIDTH 4 0
BBX 1 9 2 2
BITMAP
80
80
80
80
80
80
80
80
80
ENDCHAR
STARTCHAR 004A
ENCODING 74
SWIDTH 300 0
DWIDTH 5 0
BBX 4 10 0 1
BITMAP
10
10
10
10
10
10
10
30
70
E0
ENDCHAR
STARTCHAR 004B
ENCODING 75
SWIDTH 480 0
DWIDTH 8 0
BBX 6 9 1 2
BITMAP
C0
CC
D8
F0
E0
F0
98
8C
84
ENDCHAR
STARTCHAR 004C
ENCODING 76
SWIDTH 420 0
DWIDTH 7 0
BBX 6 8 1 2
BITMAP
60
40
40
40
C0
C0
7C
7C
ENDCHAR
STARTCHAR 004D
ENCODING 77
SWIDTH 540 0
DWIDTH 9 0
BBX 8 8 1 2
BITMAP
C3
C3
E7
EF
FB
D3
C1
41
ENDCHAR
STARTCHAR 004E
ENCODING 78
SWIDTH 480 0
DWIDTH 8 0
BBX 6 9 1 2
BITMAP
04
4C
6C
6C
FC
FC
DC
4C
40
ENDCHAR
STARTCHAR 004F
ENCODING 79
SWIDTH 360 0
DWIDTH 6 0
BBX 5 9 1 2
BITMAP
20
70
58
D8
D8
98
90
F0
60
ENDCHAR
STARTCHAR 0050
ENCODING 80
SWIDTH 420 0
DWIDTH 7 0
BBX 6 9 1 2
BITMAP
78
7C
44
CC
FC
F0
C0
C0
40
ENDCHAR
STARTCHAR 0051
ENCODING 81
SWIDTH 480 0
DWIDTH 8 0
BBX 7 9 1 2
BITMAP
10
7C
4C
D4
DC
CC
CC
7C
36
ENDCHAR
STARTCHAR 0052
ENCODING 82
SWIDTH 480 0
DWIDTH 8 0
BBX 7 9 1 2
BITMAP
1C
B4
CC
CC
F8
F0
F8
CE
C0
ENDCHAR
STARTCHAR 0053
ENCODING 83
SWIDTH 420 0
DWIDTH 7 0
BBX 5 10 1 1
BITMAP
78
40
C0
C0
40
30
18
18
F8
70
ENDCHAR
STARTCHAR 0054
ENCODING 84
SWIDTH 480 0
DWIDTH 8 0
BBX 7 9 1 2
BITMAP
3E
FE
90
30
30
30
30
20
20
ENDCHAR
STARTCHAR 0055
ENCODING 85
SWIDTH 420 0
DWIDTH 7 0
BBX 6 8 1 2
BITMAP
C4
CC
CC
CC
CC
CC
78
70
ENDCHAR
STARTCHAR 0056
ENCODING 86
SWIDTH 540 0
DWIDTH 9 0
BBX 7 8 2 2
BITMAP
82
C6
CC
4C
78
78
70
20
ENDCHAR
STARTCHAR 0057
ENCODING 87
SWIDTH 660 0
DWIDTH 11 0
BBX 10 8 1 3
BITMAP
00C0
CCC0
4C80
5F80
7780
7380
7300
2100
ENDCHAR
STARTCHAR 0058
ENCODING 88
SWIDTH 420 0
DWIDTH 7 0
BBX 5 9 2 2
BITMAP
08
C8
58
70
30
70
D8
D8
88
ENDCHAR
STARTCHAR 0059
ENCODING 89
SWIDTH 480 0
DWIDTH 8 0
BBX 6 10 1 1
BITMAP
04
CC
D8
58
70
70
30
30
30
20
ENDCHAR
STARTCHAR 005A
ENCODING 90
SWIDTH 420 0
DWIDTH 7 0
BBX 6 10 1 2
BITMAP
18
F8
18
30
70
78
60
C0
FC
FC
ENDCHAR
STARTCHAR 005B
ENCODING 91
SWIDTH 420 0
DWIDTH 7 0
BBX 4 14 2 -1
BITMAP
60
E0
C0
C0
C0
C0
C0
C0
C0
C0
C0
C0
F0
60
ENDCHAR
STARTCHAR 005C
ENCODING 92
SWIDTH 780 0
DWIDTH 13 0
BBX 13 9 0 2
BITMAP
4230
6730
6730
FFF8
7FE0
2960
39C0
30C0
1080
ENDCHAR
STARTCHAR 005D
ENCODING 93
SWIDTH 360 0
DWIDTH 6 0
BBX 3 14 2 -1
BITMAP
40
E0
20
20
20
20
20
20
20
20
20
20
E0
80
ENDCHAR
STARTCHAR 005E
ENCODING 94
SWIDTH 360 0
DWIDTH 6 0
BBX 5 4 1 7
BITMAP
30
70
58
D0
ENDCHAR
STARTCHAR 005F
ENCODING 95
SWIDTH 540 0
DWIDTH 9 0
BBX 8 1 1 -1
BITMAP
FF
ENDCHAR
STARTCHAR 0060
ENCODING 96
SWIDTH 180 0
DWIDTH 3 0
BBX 1 3 1 9
BITMAP
80
80
80
ENDCHAR
STARTCHAR 0061
ENCODING 97
SWIDTH 300 0
DWIDTH 5 0
BBX 4 6 1 3
BITMAP
E0
A0
70
F0
B0
F0
ENDCHAR
STARTCHAR 0062
ENCODING 98
SWIDTH 300 0
DWIDTH 5 0
BBX 4 9 1 2
BITMAP
80
C0
C0
80
A0
F0
90
B0
E0
ENDCHAR
STARTCHAR 0063
ENCODING 99
SWIDTH 240 0
DWIDTH 4 0
BBX 5 5 0 2
BITMAP
70
40
C0
50
78
ENDCHAR
STARTCHAR 0064
ENCODING 100
SWIDTH 360 0
DWIDTH 6 0
BBX 5 9 1 2
BITMAP
10
18
18
18
78
D8
98
B8
70
ENDCHAR
STARTCHAR 0065
ENCODING 101
SWIDTH 360 0
DWIDTH 6 0
BBX 6 6 0 2
BITMAP
38
48
F8
60
7C
10
ENDCHAR
STARTCHAR 0066
ENCODING 102
SWIDTH 300 0
DWIDTH 5 0
BBX 4 10 1 1
BITMAP
20
30
40
40
40
F0
40
40
60
40
ENDCHAR
STARTCHAR 0067
ENCODING 103
SWIDTH 360 0
DWIDTH 6 0
BBX 4 10 1 -2
BITMAP
60
F0
90
B0
F0
10
10
10
30
60
ENDCHAR
STARTCHAR 0068
ENCODING 104
SWIDTH 420 0
DWIDTH 7 0
BBX 5 9 1 2
BITMAP
80
80
80
80
B8
E8
C8
C8
C8
ENDCHAR
STARTCHAR 0069
ENCODING 105
SWIDTH 180 0
DWIDTH 3 0
BBX 1 8 1 2
BITMAP
80
80
80
80
80
80
80
80
ENDCHAR
STARTCHAR 006A
ENCODING 106
SWIDTH 240 0
DWIDTH 4 0
BBX 4 11 -1 -1
BITMAP
30
00
10
10
10
10
30
30
30
60
C0
ENDCHAR
STARTCHAR 006B
ENCODING 107
SWIDTH 360 0
DWIDTH 6 0
BBX 5 8 1 2
BITMAP
40
C0
C0
D8
F0
E0
F0
D8
ENDCHAR
STARTCHAR 006C
ENCODING 108
SWIDTH 240 0
DWIDTH 4 0
BBX 2 9 1 2
BITMAP
40
C0
C0
C0
C0
C0
C0
C0
40
ENDCHAR
STARTCHAR 006D
ENCODING 109
SWIDTH 540 0
DWIDTH 9 0
BBX 8 6 1 2
BITMAP
80
A6
FE
DA
DA
93
ENDCHAR
STARTCHAR 006E
ENCODING 110
SWIDTH 300 0
DWIDTH 5 0
BBX 6 6 0 2
BITMAP
40
70
F8
F8
C8
4C
ENDCHAR
STARTCHAR 006F
ENCODING 111
SWIDTH 300 0
DWIDTH 5 0
BBX 3 6 1 2
BITMAP
60
E0
A0
A0
E0
C0
ENDCHAR
STARTCHAR 0070
ENCODING 112
SWIDTH 360 0
DWIDTH 6 0
BBX 5 8 1 -1
BITMAP
70
D8
90
F0
C0
80
80
C0
ENDCHAR
STARTCHAR 0071
ENCODING 113
SWIDTH 300 0
DWIDTH 5 0
BBX 4 8 1 0
BITMAP
60
E0
B0
F0
B0
30
30
10
ENDCHAR
STARTCHAR 0072
ENCODING 114
SWIDTH 360 0
DWIDTH 6 0
BBX 5 6 1 2
BITMAP
C0
D8
F0
E0
C0
C0
ENDCHAR
STARTCHAR 0073
ENCODING 115
SWIDTH 300 0
DWIDTH 5 0
BBX 5 8 0 1
BITMAP
38
60
60
30
10
18
F0
60
ENDCHAR
STARTCHAR 0074
ENCODING 116
SWIDTH 300 0
DWIDTH 5 0
BBX 4 7 1 2
BITMAP
60
70
F0
40
40
40
60
ENDCHAR
STARTCHAR 0075
ENCODING 117
SWIDTH 300 0
DWIDTH 5 0
BBX 5 6 0 2
BITMAP
48
48
C8
58
78
20
ENDCHAR
STARTCHAR 0076
ENCODING 118
SWIDTH 360 0
DWIDTH 6 0
BBX 5 6 1 2
BITMAP
88
D8
F0
F0
60
40
ENDCHAR
STARTCHAR 0077
ENCODING 119
SWIDTH 480 0
DWIDTH 8 0
BBX 8 6 0 2
BITMAP
82
D3
F6
FE
6C
44
ENDCHAR
STARTCHAR 0078
ENCODING 120
SWIDTH 300 0
DWIDTH 5 0
BBX 4 6 1 2
BITMAP
90
F0
60
60
F0
90
ENDCHAR
STARTCHAR 0079
ENCODING 121
SWIDTH 420 0
DWIDTH 7 0
BBX 5 9 1 -1
BITMAP
80
88
98
F8
F0
30
30
20
20
ENDCHAR
STARTCHAR 007A
ENCODING 122
SWIDTH 360 0
DWIDTH 6 0
BBX 5 6 1 2
BITMAP
F0
30
60
60
F8
78
ENDCHAR
STARTCHAR 007E
ENCODING 126
SWIDTH 540 0
DWIDTH 9 0
BBX 7 3 2 3
BITMAP
42
A6
BC
ENDCHAR
STARTCHAR 02BC
ENCODING 700
SWIDTH 360 0
DWIDTH 6 0
BBX 2 5 2 8
BITMAP
C0
C0
40
40
80
ENDCHAR
STARTCHAR 03D5
ENCODING 981
SWIDTH 960 0
DWIDTH 16 0
BBX 7 14 4 -2
BITMAP
06
04
04
04
08
7E
4A
D2
D2
74
38
20
20
20
ENDCHAR
STARTCHAR 2010
ENCODING 8208
SWIDTH 420 0
DWIDTH 7 0
BBX 5 2 1 5
BITMAP
F8
60
ENDCHAR
STARTCHAR 2018
ENCODING 8216
SWIDTH 180 0
DWIDTH 3 0
BBX 1 3 1 9
BITMAP
80
80
80
ENDCHAR
STARTCHAR 2019
ENCODING 8217
SWIDTH 180 0
DWIDTH 3 0
BBX 1 3 1 9
BITMAP
80
80
80
ENDCHAR
STARTCHAR 201B
ENCODING 8219
SWIDTH 360 0
DWIDTH 6 0
BBX 2 5 3 8
BITMAP
C0
C0
80
C0
40
ENDCHAR
STARTCHAR 201C
ENCODING 8220
SWIDTH 300 0
DWIDTH 5 0
BBX 3 3 1 9
BITMAP
A0
A0
A0
ENDCHAR
STARTCHAR 201D
ENCODING 8221
SWIDTH 300 0
DWIDTH 5 0
BBX 3 3 1 9
BITMAP
A0
A0
A0
ENDCHAR
STARTCHAR 201F
ENCODING 8223
SWIDTH 420 0
DWIDTH 7 0
BBX 5 4 1 9
BITMAP
D8
F8
90
48
ENDCHAR
STARTCHAR 2034
ENCODING 8244
SWIDTH 960 0
DWIDTH 16 0
BBX 8 3 4 9
BITMAP
DB
92
B6
ENDCHAR
STARTCHAR 2035
ENCODING 8245
SWIDTH 360 0
DWIDTH 6 0
BBX 5 4 1 9
BITMAP
80
C0
70
08
ENDCHAR
STARTCHAR 2036
ENCODING 8246
SWIDTH 360 0
DWIDTH 6 0
BBX 5 6 1 7
BITMAP
80
C0
B0
C8
70
08
ENDCHAR
STARTCHAR 203C
ENCODING 8252
SWIDTH 960 0
DWIDTH 16 0
BBX 8 13 4 -1
BITMAP
C6
C6
C6
C6
C2
C2
C2
C2
C2
00
00
C6
C7
ENDCHAR
STARTCHAR 2042
ENCODING 8258
SWIDTH 960 0
DWIDTH 16 0
BBX 12 12 2 -1
BITMAP
0400
1D00
0600
1F00
0400
0000
0000
D0A0
60E0
F9F0
F9F0
D0A0
ENDCHAR
STARTCHAR 2047
ENCODING 8263
SWIDTH 960 0
DWIDTH 16 0
BBX 13 14 1 -2
BITMAP
3870
7CF8
CD98
C588
0408
0C18
1830
1020
1020
1020
0000
0000
3060
3060
ENDCHAR
STARTCHAR 2049
ENCODING 8265
SWIDTH 960 0
DWIDTH 16 0
BBX 10 14 3 -2
BITMAP
8700
8F80
88C0
98C0
80C0
8180
8380
8300
8200
8200
0000
0000
C300
C300
ENDCHAR
STARTCHAR 204C
ENCODING 8268
SWIDTH 480 0
DWIDTH 8 0
BBX 6 14 1 -2
BITMAP
0C
3C
7C
7C
FC
FC
FC
FC
FC
FC
7C
7C
3C
0C
ENDCHAR
STARTCHAR 204D
ENCODING 8269
SWIDTH 480 0
DWIDTH 8 0
BBX 7 14 1 -2
BITMAP
A0
B0
B8
BC
BC
BC
BE
BE
BC
BC
BC
B8
B0
A0
ENDCHAR
STARTCHAR 204E
ENCODING 8270
SWIDTH 960 0
DWIDTH 16 0
BBX 7 7 4 2
BITMAP
18
52
FE
18
7E
D2
18
ENDCHAR
STARTCHAR 2051
ENCODING 8273
SWIDTH 360 0
DWIDTH 6 0
BBX 4 10 1 0
BITMAP
20
F0
D0
20
00
00
20
D0
70
A0
ENDCHAR
STARTCHAR 207A
ENCODING 8314
SWIDTH 360 0
DWIDTH 6 0
BBX 5 5 1 6
BITMAP
20
F8
F8
20
20
ENDCHAR
STARTCHAR 207B
ENCODING 8315
SWIDTH 360 0
DWIDTH 6 0
BBX 5 2 1 8
BITMAP
F8
F8
ENDCHAR
STARTCHAR 207C
ENCODING 8316
SWIDTH 360 0
DWIDTH 6 0
BBX 4 4 1 7
BITMAP
F0
F0
F0
F0
ENDCHAR
STARTCHAR 207D
ENCODING 8317
SWIDTH 300 0
DWIDTH 5 0
BBX 2 7 2 5
BITMAP
40
80
80
80
80
80
40
ENDCHAR
STARTCHAR 207E
ENCODING 8318
SWIDTH 300 0
DWIDTH 5 0
BBX 2 7 1 5
BITMAP
80
40
40
40
40
40
80
ENDCHAR
STARTCHAR 20A9
ENCODING 8361
SWIDTH 780 0
DWIDTH 13 0
BBX 13 9 0 2
BITMAP
4230
6730
6730
FFF8
7FE0
2960
39C0
30C0
1080
ENDCHAR
STARTCHAR 219C
ENCODING 8604
SWIDTH 960 0
DWIDTH 16 0
BBX 8 16 4 -3
BITMAP
40
40
FC
42
41
01
01
02
0C
10
20
40
40
40
20
1E
ENDCHAR
STARTCHAR 219D
ENCODING 8605
SWIDTH 960 0
DWIDTH 16 0
BBX 8 16 4 -3
BITMAP
04
06
3F
46
84
80
80
40
20
18
04
04
04
04
08
F0
ENDCHAR
STARTCHAR 21B0
ENCODING 8624
SWIDTH 960 0
DWIDTH 16 0
BBX 14 14 1 -3
BITMAP
2000
6000
FFFC
6004
2004
0004
0004
0004
0004
0004
0004
0004
0004
0004
ENDCHAR
STARTCHAR 21B1
ENCODING 8625
SWIDTH 960 0
DWIDTH 16 0
BBX 14 14 1 -3
BITMAP
0020
0010
FFF8
801C
8010
8000
8000
8000
8000
8000
8000
8000
8000
8000
ENDCHAR
STARTCHAR 21B2
ENCODING 8626
SWIDTH 960 0
DWIDTH 16 0
BBX 14 15 1 -2
BITMAP
0004
0004
0004
0004
0004
0004
0004
0004
0004
2004
2004
7FFC
E000
6000
2000
ENDCHAR
STARTCHAR 21B3
ENCODING 8627
SWIDTH 960 0
DWIDTH 16 0
BBX 14 14 1 -1
BITMAP
8000
8000
8000
8000
8000
8000
8000
8000
8000
8010
8018
FFFC
0010
0020
ENDCHAR
STARTCHAR 21B4
ENCODING 8628
SWIDTH 960 0
DWIDTH 16 0
BBX 14 14 1 -3
BITMAP
FFF0
0010
0010
0010
0010
0010
0010
0010
0010
0010
0010
007C
0038
0010
ENDCHAR
STARTCHAR 21B6
ENCODING 8630
SWIDTH 960 0
DWIDTH 16 0
BBX 9 16 3 -3
BITMAP
0F00
1180
2080
2080
2080
F880
2080
0080
0080
0080
0080
0080
0080
0080
0080
0080
ENDCHAR
STARTCHAR 21B7
ENCODING 8631
SWIDTH 960 0
DWIDTH 16 0
BBX 9 16 3 -3
BITMAP
3800
4400
8200
8200
8200
8780
8300
8000
8000
8000
8000
8000
8000
8000
8000
8000
ENDCHAR
STARTCHAR 21BC
ENCODING 8636
SWIDTH 960 0
DWIDTH 16 0
BBX 15 4 0 5
BITMAP
0300
0C00
3FFE
FFFE
ENDCHAR
STARTCHAR 21C0
ENCODING 8640
SWIDTH 960 0
DWIDTH 16 0
BBX 15 4 0 5
BITMAP
00C0
0030
FFF8
FFFE
ENDCHAR
STARTCHAR 21C4
ENCODING 8644
SWIDTH 960 0
DWIDTH 16 0
BBX 15 10 0 0
BITMAP
0020
7FFC
7FFE
0010
0060
0400
1800
7FFE
BFFE
0C00
ENDCHAR
STARTCHAR 21C5
ENCODING 8645
SWIDTH 960 0
DWIDTH 16 0
BBX 10 16 3 -3
BITMAP
4000
6100
6100
6100
F100
F100
6100
6100
6100
6100
6940
6580
6380
6180
6100
0100
ENDCHAR
STARTCHAR 21CD
ENCODING 8653
SWIDTH 960 0
DWIDTH 16 0
BBX 15 11 0 0
BITMAP
0030
0C20
1820
3FFE
7FFE
C040
7FFE
3FFE
1880
0C80
0180
ENDCHAR
STARTCHAR 21CF
ENCODING 8655
SWIDTH 960 0
DWIDTH 16 0
BBX 15 11 0 0
BITMAP
0300
0220
0210
FFF8
FFFC
0406
FFFC
FFF8
0818
1830
1800
ENDCHAR
STARTCHAR 21D0
ENCODING 8656
SWIDTH 960 0
DWIDTH 16 0
BBX 15 9 0 1
BITMAP
0800
1C00
3FFE
7FFE
C000
7FFE
3FFE
1800
0C00
ENDCHAR
STARTCHAR 21D1
ENCODING 8657
SWIDTH 960 0
DWIDTH 16 0
BBX 14 15 1 -2
BITMAP
0500
0C80
0CC0
14E0
24B0
6490
C488
8484
0480
0480
0480
0480
0480
0480
0480
ENDCHAR
STARTCHAR 21D3
ENCODING 8659
SWIDTH 960 0
DWIDTH 16 0
BBX 14 15 1 -2
BITMAP
0480
0480
0480
0480
0480
0480
0480
8484
C488
6490
24B0
14E0
0CC0
0C80
0500
ENDCHAR
STARTCHAR 21E0
ENCODING 8672
SWIDTH 960 0
DWIDTH 16 0
BBX 14 7 1 1
BITMAP
2000
2000
6CCC
ECC8
6000
2000
2000
ENDCHAR
STARTCHAR 21E1
ENCODING 8673
SWIDTH 960 0
DWIDTH 16 0
BBX 6 14 5 -2
BITMAP
20
70
FC
00
00
30
00
00
30
30
00
00
30
30
ENDCHAR
STARTCHAR 21E2
ENCODING 8674
SWIDTH 960 0
DWIDTH 16 0
BBX 14 7 1 1
BITMAP
0020
0010
C998
CD9C
0018
0010
0020
ENDCHAR
STARTCHAR 21E3
ENCODING 8675
SWIDTH 960 0
DWIDTH 16 0
BBX 6 13 5 -2
BITMAP
30
30
00
00
30
30
00
30
30
00
00
FC
30
ENDCHAR
STARTCHAR 21E6
ENCODING 8678
SWIDTH 960 0
DWIDTH 16 0
BBX 15 13 0 -1
BITMAP
0200
0600
0A00
13FE
2002
4002
8002
4002
23FE
1200
0A00
0600
0200
ENDCHAR
STARTCHAR 21E7
ENCODING 8679
SWIDTH 960 0
DWIDTH 16 0
BBX 12 15 2 -2
BITMAP
0400
0A00
1100
2080
4040
8020
F0F0
1080
1080
1080
1080
1080
1080
1080
1F80
ENDCHAR
STARTCHAR 21E8
ENCODING 8680
SWIDTH 960 0
DWIDTH 16 0
BBX 15 13 0 -1
BITMAP
0080
00C0
00A0
FF90
8008
8004
8002
8004
FF88
0090
00A0
0040
0080
ENDCHAR
STARTCHAR 21E9
ENCODING 8681
SWIDTH 960 0
DWIDTH 16 0
BBX 12 15 2 -2
BITMAP
1F80
1080
1080
1080
1080
1080
1080
1080
F0F0
8020
4040
2080
1100
0A00
0400
ENDCHAR
STARTCHAR 21F0
ENCODING 8688
SWIDTH 960 0
DWIDTH 16 0
BBX 15 12 0 -1
BITMAP
0200
0300
0280
8260
FE10
800C
BE0E
C230
8260
0380
0300
0200
ENDCHAR
STARTCHAR 2206
ENCODING 8710
SWIDTH 960 0
DWIDTH 16 0
BBX 12 13 2 -1
BITMAP
0600
0600
0A00
0B00
1100
1180
2180
20C0
40C0
4060
8060
FFF0
FFF0
ENDCHAR
STARTCHAR 2209
ENCODING 8713
SWIDTH 960 0
DWIDTH 16 0
BBX 11 13 2 -1
BITMAP
0040
0040
3FE0
7FE0
C180
FFE0
FFE0
C300
E200
7FE0
3FE0
0600
0C00
ENDCHAR
STARTCHAR 220C
ENCODING 8716
SWIDTH 960 0
DWIDTH 16 0
BBX 11 13 2 -1
BITMAP
0300
0300
FF80
FFC0
0660
FFE0
FFE0
0860
1860
FFC0
FF80
3000
3000
ENDCHAR
STARTCHAR 2213
ENCODING 8723
SWIDTH 960 0
DWIDTH 16 0
BBX 8 11 4 0
BITMAP
FF
FF
00
18
18
18
FF
FF
18
18
18
ENDCHAR
STARTCHAR 221F
ENCODING 8735
SWIDTH 960 0
DWIDTH 16 0
BBX 12 12 2 -1
BITMAP
C000
C000
C000
C000
C000
C000
C000
C000
C000
C000
FFF0
FFF0
ENDCHAR
STARTCHAR 2222
ENCODING 8738
SWIDTH 960 0
DWIDTH 16 0
BBX 13 14 1 -2
BITMAP
0100
0188
00F8
00E0
03A0
1C20
7020
B820
0E20
01E0
0070
00D8
0180
0100
ENDCHAR
STARTCHAR 2225
ENCODING 8741
SWIDTH 600 0
DWIDTH 10 0
BBX 6 15 2 -2
BITMAP
CC
CC
CC
CC
CC
CC
CC
CC
CC
CC
CC
CC
CC
CC
CC
ENDCHAR
STARTCHAR 2226
ENCODING 8742
SWIDTH 960 0
DWIDTH 16 0
BBX 15 15 0 -2
BITMAP
C0CC
618C
3198
1B18
0F30
0630
0620
0760
0DE0
0CC0
18E0
19B0
1198
310C
7306
ENDCHAR
STARTCHAR 2237
ENCODING 8759
SWIDTH 960 0
DWIDTH 16 0
BBX 11 10 2 0
BITMAP
E060
E060
0000
0000
0000
0000
0000
0000
E060
E060
ENDCHAR
STARTCHAR 2243
ENCODING 8771
SWIDTH 960 0
DWIDTH 16 0
BBX 10 7 3 1
BITMAP
7040
CCC0
8780
0000
0000
FFC0
FFC0
ENDCHAR
STARTCHAR 2245
ENCODING 8773
SWIDTH 960 0
DWIDTH 16 0
BBX 10 10 3 -1
BITMAP
7040
CCC0
8780
0000
0000
FFC0
07C0
0000
FFC0
FFC0
ENDCHAR
STARTCHAR 2248
ENCODING 8776
SWIDTH 960 0
DWIDTH 16 0
BBX 10 9 3 0
BITMAP
7080
F8C0
8F80
8700
0000
7080
F8C0
8F80
8700
ENDCHAR
STARTCHAR 2250
ENCODING 8784
SWIDTH 960 0
DWIDTH 16 0
BBX 11 8 2 2
BITMAP
0600
0600
0000
FFE0
FFE0
0000
FFE0
FFE0
ENDCHAR
STARTCHAR 2251
ENCODING 8785
SWIDTH 960 0
DWIDTH 16 0
BBX 11 11 2 0
BITMAP
0600
0600
0000
FFE0
FFE0
0000
FFE0
FFE0
0000
0600
0600
ENDCHAR
STARTCHAR 2253
ENCODING 8787
SWIDTH 960 0
DWIDTH 16 0
BBX 11 11 2 0
BITMAP
00C0
00C0
0000
FFE0
FFE0
0000
FFE0
FFE0
0000
2000
3000
ENDCHAR
STARTCHAR 225A
ENCODING 8794
SWIDTH 960 0
DWIDTH 16 0
BBX 11 14 2 -2
BITMAP
2060
2040
30C0
1080
1980
0900
0F00
0600
0600
0000
FFE0
FFE0
FFE0
FFE0
ENDCHAR
STARTCHAR 2262
ENCODING 8802
SWIDTH 960 0
DWIDTH 16 0
BBX 11 13 2 -1
BITMAP
0100
0100
0300
FFE0
FFE0
FFE0
FFE0
0400
FFE0
FFE0
0800
0800
1800
ENDCHAR
STARTCHAR 2266
ENCODING 8806
SWIDTH 960 0
DWIDTH 16 0
BBX 11 13 2 -1
BITMAP
0040
03E0
0E00
3800
7800
0E00
0380
0060
0000
FFE0
FFE0
FFE0
FFE0
ENDCHAR
STARTCHAR 2267
ENCODING 8807
SWIDTH 960 0
DWIDTH 16 0
BBX 11 13 2 -1
BITMAP
6000
3800
0E00
01C0
01E0
0700
3800
6000
0000
FFE0
FFE0
FFE0
FFE0
ENDCHAR
STARTCHAR 226E
ENCODING 8814
SWIDTH 960 0
DWIDTH 16 0
BBX 12 13 2 -1
BITMAP
0110
0170
01C0
0700
1E00
7200
C200
6400
1C00
0600
0580
0860
0830
ENDCHAR
STARTCHAR 226F
ENCODING 8815
SWIDTH 960 0
DWIDTH 16 0
BBX 12 13 2 -1
BITMAP
8200
C200
3200
0C00
0700
04C0
0C30
08E0
0B80
0E00
1800
7000
9000
ENDCHAR
STARTCHAR 2270
ENCODING 8816
SWIDTH 960 0
DWIDTH 16 0
BBX 11 16 2 -3
BITMAP
0100
0100
01C0
0720
3E00
7200
0E00
0780
0460
0400
FFE0
FFE0
FFE0
FFE0
0800
1800
ENDCHAR
STARTCHAR 2271
ENCODING 8817
SWIDTH 960 0
DWIDTH 16 0
BBX 11 16 2 -3
BITMAP
0200
0200
7600
1E00
0780
04E0
0F00
0C00
7800
4800
FFE0
FFE0
FFE0
FFE0
3000
2000
ENDCHAR
STARTCHAR 2272
ENCODING 8818
SWIDTH 960 0
DWIDTH 16 0
BBX 14 15 1 -2
BITMAP
0018
0070
03C0
0E00
7800
F800
0E00
01C0
0078
0008
0000
1E00
3F8C
21F8
00F0
ENDCHAR
STARTCHAR 2273
ENCODING 8819
SWIDTH 960 0
DWIDTH 16 0
BBX 14 15 1 -2
BITMAP
C000
7000
0E00
0380
0070
0078
0380
1C00
F000
8000
0000
1E00
3F0C
23F8
40F0
ENDCHAR
STARTCHAR 2276
ENCODING 8822
SWIDTH 960 0
DWIDTH 16 0
BBX 14 13 1 -1
BITMAP
0018
00F0
0700
7800
BC00
4780
7878
0708
00F0
007C
0780
3C00
4000
ENDCHAR
STARTCHAR 2277
ENCODING 8823
SWIDTH 960 0
DWIDTH 16 0
BBX 14 13 1 -1
BITMAP
4000
3C00
0780
0070
00FC
0F08
7878
8380
3C00
F800
0700
00F0
0018
ENDCHAR
STARTCHAR 2279
ENCODING 8825
SWIDTH 960 0
DWIDTH 16 0
BBX 13 15 1 -2
BITMAP
0080
6080
1D80
0380
0178
01E0
0E08
7270
8780
3A00
FC00
0780
0470
0408
0800
ENDCHAR
STARTCHAR 227A
ENCODING 8826
SWIDTH 960 0
DWIDTH 16 0
BBX 12 11 2 0
BITMAP
0010
0070
00C0
0300
1C00
E000
1C00
0300
00C0
0070
0010
ENDCHAR
STARTCHAR 227B
ENCODING 8827
SWIDTH 960 0
DWIDTH 16 0
BBX 12 11 2 0
BITMAP
8000
C000
3000
1C00
0780
00F0
0380
1C00
3000
C000
8000
ENDCHAR
STARTCHAR 2280
ENCODING 8832
SWIDTH 960 0
DWIDTH 16 0
BBX 12 14 2 -1
BITMAP
0200
0210
0230
0260
0380
0600
3A00
F200
0E00
0380
02C0
0230
0210
0200
ENDCHAR
STARTCHAR 2281
ENCODING 8833
SWIDTH 960 0
DWIDTH 16 0
BBX 12 14 2 -1
BITMAP
0400
8400
8400
6400
3C00
0E00
07C0
05F0
0700
1C00
7400
C400
8400
0400
ENDCHAR
STARTCHAR 2284
ENCODING 8836
SWIDTH 960 0
DWIDTH 16 0
BBX 11 13 2 -1
BITMAP
0080
1FE0
7FE0
6100
C300
C200
C200
C600
6600
7FE0
1FE0
0C00
0800
ENDCHAR
STARTCHAR 2285
ENCODING 8837
SWIDTH 960 0
DWIDTH 16 0
BBX 11 13 2 -1
BITMAP
0300
FF80
FFC0
0660
0460
0C20
0C20
0860
0860
FFC0
FF80
1000
3000
ENDCHAR
STARTCHAR 228A
ENCODING 8842
SWIDTH 960 0
DWIDTH 16 0
BBX 12 15 2 -2
BITMAP
3FE0
7FE0
C000
8000
8000
C000
7FE0
3FE0
FFF0
FFF0
0600
FFF0
FFF0
0400
0800
ENDCHAR
STARTCHAR 228B
ENCODING 8843
SWIDTH 960 0
DWIDTH 16 0
BBX 12 15 2 -2
BITMAP
FF80
FFE0
0060
0030
0030
0060
FFE0
FF80
FFF0
FFF0
0800
FFF0
FFF0
1000
1000
ENDCHAR
STARTCHAR 2295
ENCODING 8853
SWIDTH 960 0
DWIDTH 16 0
BBX 14 14 1 -1
BITMAP
0F80
3060
6210
4208
8204
8204
8204
BFF4
BFF4
8204
4208
6210
3260
0F80
ENDCHAR
STARTCHAR 2296
ENCODING 8854
SWIDTH 960 0
DWIDTH 16 0
BBX 14 15 1 -2
BITMAP
0F80
3060
6010
4008
8008
8004
8004
BFF4
BFF4
8004
8008
4008
6010
3060
0F80
ENDCHAR
STARTCHAR 2297
ENCODING 8855
SWIDTH 960 0
DWIDTH 16 0
BBX 14 14 1 -1
BITMAP
0F80
3060
6010
5048
8864
8484
8304
8304
8484
8844
5028
6010
3060
0F80
ENDCHAR
STARTCHAR 22A3
ENCODING 8867
SWIDTH 960 0
DWIDTH 16 0
BBX 10 13 3 -1
BITMAP
0040
0040
0040
0040
0040
FFC0
FFC0
0040
0040
0040
0040
0040
0040
ENDCHAR
STARTCHAR 22A4
ENCODING 8868
SWIDTH 960 0
DWIDTH 16 0
BBX 11 11 2 0
BITMAP
FFE0
FFE0
0400
0400
0400
0400
0400
0400
0400
0400
0400
ENDCHAR
STARTCHAR 22BB
ENCODING 8891
SWIDTH 960 0
DWIDTH 16 0
BBX 11 11 2 0
BITMAP
2060
2040
30C0
1080
1980
0900
0F00
0600
0600
FFE0
FFE0
ENDCHAR
STARTCHAR 22BC
ENCODING 8892
SWIDTH 960 0
DWIDTH 16 0
BBX 11 11 2 0
BITMAP
FFE0
FFE0
0600
0600
0F00
0900
1980
1080
30C0
2040
2060
ENDCHAR
STARTCHAR 22CE
ENCODING 8910
SWIDTH 960 0
DWIDTH 16 0
BBX 11 13 2 -1
BITMAP
0400
0400
0400
0600
0600
0A00
0900
1900
1080
3080
2040
4060
C020
ENDCHAR
STARTCHAR 22CF
ENCODING 8911
SWIDTH 960 0
DWIDTH 16 0
BBX 11 13 2 -1
BITMAP
C020
4060
2040
3080
1080
1900
0900
0A00
0600
0600
0400
0400
0400
ENDCHAR
STARTCHAR 22DA
ENCODING 8922
SWIDTH 960 0
DWIDTH 16 0
BBX 12 15 2 -2
BITMAP
0030
03C0
3C00
F800
0780
0070
FFF0
FFF0
0000
E000
1E00
01E0
03D0
3C00
C000
ENDCHAR
STARTCHAR 22DB
ENCODING 8923
SWIDTH 960 0
DWIDTH 16 0
BBX 12 15 2 -2
BITMAP
C000
7C00
0380
03F0
3C00
C000
FFF0
FFF0
0000
0070
0780
7800
BC00
03C0
0030
ENDCHAR
STARTCHAR 22EE
ENCODING 8942
SWIDTH 960 0
DWIDTH 16 0
BBX 2 12 7 -1
BITMAP
C0
C0
00
00
00
C0
C0
00
00
00
C0
C0
ENDCHAR
STARTCHAR 2306
ENCODING 8966
SWIDTH 960 0
DWIDTH 16 0
BBX 11 13 2 -1
BITMAP
FFE0
FFE0
FFE0
FFE0
0600
0600
0F00
0900
1980
1080
30C0
2040
2060
ENDCHAR
STARTCHAR 2314
ENCODING 8980
SWIDTH 960 0
DWIDTH 16 0
BBX 12 14 2 -2
BITMAP
1F80
7FE0
E070
8020
4020
4040
2040
2080
1080
1100
0900
0E00
0600
0400
ENDCHAR
STARTCHAR 246F
ENCODING 9327
SWIDTH 960 0
DWIDTH 16 0
BBX 15 16 0 -2
BITMAP
07C0
1FF0
3838
300C
6466
5C46
C4C2
C4F2
C5F2
C59A
459E
65F6
34FC
3838
1FF0
07C0
ENDCHAR
STARTCHAR 2470
ENCODING 9328
SWIDTH 960 0
DWIDTH 16 0
BBX 15 16 0 -2
BITMAP
07C0
1FF0
3838
3DFC
7DF6
4436
C432
C422
C462
C462
4446
64C6
300C
3838
1FF0
07C0
ENDCHAR
STARTCHAR 2471
ENCODING 9329
SWIDTH 960 0
DWIDTH 16 0
BBX 15 16 0 -2
BITMAP
07C0
1FF0
3838
30FC
65F6
5D9E
C59A
C4F2
C4F2
C59A
459E
65F6
34FC
3838
1FF0
07C0
ENDCHAR
STARTCHAR 2472
ENCODING 9330
SWIDTH 960 0
DWIDTH 16 0
BBX 15 16 0 -2
BITMAP
07C0
1FF0
3838
30EC
7DF6
559E
C59A
C5F2
C4F2
C422
4466
6446
308C
3838
1FF0
07C0
ENDCHAR
STARTCHAR 2473
ENCODING 9331
SWIDTH 960 0
DWIDTH 16 0
BBX 15 16 0 -2
BITMAP
07C0
1FF0
3838
3E7C
6F76
43DE
C3DA
C2DA
C6DA
C4DA
48DE
7F76
3F7C
3838
1FF0
07C0
ENDCHAR
STARTCHAR 2483
ENCODING 9347
SWIDTH 960 0
DWIDTH 16 0
BBX 15 14 0 -1
BITMAP
200C
6004
4426
5C66
4442
C4C2
C4F2
C5F2
C59A
459A
45F6
44F6
6004
200C
ENDCHAR
STARTCHAR 2484
ENCODING 9348
SWIDTH 960 0
DWIDTH 16 0
BBX 15 14 0 -1
BITMAP
200C
6004
4DF6
5DF6
4432
C422
C422
C462
C442
4442
44C6
4006
6004
200C
ENDCHAR
STARTCHAR 2485
ENCODING 9349
SWIDTH 960 0
DWIDTH 16 0
BBX 15 14 0 -1
BITMAP
200C
6004
44F6
5DF6
459A
C59A
C4F2
C4F2
C59A
459A
45F6
44F6
6004
200C
ENDCHAR
STARTCHAR 2486
ENCODING 9350
SWIDTH 960 0
DWIDTH 16 0
BBX 15 14 0 -1
BITMAP
200C
6004
44F6
5DF6
459A
C59A
C5F2
C4F2
C422
4462
4446
4086
6004
200C
ENDCHAR
STARTCHAR 2487
ENCODING 9351
SWIDTH 960 0
DWIDTH 16 0
BBX 15 14 0 -1
BITMAP
200C
6004
4E76
4F76
43DA
C3DA
C2DA
C6DA
C4DA
48DA
5F76
5F76
6004
200C
ENDCHAR
STARTCHAR 24B6
ENCODING 9398
SWIDTH 960 0
DWIDTH 16 0
BBX 15 16 0 -2
BITMAP
07C0
1FF0
3838
300C
6186
4186
C382
C2C2
C242
C7C2
47E6
6C66
3C3C
3838
1FF0
07C0
ENDCHAR
STARTCHAR 24B7
ENCODING 9399
SWIDTH 960 0
DWIDTH 16 0
BBX 15 16 0 -2
BITMAP
07C0
1FF0
3838
300C
67C6
47E6
C622
C7E2
C7E2
C622
4626
67E6
33CC
3838
1FF0
07C0
ENDCHAR
STARTCHAR 24B8
ENCODING 9400
SWIDTH 960 0
DWIDTH 16 0
BBX 15 16 0 -2
BITMAP
07C0
1FF0
3838
33CC
67E6
4606
CC02
CC02
CC02
CC02
4606
67E6
33CC
3838
1FF0
07C0
ENDCHAR
STARTCHAR 24B9
ENCODING 9401
SWIDTH 960 0
DWIDTH 16 0
BBX 15 16 0 -2
BITMAP
07C0
1FF0
3838
300C
67C6
47E6
C462
C432
C432
C432
4466
67E6
37CC
3838
1FF0
07C0
ENDCHAR
STARTCHAR 24BA
ENCODING 9402
SWIDTH 960 0
DWIDTH 16 0
BBX 15 16 0 -2
BITMAP
07C0
1FF0
3838
37EC
67E6
4406
C402
C7C2
C7C2
C402
4406
67E6
37EC
3838
1FF0
07C0
ENDCHAR
STARTCHAR 24BB
ENCODING 9403
SWIDTH 960 0
DWIDTH 16 0
BBX 15 16 0 -2
BITMAP
07C0
1FF0
3838
37EC
67E6
4606
C602
C7E2
C7E2
C602
4606
6606
360C
3838
1FF0
07C0
ENDCHAR
STARTCHAR 24BC
ENCODING 9404
SWIDTH 960 0
DWIDTH 16 0
BBX 15 16 0 -2
BITMAP
07C0
1FF0
3838
33CC
67E6
4E06
CC02
C8E2
C8E2
CC22
4E26
67E6
33CC
3838
1FF0
07C0
ENDCHAR
STARTCHAR 24BD
ENCODING 9405
SWIDTH 960 0
DWIDTH 16 0
BBX 15 16 0 -2
BITMAP
07C0
1FF0
3838
346C
6466
4466
C462
C7E2
C7E2
C462
4466
6466
342C
3838
1FF0
07C0
ENDCHAR
STARTCHAR 24BE
ENCODING 9406
SWIDTH 960 0
DWIDTH 16 0
BBX 15 16 0 -2
BITMAP
07C0
1FF0
3838
33CC
63C6
4186
C182
C182
C182
C182
4186
63C6
33CC
3838
1FF0
07C0
ENDCHAR
STARTCHAR 24BF
ENCODING 9407
SWIDTH 960 0
DWIDTH 16 0
BBX 15 16 0 -2
BITMAP
07C0
1FF0
3838
338C
6386
4086
C082
C082
C082
C082
4086
6786
378C
3838
1FF0
07C0
ENDCHAR
STARTCHAR 24C0
ENCODING 9408
SWIDTH 960 0
DWIDTH 16 0
BBX 15 16 0 -2
BITMAP
07C0
1FF0
3838
300C
6466
44C6
C582
C782
C702
C582
44C6
6466
341C
3838
1FF0
07C0
ENDCHAR
STARTCHAR 24C1
ENCODING 9409
SWIDTH 960 0
DWIDTH 16 0
BBX 15 16 0 -2
BITMAP
07C0
1FF0
3838
300C
6606
4606
C602
C602
C602
C602
4606
67E6
33EC
3838
1FF0
07C0
ENDCHAR
STARTCHAR 24C2
ENCODING 9410
SWIDTH 960 0
DWIDTH 16 0
BBX 15 16 0 -2
BITMAP
07C0
1FF0
3838
300C
6C36
4C76
CE72
CAF2
CBB2
C9B2
4936
6836
300C
3838
1FF0
07C0
ENDCHAR
STARTCHAR 24C3
ENCODING 9411
SWIDTH 960 0
DWIDTH 16 0
BBX 15 16 0 -2
BITMAP
07C0
1FF0
3838
300C
6E26
4E26
CF22
CD22
CDA2
CCE2
4C66
6C66
300C
3838
1FF0
07C0
ENDCHAR
STARTCHAR 24C4
ENCODING 9412
SWIDTH 960 0
DWIDTH 16 0
BBX 15 16 0 -2
BITMAP
07C0
1FF0
3838
33CC
67E6
4C66
CC32
C832
C832
CC32
4C66
67E6
33CC
3838
1FF0
07C0
ENDCHAR
STARTCHAR 24C5
ENCODING 9413
SWIDTH 960 0
DWIDTH 16 0
BBX 15 16 0 -2
BITMAP
07C0
1FF0
3838
37CC
67E6
4626
C622
C7E2
C7C2
C602
4606
6606
300C
3838
1FF0
07C0
ENDCHAR
STARTCHAR 24C6
ENCODING 9414
SWIDTH 960 0
DWIDTH 16 0
BBX 15 16 0 -2
BITMAP
07C0
1FF0
3838
33CC
67E6
4C66
CC32
C832
C832
CCF2
4C66
67F6
33DC
3838
1FF0
07C0
ENDCHAR
STARTCHAR 24C7
ENCODING 9415
SWIDTH 960 0
DWIDTH 16 0
BBX 15 16 0 -2
BITMAP
07C0
1FF0
3838
37CC
67E6
4626
C622
C7E2
C7C2
C6C2
4666
6626
301C
3838
1FF0
07C0
ENDCHAR
STARTCHAR 24C8
ENCODING 9416
SWIDTH 960 0
DWIDTH 16 0
BBX 15 16 0 -2
BITMAP
07C0
1FF0
3838
33CC
67E6
4606
C602
C302
C0C2
C062
4866
67E6
37CC
3838
1FF0
07C0
ENDCHAR
STARTCHAR 24C9
ENCODING 9417
SWIDTH 960 0
DWIDTH 16 0
BBX 15 16 0 -2
BITMAP
07C0
1FF0
3838
37EC
67E6
4186
C182
C182
C182
C182
4186
6186
300C
3838
1FF0
07C0
ENDCHAR
STARTCHAR 24CA
ENCODING 9418
SWIDTH 960 0
DWIDTH 16 0
BBX 15 16 0 -2
BITMAP
07C0
1FF0
3838
300C
6C26
4C26
CC22
CC22
CC22
CC22
4666
67C6
33CC
3838
1FF0
07C0
ENDCHAR
STARTCHAR 24CB
ENCODING 9419
SWIDTH 960 0
DWIDTH 16 0
BBX 15 16 0 -2
BITMAP
07C0
1FF0
3838
300C
6C36
4466
C662
C642
C2C2
C3C2
4386
6186
310C
3838
1FF0
07C0
ENDCHAR
STARTCHAR 24CC
ENCODING 9420
SWIDTH 960 0
DWIDTH 16 0
BBX 15 16 0 -2
BITMAP
07C0
1FF0
3838
300C
581E
5992
D992
CB92
CAF2
CAF2
4E66
6E66
300C
3838
1FF0
07C0
ENDCHAR
STARTCHAR 24CD
ENCODING 9421
SWIDTH 960 0
DWIDTH 16 0
BBX 15 16 0 -2
BITMAP
07C0
1FF0
3838
300C
6E66
46C6
C3C2
C182
C382
C3C2
4646
6C66
301C
3838
1FF0
07C0
ENDCHAR
STARTCHAR 24CE
ENCODING 9422
SWIDTH 960 0
DWIDTH 16 0
BBX 15 16 0 -2
BITMAP
07C0
1FF0
3838
300C
6C66
4666
C2C2
C382
C182
C182
4186
6186
318C
3838
1FF0
07C0
ENDCHAR
STARTCHAR 24CF
ENCODING 9423
SWIDTH 960 0
DWIDTH 16 0
BBX 15 16 0 -2
BITMAP
07C0
1FF0
3838
37EC
67E6
40C6
C082
C102
C302
C202
47E6
67E6
300C
3838
1FF0
07C0
ENDCHAR
STARTCHAR 24EB
ENCODING 9451
SWIDTH 960 0
DWIDTH 16 0
BBX 15 14 0 -1
BITMAP
07E0
1FF0
3FFC
711C
795E
F9DE
F9DE
F9DE
F9DE
79DE
79DC
3FFC
1FF0
07E0
ENDCHAR
STARTCHAR 24EC
ENCODING 9452
SWIDTH 960 0
DWIDTH 16 0
BBX 15 14 0 -1
BITMAP
07E0
1FF0
3F1C
73CC
6BEE
FBEE
FBCE
FB9E
FB3E
7A4E
7A0C
3FFC
1FF0
07E0
ENDCHAR
STARTCHAR 24ED
ENCODING 9453
SWIDTH 960 0
DWIDTH 16 0
BBX 15 13 0 -1
BITMAP
07E0
1FF8
3E1C
6BCE
7BEE
FB0E
FB1E
FBEE
7BEE
7A1E
3FFC
1FF8
07E0
ENDCHAR
STARTCHAR 24EE
ENCODING 9454
SWIDTH 960 0
DWIDTH 16 0
BBX 15 14 0 -1
BITMAP
07E0
1FF0
3FFC
73CC
6B8E
FBCE
FB4E
FA4E
FA86
7BCE
7BCC
3FFC
1FF0
07E0
ENDCHAR
STARTCHAR 24EF
ENCODING 9455
SWIDTH 960 0
DWIDTH 16 0
BBX 15 15 0 -2
BITMAP
07E0
1FF0
3FF8
730C
6B7E
7B7E
FB1E
FBEE
FBEE
7B0E
7B0E
7B1C
3FF8
1FF0
07E0
ENDCHAR
STARTCHAR 24F0
ENCODING 9456
SWIDTH 960 0
DWIDTH 16 0
BBX 15 15 0 -2
BITMAP
07E0
1FF0
3FF8
739C
6B9E
7B3E
FB1E
FA0E
FA66
7AE6
7A0E
7B0C
3FF8
1FF0
07E0
ENDCHAR
STARTCHAR 24F1
ENCODING 9457
SWIDTH 960 0
DWIDTH 16 0
BBX 15 14 0 -1
BITMAP
07E0
1FF0
3FFC
720C
6BEE
FBCE
FBDE
FB9E
FB9E
7BBE
7B3C
3FFC
1FF0
07E0
ENDCHAR
STARTCHAR 24F2
ENCODING 9458
SWIDTH 960 0
DWIDTH 16 0
BBX 15 13 0 -1
BITMAP
07E0
1FF8
3F0C
6A6E
7A66
FB0E
FA0E
FA66
7A66
7B0E
3FFC
1FF8
07E0
ENDCHAR
STARTCHAR 24F3
ENCODING 9459
SWIDTH 960 0
DWIDTH 16 0
BBX 15 14 0 -1
BITMAP
07E0
1FF0
3F0C
620C
6A66
FAE6
FB0E
FBCE
FBDE
7B9E
7B3C
3FFC
1FF0
07E0
ENDCHAR
STARTCHAR 24F4
ENCODING 9460
SWIDTH 960 0
DWIDTH 16 0
BBX 15 14 0 -1
BITMAP
07E0
1FF0
318C
7C8C
7D26
FD26
F926
FB26
F326
64AE
608C
3FFC
1FF0
07E0
ENDCHAR
STARTCHAR 2588
ENCODING 9608
SWIDTH 960 0
DWIDTH 16 0
BBX 12 12 2 -1
BITMAP
FFF0
FFF0
FFF0
FFF0
FFF0
FFF0
FFF0
FFF0
FFF0
FFF0
FFF0
FFF0
ENDCHAR
STARTCHAR 25A2
ENCODING 9634
SWIDTH 960 0
DWIDTH 16 0
BBX 15 16 0 -3
BITMAP
7FFE
8002
8002
8002
8002
8002
8002
8002
8002
8002
8002
8002
8002
8002
8002
7FFE
ENDCHAR
STARTCHAR 25AD
ENCODING 9645
SWIDTH 960 0
DWIDTH 16 0
BBX 15 8 0 1
BITMAP
FFFE
8002
8002
8002
8002
8002
8002
FFFE
ENDCHAR
STARTCHAR 25B1
ENCODING 9649
SWIDTH 960 0
DWIDTH 16 0
BBX 13 9 1 1
BITMAP
3FF8
3FF8
2008
2010
4010
4010
4010
7FF0
FFE0
ENDCHAR
STARTCHAR 25B5
ENCODING 9653
SWIDTH 960 0
DWIDTH 16 0
BBX 13 12 1 0
BITMAP
0200
0300
0700
0780
0D80
0CC0
1840
1860
3020
2030
7FF0
FFF8
ENDCHAR
STARTCHAR 25B9
ENCODING 9657
SWIDTH 960 0
DWIDTH 16 0
BBX 11 13 2 -1
BITMAP
8000
E000
F800
DC00
C700
C1C0
C0E0
C1C0
C700
DC00
F800
E000
8000
ENDCHAR
STARTCHAR 25BF
ENCODING 9663
SWIDTH 960 0
DWIDTH 16 0
BBX 13 11 1 0
BITMAP
FFF8
7FF0
2030
3020
1860
0840
0C80
0580
0700
0300
0200
ENDCHAR
STARTCHAR 25C3
ENCODING 9667
SWIDTH 960 0
DWIDTH 16 0
BBX 11 13 2 -1
BITMAP
0020
0060
01E0
0720
0E20
3820
E020
3820
0E20
0720
01E0
0060
0020
ENDCHAR
STARTCHAR 25CA
ENCODING 9674
SWIDTH 960 0
DWIDTH 16 0
BBX 12 15 2 -2
BITMAP
0400
0600
0B00
1180
30C0
6040
C020
8030
C020
6040
30C0
1980
0B00
0600
0400
ENDCHAR
STARTCHAR 25CC
ENCODING 9676
SWIDTH 960 0
DWIDTH 16 0
BBX 15 15 0 -2
BITMAP
05C0
0820
3008
0004
4002
8002
0000
8002
8002
8002
4002
0000
2004
3008
0DB0
ENDCHAR
STARTCHAR 25CD
ENCODING 9677
SWIDTH 960 0
DWIDTH 16 0
BBX 14 14 1 -2
BITMAP
0FC0
35E0
6B50
56A8
AD5C
DABC
B57C
EAF4
D5EC
ABD4
56A8
6D50
3AA0
0FC0
ENDCHAR
STARTCHAR 25E6
ENCODING 9702
SWIDTH 960 0
DWIDTH 16 0
BBX 12 12 2 0
BITMAP
0F00
3FC0
70C0
4060
C020
C030
C030
C020
4060
70C0
3FC0
0F00
ENDCHAR
STARTCHAR 25EF
ENCODING 9711
SWIDTH 960 0
DWIDTH 16 0
BBX 15 15 0 -2
BITMAP
07C0
1830
2008
4004
4002
8002
8002
8002
8002
8002
4002
4004
2008
1830
07C0
ENDCHAR
STARTCHAR 25FB
ENCODING 9723
SWIDTH 960 0
DWIDTH 16 0
BBX 9 9 3 0
BITMAP
FF80
8080
8080
8080
8080
8080
8080
8080
FF80
ENDCHAR
STARTCHAR 25FC
ENCODING 9724
SWIDTH 960 0
DWIDTH 16 0
BBX 10 10 3 0
BITMAP
FFC0
FFC0
FFC0
FFC0
FFC0
FFC0
FFC0
FFC0
FFC0
FFC0
ENDCHAR
STARTCHAR 2610
ENCODING 9744
SWIDTH 960 0
DWIDTH 16 0
BBX 15 16 0 -3
BITMAP
FFFE
8002
8002
8002
8002
8002
8002
8002
8002
8002
8002
8002
8002
8002
8002
FFFE
ENDCHAR
STARTCHAR 261D
ENCODING 9757
SWIDTH 960 0
DWIDTH 16 0
BBX 4 12 6 -1
BITMAP
10
30
30
70
F0
F0
B0
D0
D0
A0
F0
F0
ENDCHAR
STARTCHAR 261F
ENCODING 9759
SWIDTH 960 0
DWIDTH 16 0
BBX 4 12 6 -1
BITMAP
F0
F0
A0
D0
D0
B0
F0
F0
70
30
30
10
ENDCHAR
STARTCHAR 262F
ENCODING 9775
SWIDTH 960 0
DWIDTH 16 0
BBX 12 13 2 0
BITMAP
1F00
20C0
4020
8020
8010
83D0
83F0
87F0
FFF0
FFE0
7FE0
3FC0
1F00
ENDCHAR
STARTCHAR 2666
ENCODING 9830
SWIDTH 960 0
DWIDTH 16 0
BBX 10 14 3 -2
BITMAP
0800
0800
0C00
1E00
3E00
7F00
FF80
FFC0
7F00
3E00
1E00
0C00
0800
0800
ENDCHAR
STARTCHAR 266F
ENCODING 9839
SWIDTH 960 0
DWIDTH 16 0
BBX 9 13 3 -1
BITMAP
0200
1200
1200
1380
FF80
D200
1200
1280
7F80
F200
1200
1200
1000
ENDCHAR
STARTCHAR 2716
ENCODING 10006
SWIDTH 960 0
DWIDTH 16 0
BBX 11 11 2 0
BITMAP
1080
39C0
7FE0
FFE0
3FC0
1F80
3FC0
7FE0
FFE0
39C0
1080
ENDCHAR
STARTCHAR 271A
ENCODING 10010
SWIDTH 960 0
DWIDTH 16 0
BBX 12 12 2 0
BITMAP
0F00
0F00
0F00
0F00
FFF0
FFF0
FFF0
FFF0
0F00
0F00
0F00
0F00
ENDCHAR
STARTCHAR 2720
ENCODING 10016
SWIDTH 960 0
DWIDTH 16 0
BBX 11 11 2 0
BITMAP
3F80
1F00
8F20
C660
F4E0
FFE0
F5E0
C660
8F20
1F00
3F80
ENDCHAR
STARTCHAR 2723
ENCODING 10019
SWIDTH 960 0
DWIDTH 16 0
BBX 13 13 1 -1
BITMAP
0200
0700
0780
0300
0220
2330
77F8
FB30
2220
0300
0780
0700
0200
ENDCHAR
STARTCHAR 2731
ENCODING 10033
SWIDTH 960 0
DWIDTH 16 0
BBX 10 10 3 0
BITMAP
0800
0800
88C0
6B80
1E00
1E00
6980
88C0
0800
0800
ENDCHAR
STARTCHAR 273D
ENCODING 10045
SWIDTH 960 0
DWIDTH 16 0
BBX 9 9 3 1
BITMAP
0C00
4D00
6D80
FF80
1C00
7F00
EF80
4D00
0C00
ENDCHAR
STARTCHAR 273F
ENCODING 10047
SWIDTH 960 0
DWIDTH 16 0
BBX 13 12 1 -1
BITMAP
0500
0700
0700
6318
3B70
FEF8
1CE0
0780
1DC0
1CE0
3CF0
0840
ENDCHAR
STARTCHAR 2740
ENCODING 10048
SWIDTH 960 0
DWIDTH 16 0
BBX 12 12 2 -1
BITMAP
79C0
8A20
8410
9DA0
7FE0
79C0
8920
9F90
9D90
8410
8620
79C0
ENDCHAR
STARTCHAR 2741
ENCODING 10049
SWIDTH 960 0
DWIDTH 16 0
BBX 12 12 2 -1
BITMAP
3B80
4440
64A0
B5D0
9F10
FDF0
EFF0
9F10
9590
64E0
4A40
3B80
ENDCHAR
STARTCHAR 2747
ENCODING 10055
SWIDTH 960 0
DWIDTH 16 0
BBX 6 6 5 2
BITMAP
AC
EC
FC
70
E8
A4
ENDCHAR
STARTCHAR 274D
ENCODING 10061
SWIDTH 960 0
DWIDTH 16 0
BBX 14 15 1 -2
BITMAP
0F80
3060
6010
4008
8008
8004
8004
8004
8004
C01C
B078
5FE8
6F50
36A0
0FC0
ENDCHAR
STARTCHAR 2756
ENCODING 10070
SWIDTH 960 0
DWIDTH 16 0
BBX 12 13 2 -1
BITMAP
0400
0E00
1F00
0E00
2440
70E0
F9F0
70E0
2440
0E00
1F00
0E00
0400
ENDCHAR
STARTCHAR 2776
ENCODING 10102
SWIDTH 960 0
DWIDTH 16 0
BBX 15 14 0 -1
BITMAP
07E0
1FF0
3C7C
7E7C
7E7E
FE7E
FE7E
FE7E
FE7E
7E7E
7E7C
3E7C
1FF0
07E0
ENDCHAR
STARTCHAR 2777
ENCODING 10103
SWIDTH 960 0
DWIDTH 16 0
BBX 15 14 0 -1
BITMAP
07E0
1FF0
3C3C
7F3C
7F9E
FF9E
FFBE
FF3E
FE7E
7CFE
79FC
381C
1FF0
07E0
ENDCHAR
STARTCHAR 2778
ENCODING 10104
SWIDTH 960 0
DWIDTH 16 0
BBX 15 14 0 -1
BITMAP
07E0
1FF0
3C3C
7C1C
7F9E
FF9E
FC3E
FC1E
FF9E
7FDE
7F9C
383C
1FF0
07E0
ENDCHAR
STARTCHAR 2779
ENCODING 10105
SWIDTH 960 0
DWIDTH 16 0
BBX 15 14 0 -1
BITMAP
07E0
1FF0
3F3C
7E3C
7F3E
FD3E
FD3E
F93E
FB3E
701E
7F3C
3F3C
1FF0
07E0
ENDCHAR
STARTCHAR 277A
ENCODING 10106
SWIDTH 960 0
DWIDTH 16 0
BBX 15 14 0 -1
BITMAP
07E0
1FF0
3C3C
7C3C
7DFE
FDFE
FC3E
FF9E
FF9E
7F9E
7B1C
387C
1FF0
07E0
ENDCHAR
STARTCHAR 277B
ENCODING 10107
SWIDTH 960 0
DWIDTH 16 0
BBX 15 14 0 -1
BITMAP
07E0
1FF0
3E7C
7E7C
7CFE
FDFE
F83E
F99E
FB9E
7BDE
799C
3C3C
1FF0
07E0
ENDCHAR
STARTCHAR 277C
ENCODING 10108
SWIDTH 960 0
DWIDTH 16 0
BBX 15 14 0 -1
BITMAP
07E0
1FF0
381C
7F9C
7FBE
FF3E
FF3E
FF7E
FE7E
7EFE
7CFC
3CFC
1FF0
07E0
ENDCHAR
STARTCHAR 277D
ENCODING 10109
SWIDTH 960 0
DWIDTH 16 0
BBX 15 14 0 -1
BITMAP
07E0
1FF0
3C3C
781C
7B9E
FB9E
F83E
FC1E
FB9E
7BDE
7B9C
3C3C
1FF0
07E0
ENDCHAR
STARTCHAR 277E
ENCODING 10110
SWIDTH 960 0
DWIDTH 16 0
BBX 15 14 0 -1
BITMAP
07E0
1FF0
3C3C
799C
7BDE
FBDE
F99E
FC3E
FFBE
7F7E
7E7C
3EFC
1FF0
07E0
ENDCHAR
STARTCHAR 277F
ENCODING 10111
SWIDTH 960 0
DWIDTH 16 0
BBX 15 13 0 -1
BITMAP
07E0
1FF8
3F1C
636E
6A6E
FA6E
FA6E
FA6E
7B6E
7B1E
3FFC
1FF8
07E0
ENDCHAR
STARTCHAR 278A
ENCODING 10122
SWIDTH 960 0
DWIDTH 16 0
BBX 15 14 0 -2
BITMAP
07E0
1FF0
3E7C
7C7C
7C7E
7E7E
FE7E
FE7E
7E7E
7E7E
7E7C
3E7C
1FF0
07E0
ENDCHAR
STARTCHAR 278B
ENCODING 10123
SWIDTH 960 0
DWIDTH 16 0
BBX 15 15 0 -2
BITMAP
07C0
1FF0
3E38
3C3C
799E
79BE
FF3E
FF3E
FE7E
7E7E
7CFE
383C
3838
1FF0
07C0
ENDCHAR
STARTCHAR 278C
ENCODING 10124
SWIDTH 960 0
DWIDTH 16 0
BBX 15 15 0 -2
BITMAP
07C0
1FF0
3E78
3C3C
7DBE
7DBE
FF3E
FE3E
FF7E
7FBE
7DBE
3C3C
3C38
1FF0
07C0
ENDCHAR
STARTCHAR 278D
ENCODING 10125
SWIDTH 960 0
DWIDTH 16 0
BBX 15 14 0 -2
BITMAP
07E0
1FF0
3F3C
7E3C
7E3E
7D3E
FD3E
F93E
781E
781E
7F3C
3F3C
1FF0
07E0
ENDCHAR
STARTCHAR 278E
ENCODING 10126
SWIDTH 960 0
DWIDTH 16 0
BBX 15 14 0 -2
BITMAP
07E0
1FF0
3C3C
7DFC
7DFE
7C3E
FC3E
FCBE
7FBE
7FBE
7DBC
3C3C
1FF0
07E0
ENDCHAR
STARTCHAR 278F
ENCODING 10127
SWIDTH 960 0
DWIDTH 16 0
BBX 15 15 0 -2
BITMAP
07C0
1FF0
3C78
3C3C
79BE
79FE
FA7E
F83E
F93E
79BE
79BE
383C
3C78
1FF0
07C0
ENDCHAR
STARTCHAR 2790
ENCODING 10128
SWIDTH 960 0
DWIDTH 16 0
BBX 15 14 0 -2
BITMAP
07E0
1FF0
383C
783C
7F3E
7F3E
FF7E
FE7E
7E7E
7E7E
7CFC
3CFC
1FF0
07E0
ENDCHAR
STARTCHAR 2791
ENCODING 10129
SWIDTH 960 0
DWIDTH 16 0
BBX 15 15 0 -2
BITMAP
07C0
1FF0
3FF8
3C3C
7D3E
7DBE
FC3E
FC3E
FD7E
79BE
79BE
383C
3C38
1FF0
07C0
ENDCHAR
STARTCHAR 2792
ENCODING 10130
SWIDTH 960 0
DWIDTH 16 0
BBX 15 15 0 -2
BITMAP
07C0
1FF0
3C38
3C3C
7DBE
79BE
F9BE
FD3E
FCBE
7FBE
7DBE
3C3C
3C38
1FF0
07C0
ENDCHAR
STARTCHAR 2793
ENCODING 10131
SWIDTH 960 0
DWIDTH 16 0
BBX 15 14 0 -2
BITMAP
07E0
1FF0
3B1C
734C
736E
7B6E
FB6E
FB6E
7B6E
7B6E
7B4C
3B1C
1FF0
07E0
ENDCHAR
STARTCHAR 2794
ENCODING 10132
SWIDTH 960 0
DWIDTH 16 0
BBX 15 12 0 -1
BITMAP
0020
0070
0078
0038
003C
FFFE
FFFE
003C
0038
0078
0070
0020
ENDCHAR
STARTCHAR 279B
ENCODING 10139
SWIDTH 960 0
DWIDTH 16 0
BBX 15 8 0 1
BITMAP
3000
0E00
07E0
FFFE
07F0
0780
1800
6000
ENDCHAR
STARTCHAR 279C
ENCODING 10140
SWIDTH 960 0
DWIDTH 16 0
BBX 15 14 0 -2
BITMAP
0F00
0FC0
0FE0
07F0
01FC
7FFE
FFFE
7FFE
7FFE
01F8
07F0
0FE0
0F80
0700
ENDCHAR
STARTCHAR 279E
ENCODING 10142
SWIDTH 960 0
DWIDTH 16 0
BBX 15 12 0 -1
BITMAP
0020
0030
0038
0038
FFFC
FFFE
FFFE
003C
0038
0038
0030
0020
ENDCHAR
STARTCHAR 27A1
ENCODING 10145
SWIDTH 960 0
DWIDTH 16 0
BBX 15 14 0 -2
BITMAP
0080
0040
0060
0070
FFF8
FFFC
FFFE
FFFE
FFFC
FFF8
0070
0060
0040
0080
ENDCHAR
STARTCHAR 27A4
ENCODING 10148
SWIDTH 960 0
DWIDTH 16 0
BBX 15 14 0 -2
BITMAP
8000
6000
3C00
3F00
3FC0
3FF0
7FFC
FFFE
3FF0
3FC0
3F00
3C00
6000
8000
ENDCHAR
STARTCHAR 27B2
ENCODING 10162
SWIDTH 960 0
DWIDTH 16 0
BBX 15 14 0 -2
BITMAP
07E0
1FF8
3F7C
7F3C
703E
701E
F00E
F00E
701E
703E
7F7C
3FFC
1FF8
07E0
ENDCHAR
STARTCHAR 27B5
ENCODING 10165
SWIDTH 960 0
DWIDTH 16 0
BBX 15 6 0 2
BITMAP
B420
AA18
5A04
FFFE
AA08
B410
ENDCHAR
STARTCHAR 2934
ENCODING 10548
SWIDTH 960 0
DWIDTH 16 0
BBX 14 14 1 -1
BITMAP
0020
0030
0038
0068
01A4
0020
0020
0020
0040
0040
0080
0100
0200
FC00
ENDCHAR
STARTCHAR 2935
ENCODING 10549
SWIDTH 960 0
DWIDTH 16 0
BBX 14 14 1 -3
BITMAP
F000
0C00
0300
0080
0040
0040
0020
0020
0020
0124
00E8
0038
0030
0020
ENDCHAR
STARTCHAR 2936
ENCODING 10550
SWIDTH 960 0
DWIDTH 16 0
BBX 14 14 1 -1
BITMAP
0004
0004
0004
0004
0008
0008
0010
0010
1020
2040
4380
FC00
2000
1000
ENDCHAR
STARTCHAR 2937
ENCODING 10551
SWIDTH 960 0
DWIDTH 16 0
BBX 14 14 1 -1
BITMAP
8000
8000
8000
8000
8000
8000
4000
2000
1080
0860
0710
00FC
0020
0040
ENDCHAR
STARTCHAR 2939
ENCODING 10553
SWIDTH 960 0
DWIDTH 16 0
BBX 14 14 1 -3
BITMAP
003C
01C0
0200
0C00
0800
1000
1000
2000
2000
A400
A800
7000
2000
2000
ENDCHAR
STARTCHAR 2962
ENCODING 10594
SWIDTH 960 0
DWIDTH 16 0
BBX 15 15 0 -2
BITMAP
0080
0100
0200
0C00
1000
3FFE
7FFE
8000
FFFE
3FFE
1000
0800
0600
0100
0080
ENDCHAR
STARTCHAR 2963
ENCODING 10595
SWIDTH 960 0
DWIDTH 16 0
BBX 14 15 1 -2
BITMAP
0500
0C80
0CC0
14E0
24B0
6490
C488
8484
0480
0480
0480
0480
0480
0480
0480
ENDCHAR
STARTCHAR 2964
ENCODING 10596
SWIDTH 960 0
DWIDTH 16 0
BBX 15 15 0 -2
BITMAP
0100
0380
0040
0020
0018
FFFC
FFFE
0000
FFFE
FFFC
0008
0030
0040
0180
0300
ENDCHAR
STARTCHAR 2965
ENCODING 10597
SWIDTH 960 0
DWIDTH 16 0
BBX 14 15 1 -2
BITMAP
0480
0480
0480
0480
0480
0480
0480
8484
C488
6490
24B0
14E0
0CC0
0C80
0500
ENDCHAR
STARTCHAR 2981
ENCODING 10625
SWIDTH 960 0
DWIDTH 16 0
BBX 12 12 2 -1
BITMAP
1F00
3FC0
7FE0
FFE0
FFF0
FFF0
FFF0
FFF0
FFE0
7FE0
3FC0
1F00
ENDCHAR
STARTCHAR 2985
ENCODING 10629
SWIDTH 360 0
DWIDTH 6 0
BBX 4 14 1 -2
BITMAP
30
60
60
C0
C0
C0
C0
C0
C0
C0
C0
60
60
30
ENDCHAR
STARTCHAR 2986
ENCODING 10630
SWIDTH 360 0
DWIDTH 6 0
BBX 4 14 1 -2
BITMAP
C0
60
60
50
30
30
30
30
30
30
50
60
60
C0
ENDCHAR
STARTCHAR 2997
ENCODING 10647
SWIDTH 360 0
DWIDTH 6 0
BBX 3 14 2 -2
BITMAP
20
60
80
80
80
80
80
80
80
80
80
80
40
20
ENDCHAR
STARTCHAR 2998
ENCODING 10648
SWIDTH 360 0
DWIDTH 6 0
BBX 3 14 1 -2
BITMAP
80
40
20
20
20
20
20
20
20
20
20
20
40
80
ENDCHAR
STARTCHAR 29A3
ENCODING 10659
SWIDTH 960 0
DWIDTH 16 0
BBX 10 10 3 0
BITMAP
8000
4000
2000
1000
0800
0400
0200
0100
FF80
FFC0
ENDCHAR
STARTCHAR 29BE
ENCODING 10686
SWIDTH 960 0
DWIDTH 16 0
BBX 13 14 1 -2
BITMAP
0F80
1FE0
3070
6790
4FD8
5848
D068
D068
5848
4FD8
6790
3070
1FE0
0F80
ENDCHAR
STARTCHAR 29BF
ENCODING 10687
SWIDTH 960 0
DWIDTH 16 0
BBX 13 13 1 -1
BITMAP
0F80
1060
2010
4708
8FC8
9FC8
9FE8
9FE8
9FC8
4FC8
2310
1060
0F80
ENDCHAR
STARTCHAR 29C8
ENCODING 10696
SWIDTH 960 0
DWIDTH 16 0
BBX 12 12 2 -1
BITMAP
FFF0
8010
8010
9F90
A090
A090
A090
A090
9F90
8010
8010
FFF0
ENDCHAR
STARTCHAR 2A26
ENCODING 10790
SWIDTH 960 0
DWIDTH 16 0
BBX 11 11 2 -1
BITMAP
0400
0400
0400
FFE0
FFE0
0400
0400
0400
3C40
6C60
C3C0
ENDCHAR
STARTCHAR 2A38
ENCODING 10808
SWIDTH 960 0
DWIDTH 16 0
BBX 14 14 1 -2
BITMAP
0F80
3060
6310
4308
8004
8004
FFF4
8004
8004
8304
4308
6010
3060
0F80
ENDCHAR
STARTCHAR 2A72
ENCODING 10866
SWIDTH 960 0
DWIDTH 16 0
BBX 8 11 4 0
BITMAP
10
10
FF
FF
10
10
10
FF
FF
FF
FF
ENDCHAR
STARTCHAR 2A8B
ENCODING 10891
SWIDTH 960 0
DWIDTH 16 0
BBX 11 13 2 -1
BITMAP
0060
0780
F800
0FC0
0020
FFE0
FFE0
FFE0
FFE0
3C00
03E0
1E00
E000
ENDCHAR
STARTCHAR 2A8C
ENCODING 10892
SWIDTH 960 0
DWIDTH 16 0
BBX 11 13 2 -1
BITMAP
E000
1E00
01E0
3E00
C000
FFE0
FFE0
FFE0
FFE0
07C0
7800
8F80
0060
ENDCHAR
STARTCHAR 2A91
ENCODING 10897
SWIDTH 960 0
DWIDTH 16 0
BBX 11 12 2 -1
BITMAP
0060
0F80
F800
C7C0
3C20
03E0
1E00
E000
FFE0
FFE0
FFE0
FFE0
ENDCHAR
STARTCHAR 2A92
ENCODING 10898
SWIDTH 960 0
DWIDTH 16 0
BBX 11 12 2 -1
BITMAP
E000
1E00
01E0
3E20
C7C0
7800
8F80
0060
FFE0
FFE0
FFE0
FFE0
ENDCHAR
STARTCHAR 2AC5
ENCODING 10949
SWIDTH 960 0
DWIDTH 16 0
BBX 12 13 2 0
BITMAP
3FE0
7FE0
6000
C000
8000
C000
E000
7FE0
3FE0
FFF0
FFF0
FFF0
FFF0
ENDCHAR
STARTCHAR 2AC6
ENCODING 10950
SWIDTH 960 0
DWIDTH 16 0
BBX 12 13 2 0
BITMAP
FF80
FFC0
0060
0020
0030
0030
0060
FFE0
FF80
FFF0
FFF0
FFF0
FFF0
ENDCHAR
STARTCHAR 2ACB
ENCODING 10955
SWIDTH 960 0
DWIDTH 16 0
BBX 12 15 2 -2
BITMAP
3FE0
7FE0
C000
8000
8000
C000
7FE0
3FE0
FFF0
FFF0
0600
FFF0
FFF0
0400
0800
ENDCHAR
STARTCHAR 2ACC
ENCODING 10956
SWIDTH 960 0
DWIDTH 16 0
BBX 12 15 2 -2
BITMAP
FF80
FFE0
0060
0030
0030
0060
FFE0
FF80
FFF0
FFF0
0800
FFF0
FFF0
1000
1000
ENDCHAR
STARTCHAR 2AE8
ENCODING 10984
SWIDTH 960 0
DWIDTH 16 0
BBX 11 10 2 0
BITMAP
0600
0600
0600
0600
0600
FFE0
FFE0
0000
FFE0
FFE0
ENDCHAR
STARTCHAR 3012
ENCODING 12306
SWIDTH 960 0
DWIDTH 16 0
BBX 12 13 2 -1
BITMAP
FFF0
FFF0
0000
0000
FFF0
FFF0
0400
0400
0400
0400
0400
0400
0400
ENDCHAR
STARTCHAR 3016
ENCODING 12310
SWIDTH 360 0
DWIDTH 6 0
BBX 5 16 1 -3
BITMAP
F8
90
90
A0
A0
A0
A0
A0
A0
A0
A0
A0
A0
90
90
F8
ENDCHAR
STARTCHAR 3017
ENCODING 12311
SWIDTH 360 0
DWIDTH 6 0
BBX 6 16 0 -3
BITMAP
FC
44
44
24
24
24
24
14
14
14
24
24
24
24
44
FC
ENDCHAR
STARTCHAR 3018
ENCODING 12312
SWIDTH 540 0
DWIDTH 9 0
BBX 7 17 1 -3
BITMAP
0C
1C
62
8C
90
90
90
90
90
90
90
90
90
98
46
34
0C
ENDCHAR
STARTCHAR 3019
ENCODING 12313
SWIDTH 540 0
DWIDTH 9 0
BBX 6 17 1 -3
BITMAP
40
B0
9C
44
34
14
14
14
14
14
14
14
14
74
C4
98
60
ENDCHAR
STARTCHAR 301E
ENCODING 12318
SWIDTH 480 0
DWIDTH 8 0
BBX 6 5 1 8
BITMAP
3C
68
58
90
A0
ENDCHAR
STARTCHAR 301F
ENCODING 12319
SWIDTH 480 0
DWIDTH 8 0
BBX 6 5 1 -3
BITMAP
3C
68
58
90
A0
ENDCHAR
STARTCHAR 3020
ENCODING 12320
SWIDTH 960 0
DWIDTH 16 0
BBX 12 10 2 1
BITMAP
1800
1F00
47C0
B2F0
BA20
A3E0
94D0
5090
2F10
1FE0
ENDCHAR
STARTCHAR 3036
ENCODING 12342
SWIDTH 960 0
DWIDTH 16 0
BBX 14 15 1 -2
BITMAP
0F80
1FE0
7030
7FF8
FFE8
800C
BFE4
BFE4
820C
C20C
C208
6218
7A70
1FE0
0F80
ENDCHAR
STARTCHAR 3131
ENCODING 12593
SWIDTH 480 0
DWIDTH 8 0
BBX 5 6 2 3
BITMAP
F8
F8
08
08
08
08
ENDCHAR
STARTCHAR 3132
ENCODING 12594
SWIDTH 780 0
DWIDTH 13 0
BBX 9 6 2 3
BITMAP
0600
FF80
1180
1180
1100
1100
ENDCHAR
STARTCHAR 3133
ENCODING 12595
SWIDTH 660 0
DWIDTH 11 0
BBX 8 5 2 4
BITMAP
62
F6
16
1F
19
ENDCHAR
STARTCHAR 3134
ENCODING 12596
SWIDTH 480 0
DWIDTH 8 0
BBX 6 6 2 3
BITMAP
80
C0
80
C0
FC
38
ENDCHAR
STARTCHAR 3135
ENCODING 12597
SWIDTH 660 0
DWIDTH 11 0
BBX 8 5 2 4
BITMAP
0F
C3
C2
C7
7D
ENDCHAR
STARTCHAR 3136
ENCODING 12598
SWIDTH 660 0
DWIDTH 11 0
BBX 9 6 2 3
BITMAP
0600
4180
CF80
C700
7500
3700
ENDCHAR
STARTCHAR 3137
ENCODING 12599
SWIDTH 480 0
DWIDTH 8 0
BBX 6 6 2 3
BITMAP
F8
F4
C0
C0
CC
7C
ENDCHAR
STARTCHAR 3138
ENCODING 12600
SWIDTH 600 0
DWIDTH 10 0
BBX 9 6 1 3
BITMAP
FF00
4C00
4C00
4C00
7F00
7780
ENDCHAR
STARTCHAR 3139
ENCODING 12601
SWIDTH 480 0
DWIDTH 8 0
BBX 5 8 2 2
BITMAP
60
F0
10
30
E0
80
D8
78
ENDCHAR
STARTCHAR 313A
ENCODING 12602
SWIDTH 540 0
DWIDTH 9 0
BBX 7 6 2 3
BITMAP
E0
3E
66
C6
96
F0
ENDCHAR
STARTCHAR 313B
ENCODING 12603
SWIDTH 600 0
DWIDTH 10 0
BBX 8 6 2 2
BITMAP
E0
37
35
4D
D7
78
ENDCHAR
STARTCHAR 313C
ENCODING 12604
SWIDTH 660 0
DWIDTH 11 0
BBX 8 6 3 2
BITMAP
D9
7B
7F
DA
AE
F4
ENDCHAR
STARTCHAR 313D
ENCODING 12605
SWIDTH 660 0
DWIDTH 11 0
BBX 9 6 2 2
BITMAP
E200
3600
3600
4500
CD80
7000
ENDCHAR
STARTCHAR 313E
ENCODING 12606
SWIDTH 660 0
DWIDTH 11 0
BBX 8 6 3 2
BITMAP
E0
2E
68
CE
DF
60
ENDCHAR
STARTCHAR 313F
ENCODING 12607
SWIDTH 660 0
DWIDTH 11 0
BBX 8 6 3 2
BITMAP
DF
60
6A
CA
83
EF
ENDCHAR
STARTCHAR 3140
ENCODING 12608
SWIDTH 660 0
DWIDTH 11 0
BBX 9 7 2 2
BITMAP
0400
E200
3F80
3E00
6500
C500
7F00
ENDCHAR
STARTCHAR 3141
ENCODING 12609
SWIDTH 480 0
DWIDTH 8 0
BBX 5 6 2 3
BITMAP
C0
F8
C8
C8
F8
F8
ENDCHAR
STARTCHAR 3142
ENCODING 12610
SWIDTH 540 0
DWIDTH 9 0
BBX 7 6 2 3
BITMAP
46
46
FE
44
64
3C
ENDCHAR
STARTCHAR 3143
ENCODING 12611
SWIDTH 660 0
DWIDTH 11 0
BBX 9 6 2 3
BITMAP
9500
9580
F780
9500
D500
6300
ENDCHAR
STARTCHAR 3144
ENCODING 12612
SWIDTH 780 0
DWIDTH 13 0
BBX 10 7 2 3
BITMAP
0100
9B00
BB00
BB80
DEC0
F440
2000
ENDCHAR
STARTCHAR 3145
ENCODING 12613
SWIDTH 480 0
DWIDTH 8 0
BBX 6 6 2 4
BITMAP
10
18
30
78
D8
8C
ENDCHAR
STARTCHAR 3146
ENCODING 12614
SWIDTH 600 0
DWIDTH 10 0
BBX 9 5 1 4
BITMAP
3600
2600
7E00
5F00
C980
ENDCHAR
STARTCHAR 3147
ENCODING 12615
SWIDTH 480 0
DWIDTH 8 0
BBX 5 6 3 3
BITMAP
30
70
D8
98
F0
70
ENDCHAR
STARTCHAR 3148
ENCODING 12616
SWIDTH 540 0
DWIDTH 9 0
BBX 6 5 3 4
BITMAP
F8
58
10
78
CC
ENDCHAR
STARTCHAR 3149
ENCODING 12617
SWIDTH 600 0
DWIDTH 10 0
BBX 8 6 2 3
BITMAP
FF
12
36
76
D9
09
ENDCHAR
STARTCHAR 314A
ENCODING 12618
SWIDTH 540 0
DWIDTH 9 0
BBX 6 8 3 3
BITMAP
40
60
78
F8
18
30
78
CC
ENDCHAR
STARTCHAR 314B
ENCODING 12619
SWIDTH 540 0
DWIDTH 9 0
BBX 5 6 3 3
BITMAP
F8
08
F8
F8
08
08
ENDCHAR
STARTCHAR 314C
ENCODING 12620
SWIDTH 480 0
DWIDTH 8 0
BBX 6 6 2 3
BITMAP
F8
78
F8
FC
40
7C
ENDCHAR
STARTCHAR 314D
ENCODING 12621
SWIDTH 540 0
DWIDTH 9 0
BBX 7 7 2 3
BITMAP
7C
FC
28
2C
2C
FE
FE
ENDCHAR
STARTCHAR 314E
ENCODING 12622
SWIDTH 480 0
DWIDTH 8 0
BBX 5 9 2 2
BITMAP
60
20
F8
F0
30
50
50
70
20
ENDCHAR
STARTCHAR 314F
ENCODING 12623
SWIDTH 360 0
DWIDTH 6 0
BBX 4 10 2 1
BITMAP
40
C0
40
40
40
40
70
40
40
40
ENDCHAR
STARTCHAR 3150
ENCODING 12624
SWIDTH 420 0
DWIDTH 7 0
BBX 5 10 2 1
BITMAP
90
98
98
98
90
F0
90
90
90
90
ENDCHAR
STARTCHAR 3151
ENCODING 12625
SWIDTH 420 0
DWIDTH 7 0
BBX 5 11 2 0
BITMAP
C0
C0
F8
C0
C0
C0
F8
78
C0
C0
40
ENDCHAR
STARTCHAR 3152
ENCODING 12626
SWIDTH 480 0
DWIDTH 8 0
BBX 5 9 2 2
BITMAP
88
C8
C8
F8
C8
F8
F8
C8
C8
ENDCHAR
STARTCHAR 3153
ENCODING 12627
SWIDTH 360 0
DWIDTH 6 0
BBX 4 9 1 1
BITMAP
10
10
10
10
F0
10
10
10
10
ENDCHAR
STARTCHAR 3154
ENCODING 12628
SWIDTH 480 0
DWIDTH 8 0
BBX 6 9 1 1
BITMAP
2C
2C
3C
3C
FC
34
3C
2C
24
ENDCHAR
STARTCHAR 3155
ENCODING 12629
SWIDTH 420 0
DWIDTH 7 0
BBX 4 10 2 1
BITMAP
10
30
30
F0
30
30
F0
30
30
30
ENDCHAR
STARTCHAR 3156
ENCODING 12630
SWIDTH 480 0
DWIDTH 8 0
BBX 6 10 2 1
BITMAP
28
28
2C
AC
2C
EC
EC
2C
2C
2C
ENDCHAR
STARTCHAR 3157
ENCODING 12631
SWIDTH 660 0
DWIDTH 11 0
BBX 10 4 1 3
BITMAP
0800
0C00
8C80
FFC0
ENDCHAR
STARTCHAR 3158
ENCODING 12632
SWIDTH 720 0
DWIDTH 12 0
BBX 12 10 1 0
BITMAP
0080
0080
00C0
00C0
00C0
00C0
10F0
7EC0
FCC0
00C0
ENDCHAR
STARTCHAR 3159
ENCODING 12633
SWIDTH 780 0
DWIDTH 13 0
BBX 12 10 1 1
BITMAP
0130
01B0
01B0
01B0
01B0
01E0
11A0
11A0
FFA0
0100
ENDCHAR
STARTCHAR 315A
ENCODING 12634
SWIDTH 720 0
DWIDTH 12 0
BBX 10 10 1 1
BITMAP
0080
0080
00C0
00C0
00C0
00C0
20C0
10C0
7EC0
FCC0
ENDCHAR
STARTCHAR 315B
ENCODING 12635
SWIDTH 660 0
DWIDTH 11 0
BBX 10 5 1 2
BITMAP
1400
1400
1600
FFC0
3C00
ENDCHAR
STARTCHAR 315C
ENCODING 12636
SWIDTH 660 0
DWIDTH 11 0
BBX 10 6 0 1
BITMAP
FFC0
3E00
0400
0400
0400
0400
ENDCHAR
STARTCHAR 315D
ENCODING 12637
SWIDTH 720 0
DWIDTH 12 0
BBX 10 11 1 0
BITMAP
0040
00C0
00C0
00C0
00C0
00C0
FEC0
10C0
13C0
10C0
1040
ENDCHAR
STARTCHAR 315E
ENCODING 12638
SWIDTH 840 0
DWIDTH 14 0
BBX 12 11 1 0
BITMAP
0090
00D0
00D0
00D0
00D0
00D0
FED0
FCD0
13D0
10D0
1090
ENDCHAR
STARTCHAR 315F
ENCODING 12639
SWIDTH 780 0
DWIDTH 13 0
BBX 11 11 1 0
BITMAP
0040
0060
0060
0060
0020
0020
FFA0
7C20
1820
1820
1020
ENDCHAR
STARTCHAR 3160
ENCODING 12640
SWIDTH 660 0
DWIDTH 11 0
BBX 10 7 1 0
BITMAP
FF80
FFC0
2200
2200
2200
2200
2000
ENDCHAR
STARTCHAR 3161
ENCODING 12641
SWIDTH 660 0
DWIDTH 11 0
BBX 9 2 1 4
BITMAP
8180
FF80
ENDCHAR
STARTCHAR 3162
ENCODING 12642
SWIDTH 660 0
DWIDTH 11 0
BBX 10 10 1 1
BITMAP
0080
0080
0080
0080
00C0
00C0
00C0
0EC0
FCC0
0080
ENDCHAR
STARTCHAR 3163
ENCODING 12643
SWIDTH 240 0
DWIDTH 4 0
BBX 2 9 2 1
BITMAP
80
C0
C0
C0
C0
C0
C0
C0
C0
ENDCHAR
STARTCHAR 3164
ENCODING 12644
SWIDTH 960 0
DWIDTH 16 0
BBX 0 0 0 0
BITMAP
ENDCHAR
STARTCHAR 3231
ENCODING 12849
SWIDTH 960 0
DWIDTH 16 0
BBX 15 14 0 -2
BITMAP
2004
4944
49C2
7DFA
7DFA
8B42
9FFA
9FFA
BAE2
A8D2
495A
4A4E
4844
2004
ENDCHAR
STARTCHAR 3239
ENCODING 12857
SWIDTH 960 0
DWIDTH 16 0
BBX 15 13 0 -1
BITMAP
2004
4804
45A2
4C92
988A
BFFA
A882
8882
8882
4842
484A
483A
6004
ENDCHAR
STARTCHAR 3251
ENCODING 12881
SWIDTH 960 0
DWIDTH 16 0
BBX 15 16 0 -2
BITMAP
07C0
1FF0
3838
3E0C
6F76
43B6
C332
C332
C232
C432
4C36
6F36
3F0C
3838
1FF0
07C0
ENDCHAR
STARTCHAR 3252
ENCODING 12882
SWIDTH 960 0
DWIDTH 16 0
BBX 15 16 0 -2
BITMAP
07C0
1FF0
3838
3E7C
7EF6
4316
C31A
C212
C632
C422
4846
5FFE
3FFC
3038
1FF0
07C0
ENDCHAR
STARTCHAR 3253
ENCODING 12883
SWIDTH 960 0
DWIDTH 16 0
BBX 15 16 0 -2
BITMAP
07C0
1FF0
3838
3EFC
7EF6
431E
C312
C272
C672
C41A
481E
5FFE
3FFC
3838
1FF0
07C0
ENDCHAR
STARTCHAR 3254
ENCODING 12884
SWIDTH 960 0
DWIDTH 16 0
BBX 15 16 0 -2
BITMAP
07C0
1FF0
3838
3E3C
7E36
4276
C272
C2F2
C6B2
C5FA
49FE
5F36
3F3C
3038
1FF0
07C0
ENDCHAR
STARTCHAR 3255
ENCODING 12885
SWIDTH 960 0
DWIDTH 16 0
BBX 15 16 0 -2
BITMAP
07C0
1FF0
3838
3EFC
7EF6
42C6
C2F2
C2F2
C61A
CC1A
481E
5FF6
3FEC
3838
1FF0
07C0
ENDCHAR
STARTCHAR 3256
ENCODING 12886
SWIDTH 960 0
DWIDTH 16 0
BBX 15 16 0 -2
BITMAP
07C0
1FF0
3838
3E3C
7E26
4266
C262
C2F2
C6FA
CC9A
489E
5FFE
3F7C
3838
1FF0
07C0
ENDCHAR
STARTCHAR 3257
ENCODING 12887
SWIDTH 960 0
DWIDTH 16 0
BBX 15 16 0 -2
BITMAP
07C0
1FF0
3818
3EFC
6EFE
4312
C332
C232
C632
C422
4866
7F66
3F4C
3838
1FF0
07C0
ENDCHAR
STARTCHAR 3258
ENCODING 12888
SWIDTH 960 0
DWIDTH 16 0
BBX 15 16 0 -2
BITMAP
07C0
1FF0
3838
3E7C
7EF6
429E
C29A
C6F2
C4F2
CC9A
489E
5EFE
3E7C
3838
1FF0
07C0
ENDCHAR
STARTCHAR 3259
ENCODING 12889
SWIDTH 960 0
DWIDTH 16 0
BBX 15 16 0 -2
BITMAP
07C0
1FF0
3838
3E7C
7EFE
429E
C29A
C2FA
C472
CC32
4826
5E66
3E6C
3038
1FF0
07C0
ENDCHAR
STARTCHAR 325A
ENCODING 12890
SWIDTH 960 0
DWIDTH 16 0
BBX 15 16 0 -2
BITMAP
07C0
1FF0
3838
3C7C
7E76
42DE
C2DA
CEDA
CEDA
C3DA
43DE
5E76
3E7C
3838
1FF0
07C0
ENDCHAR
STARTCHAR 327E
ENCODING 12926
SWIDTH 960 0
DWIDTH 16 0
BBX 15 16 0 -2
BITMAP
07C0
1FF0
3838
338C
67C6
4666
C662
C7C2
C382
DFFA
5FFE
6186
318C
39B8
1FF0
07C0
ENDCHAR
STARTCHAR 328A
ENCODING 12938
SWIDTH 960 0
DWIDTH 16 0
BBX 15 15 0 -2
BITMAP
07C0
1830
37E8
27E4
4422
47E2
87E2
87E2
87E2
4422
4422
2824
3868
1830
07C0
ENDCHAR
STARTCHAR 328B
ENCODING 12939
SWIDTH 960 0
DWIDTH 16 0
BBX 15 15 0 -2
BITMAP
07C0
1830
3088
2084
44A2
4C92
899A
9982
8142
4262
4C32
381C
3008
1830
07C0
ENDCHAR
STARTCHAR 328C
ENCODING 12940
SWIDTH 960 0
DWIDTH 16 0
BBX 15 15 0 -2
BITMAP
07C0
18B0
3088
2094
5EBA
5EE2
84C2
84C2
88A2
589A
638A
2104
3008
1830
07C0
ENDCHAR
STARTCHAR 328D
ENCODING 12941
SWIDTH 960 0
DWIDTH 16 0
BBX 15 15 0 -2
BITMAP
07C0
1830
3008
2184
4102
5FFA
8182
8342
8742
4D32
591A
2104
3108
1830
07C0
ENDCHAR
STARTCHAR 328E
ENCODING 12942
SWIDTH 960 0
DWIDTH 16 0
BBX 15 15 0 -2
BITMAP
07C0
1830
3008
2184
4282
4442
8FF2
9BDA
BFE2
4FE2
5FF2
3FF4
3008
1830
07C0
ENDCHAR
STARTCHAR 328F
ENCODING 12943
SWIDTH 960 0
DWIDTH 16 0
BBX 15 15 0 -2
BITMAP
07C0
1830
3108
2104
4102
4FF2
8FF2
8102
8102
4102
5FFA
3FFC
3008
1830
07C0
ENDCHAR
STARTCHAR 3290
ENCODING 12944
SWIDTH 960 0
DWIDTH 16 0
BBX 15 15 0 -2
BITMAP
07C0
1830
3FE8
2FE4
4822
4822
8822
8FE2
8FE2
4822
4FE2
2FE4
3828
1830
07C0
ENDCHAR
STARTCHAR 3294
ENCODING 12948
SWIDTH 960 0
DWIDTH 16 0
BBX 15 15 0 -2
BITMAP
07C0
1A30
3308
27E4
4C62
5442
8282
8302
87F2
4FF2
7412
27F4
3418
1830
07C0
ENDCHAR
STARTCHAR 329E
ENCODING 12958
SWIDTH 960 0
DWIDTH 16 0
BBX 15 15 0 -2
BITMAP
07C0
1830
3208
2FF4
4EF2
48D2
8ED2
8ED2
88D2
4FD2
4FF2
28C4
38C8
1830
07C0
ENDCHAR
STARTCHAR 32A5
ENCODING 12965
SWIDTH 960 0
DWIDTH 16 0
BBX 15 15 0 -2
BITMAP
07C0
19B0
3108
2104
5FFA
5FFA
910A
910A
9FFA
510A
4102
2104
3108
18B0
07C0
ENDCHAR
STARTCHAR 33CB
ENCODING 13259
SWIDTH 960 0
DWIDTH 16 0
BBX 14 13 1 -1
BITMAP
C3F0
C3F8
C31C
C30C
C318
FFF8
FFF0
C300
C300
C300
C300
C300
C300
ENDCHAR
STARTCHAR AC00
ENCODING 44032
SWIDTH 840 0
DWIDTH 14 0
BBX 14 12 1 1
BITMAP
0040
0060
0020
F820
F820
0820
0820
083C
0820
0820
0020
0020
ENDCHAR
STARTCHAR AC01
ENCODING 44033
SWIDTH 840 0
DWIDTH 14 0
BBX 13 15 1 -2
BITMAP
0060
E060
F860
1860
1878
1878
1860
1060
0000
0780
07C0
0040
0040
0040
0040
ENDCHAR
STARTCHAR AC02
ENCODING 44034
SWIDTH 960 0
DWIDTH 16 0
BBX 0 0 0 0
BITMAP
ENDCHAR
STARTCHAR AC03
ENCODING 44035
SWIDTH 960 0
DWIDTH 16 0
BBX 0 0 0 0
BITMAP
ENDCHAR
STARTCHAR AC04
ENCODING 44036
SWIDTH 840 0
DWIDTH 14 0
BBX 14 13 1 0
BITMAP
0020
0020
F820
1820
0820
083C
1820
0820
0000
0200
0200
03F0
03E0
ENDCHAR
STARTCHAR AC05
ENCODING 44037
SWIDTH 960 0
DWIDTH 16 0
BBX 0 0 0 0
BITMAP
ENDCHAR
STARTCHAR AC06
ENCODING 44038
SWIDTH 960 0
DWIDTH 16 0
BBX 0 0 0 0
BITMAP
ENDCHAR
STARTCHAR AC07
ENCODING 44039
SWIDTH 900 0
DWIDTH 15 0
BBX 14 14 1 -1
BITMAP
0030
F830
FC30
0C30
0C3C
0C30
0830
0000
03E0
07E0
0200
0200
03F0
03E0
ENDCHAR
STARTCHAR AC08
ENCODING 44040
SWIDTH 840 0
DWIDTH 14 0
BBX 14 16 1 -2
BITMAP
0020
F020
F820
1820
083C
0820
1820
1000
07C0
0060
0060
01C0
0780
0600
07E0
03E0
ENDCHAR
STARTCHAR AC09
ENCODING 44041
SWIDTH 900 0
DWIDTH 15 0
BBX 13 15 2 -1
BITMAP
0060
F060
F860
1860
1878
1870
1060
0040
1DE0
0660
0660
0C60
1860
1B40
0E00
ENDCHAR
STARTCHAR AC0A
ENCODING 44042
SWIDTH 900 0
DWIDTH 15 0
BBX 13 15 2 0
BITMAP
0040
0060
F060
F860
1860
1878
1860
1060
1C00
0DE0
05B0
1DB0
11F0
12E0
1E00
ENDCHAR
STARTCHAR AC0B
ENCODING 44043
SWIDTH 960 0
DWIDTH 16 0
BBX 0 0 0 0
BITMAP
ENDCHAR
STARTCHAR AC0C
ENCODING 44044
SWIDTH 960 0
DWIDTH 16 0
BBX 0 0 0 0
BITMAP
ENDCHAR
STARTCHAR AC0D
ENCODING 44045
SWIDTH 960 0
DWIDTH 16 0
BBX 0 0 0 0
BITMAP
ENDCHAR
STARTCHAR AC0E
ENCODING 44046
SWIDTH 960 0
DWIDTH 16 0
BBX 0 0 0 0
BITMAP
ENDCHAR
STARTCHAR AC0F
ENCODING 44047
SWIDTH 960 0
DWIDTH 16 0
BBX 0 0 0 0
BITMAP
ENDCHAR
STARTCHAR AC10
ENCODING 44048
SWIDTH 840 0
DWIDTH 14 0
BBX 13 14 1 -1
BITMAP
0040
0060
F060
1860
1878
1878
1860
1060
07C0
07C0
0460
0460
0660
07C0
ENDCHAR
STARTCHAR AC11
ENCODING 44049
SWIDTH 900 0
DWIDTH 15 0
BBX 14 15 1 -1
BITMAP
0020
0020
F830
1C30
0C30
0C3C
0830
0820
0620
0620
07E0
0660
0660
03E0
0180
ENDCHAR
STARTCHAR AC12
ENCODING 44050
SWIDTH 900 0
DWIDTH 15 0
BBX 14 13 1 0
BITMAP
0020
F830
F830
0C30
0C3C
0C30
0830
0000
0920
0960
0F70
0958
0FC8
ENDCHAR
STARTCHAR AC13
ENCODING 44051
SWIDTH 900 0
DWIDTH 15 0
BBX 14 13 1 0
BITMAP
0020
F830
F830
0C30
0C3C
0C30
0830
0080
0180
01C0
0360
0330
0230
ENDCHAR
STARTCHAR AC14
ENCODING 44052
SWIDTH 900 0
DWIDTH 15 0
BBX 14 14 1 0
BITMAP
0020
0020
F830
3C30
0C30
0C3C
0830
0820
0620
0660
0F60
0DF0
08D8
0888
ENDCHAR
STARTCHAR AC15
ENCODING 44053
SWIDTH 840 0
DWIDTH 14 0
BBX 13 14 1 -1
BITMAP
0060
0060
F060
3860
1860
1878
1860
1820
03C0
03C0
0640
06C0
03C0
0180
ENDCHAR
STARTCHAR AC16
ENCODING 44054
SWIDTH 900 0
DWIDTH 15 0
BBX 14 14 1 0
BITMAP
0020
0020
F830
1C30
0C38
0C3C
0830
0800
03C0
0040
00C0
01C0
03E0
0220
ENDCHAR
STARTCHAR AC17
ENCODING 44055
SWIDTH 900 0
DWIDTH 15 0
BBX 14 16 1 -1
BITMAP
0020
0020
F830
F830
0C30
0C3C
0830
0820
0180
0000
03E0
0040
00C0
01C0
0360
0220
ENDCHAR
STARTCHAR AC18
ENCODING 44056
SWIDTH 960 0
DWIDTH 16 0
BBX 0 0 0 0
BITMAP
ENDCHAR
STARTCHAR AC19
ENCODING 44057
SWIDTH 900 0
DWIDTH 15 0
BBX 14 15 1 -1
BITMAP
0020
0020
F830
3C30
0C30
0C3C
0830
0800
07F0
03E0
03E0
03E0
0200
03F0
01E0
ENDCHAR
STARTCHAR AC1A
ENCODING 44058
SWIDTH 900 0
DWIDTH 15 0
BBX 14 15 1 -1
BITMAP
0020
F030
F830
0C30
0C3C
0830
0820
0000
07F0
07F0
0360
0360
0360
07F8
07F8
ENDCHAR
STARTCHAR AC1B
ENCODING 44059
SWIDTH 900 0
DWIDTH 15 0
BBX 14 16 1 -2
BITMAP
0020
0020
F830
1C30
0C38
0C3C
0830
0980
01C0
0000
03F0
07F0
01C0
0160
01E0
01C0
ENDCHAR
STARTCHAR AC1C
ENCODING 44060
SWIDTH 840 0
DWIDTH 14 0
BBX 13 11 1 1
BITMAP
0088
0198
F198
F998
1998
19F8
19F8
1998
1198
0198
0090
ENDCHAR
STARTCHAR AC1D
ENCODING 44061
SWIDTH 900 0
DWIDTH 15 0
BBX 13 14 1 -1
BITMAP
0088
F8C8
1CC8
0CF8
0CF8
0CC8
08C8
0000
01E0
03F0
0030
0010
0030
0010
ENDCHAR
STARTCHAR AC1E
ENCODING 44062
SWIDTH 960 0
DWIDTH 16 0
BBX 0 0 0 0
BITMAP
ENDCHAR
STARTCHAR AC1F
ENCODING 44063
SWIDTH 960 0
DWIDTH 16 0
BBX 0 0 0 0
BITMAP
ENDCHAR
STARTCHAR AC20
ENCODING 44064
SWIDTH 900 0
DWIDTH 15 0
BBX 13 13 1 -1
BITMAP
0088
F888
F8C8
0CC8
0CF8
08C8
08C8
0088
0200
0200
0200
03F0
01E0
ENDCHAR
STARTCHAR AC21
ENCODING 44065
SWIDTH 960 0
DWIDTH 16 0
BBX 0 0 0 0
BITMAP
ENDCHAR
STARTCHAR AC22
ENCODING 44066
SWIDTH 960 0
DWIDTH 16 0
BBX 0 0 0 0
BITMAP
ENDCHAR
STARTCHAR AC23
ENCODING 44067
SWIDTH 960 0
DWIDTH 16 0
BBX 0 0 0 0
BITMAP
ENDCHAR
STARTCHAR AC24
ENCODING 44068
SWIDTH 900 0
DWIDTH 15 0
BBX 13 17 1 -2
BITMAP
0088
0088
F888
0CC8
0CF8
0CC8
0888
0890
0000
01E0
0030
0030
00E0
03C0
0300
03F0
01F0
ENDCHAR
STARTCHAR AC25
ENCODING 44069
SWIDTH 960 0
DWIDTH 16 0
BBX 0 0 0 0
BITMAP
ENDCHAR
STARTCHAR AC26
ENCODING 44070
SWIDTH 960 0
DWIDTH 16 0
BBX 0 0 0 0
BITMAP
ENDCHAR
STARTCHAR AC27
ENCODING 44071
SWIDTH 960 0
DWIDTH 16 0
BBX 0 0 0 0
BITMAP
ENDCHAR
STARTCHAR AC28
ENCODING 44072
SWIDTH 960 0
DWIDTH 16 0
BBX 0 0 0 0
BITMAP
ENDCHAR
STARTCHAR AC29
ENCODING 44073
SWIDTH 960 0
DWIDTH 16 0
BBX 0 0 0 0
BITMAP
ENDCHAR
STARTCHAR AC2A
ENCODING 44074
SWIDTH 960 0
DWIDTH 16 0
BBX 0 0 0 0
BITMAP
ENDCHAR
STARTCHAR AC2B
ENCODING 44075
SWIDTH 960 0
DWIDTH 16 0
BBX 0 0 0 0
BITMAP
ENDCHAR
STARTCHAR AC2C
ENCODING 44076
SWIDTH 900 0
DWIDTH 15 0
BBX 13 15 1 -1
BITMAP
0198
4198
F998
1998
19F8
1998
1998
0890
0100
03F0
0330
0330
0330
03F0
01C0
ENDCHAR
STARTCHAR AC2D
ENCODING 44077
SWIDTH 900 0
DWIDTH 15 0
BBX 13 15 1 -1
BITMAP
0100
F198
F998
1998
09F8
1998
1998
0090
0310
0310
03F0
0330
0330
03F0
01E0
ENDCHAR
STARTCHAR AC2E
ENCODING 44078
SWIDTH 960 0
DWIDTH 16 0
BBX 0 0 0 0
BITMAP
ENDCHAR
STARTCHAR AC2F
ENCODING 44079
SWIDTH 900 0
DWIDTH 15 0
BBX 13 14 1 -1
BITMAP
0198
F198
F998
09F8
09F8
0898
0898
0000
00C0
00C0
01E0
01F0
0330
0318
ENDCHAR
STARTCHAR AC30
ENCODING 44080
SWIDTH 900 0
DWIDTH 15 0
BBX 14 14 1 0
BITMAP
0088
F888
FC88
0CF8
0CF8
0C98
0898
0000
0630
0720
07F0
0DD8
0CC8
0084
ENDCHAR
STARTCHAR AC31
ENCODING 44081
SWIDTH 900 0
DWIDTH 15 0
BBX 13 14 1 0
BITMAP
0088
78C8
FCC8
0CF8
0CF8
0CC8
0CC8
0000
00E0
01E0
0130
0120
01E0
01C0
ENDCHAR
STARTCHAR AC32
ENCODING 44082
SWIDTH 960 0
DWIDTH 16 0
BBX 0 0 0 0
BITMAP
ENDCHAR
STARTCHAR AC33
ENCODING 44083
SWIDTH 960 0
DWIDTH 16 0
BBX 0 0 0 0
BITMAP
ENDCHAR
STARTCHAR AC34
ENCODING 44084
SWIDTH 960 0
DWIDTH 16 0
BBX 0 0 0 0
BITMAP
ENDCHAR
STARTCHAR AC35
ENCODING 44085
SWIDTH 960 0
DWIDTH 16 0
BBX 0 0 0 0
BITMAP
ENDCHAR
STARTCHAR AC36
ENCODING 44086
SWIDTH 960 0
DWIDTH 16 0
BBX 0 0 0 0
BITMAP
ENDCHAR
STARTCHAR AC37
ENCODING 44087
SWIDTH 960 0
DWIDTH 16 0
BBX 0 0 0 0
BITMAP
ENDCHAR
STARTCHAR AC38
ENCODING 44088
SWIDTH 960 0
DWIDTH 16 0
BBX 15 12 1 1
BITMAP
0030
0030
0030
F83E
FC30
0C30
0C30
0C3E
0C3E
0C30
0030
0030
ENDCHAR
STARTCHAR AC39
ENCODING 44089
SWIDTH 960 0
DWIDTH 16 0
BBX 14 15 2 -1
BITMAP
0020
0020
F030
F83C
1830
1830
183C
1830
0020
07C0
07C0
0060
0060
0040
0040
ENDCHAR
STARTCHAR AC3A
ENCODING 44090
SWIDTH 960 0
DWIDTH 16 0
BBX 0 0 0 0
BITMAP
ENDCHAR
STARTCHAR AC3B
ENCODING 44091
SWIDTH 960 0
DWIDTH 16 0
BBX 0 0 0 0
BITMAP
ENDCHAR
STARTCHAR AC3C
ENCODING 44092
SWIDTH 960 0
DWIDTH 16 0
BBX 15 13 2 1
BITMAP
0020
0020
F030
F83E
1830
1830
183C
1830
0030
0200
0300
03F0
01F0
ENDCHAR
STARTCHAR AC3D
ENCODING 44093
SWIDTH 960 0
DWIDTH 16 0
BBX 0 0 0 0
BITMAP
ENDCHAR
STARTCHAR AC3E
ENCODING 44094
SWIDTH 960 0
DWIDTH 16 0
BBX 0 0 0 0
BITMAP
ENDCHAR
STARTCHAR AC3F
ENCODING 44095
SWIDTH 960 0
DWIDTH 16 0
BBX 0 0 0 0
BITMAP
ENDCHAR
STARTCHAR AC40
ENCODING 44096
SWIDTH 960 0
DWIDTH 16 0
BBX 15 17 2 -2
BITMAP
0020
0020
F034
F83E
1830
1830
183C
1830
0020
07C0
0060
0060
01C0
0700
0600
07E0
03C0
ENDCHAR
STARTCHAR AC41
ENCODING 44097
SWIDTH 960 0
DWIDTH 16 0
BBX 0 0 0 0
BITMAP
ENDCHAR
STARTCHAR AC42
ENCODING 44098
SWIDTH 960 0
DWIDTH 16 0
BBX 0 0 0 0
BITMAP
ENDCHAR
STARTCHAR AC43
ENCODING 44099
SWIDTH 960 0
DWIDTH 16 0
BBX 0 0 0 0
BITMAP
ENDCHAR
STARTCHAR AC44
ENCODING 44100
SWIDTH 960 0
DWIDTH 16 0
BBX 0 0 0 0
BITMAP
ENDCHAR
STARTCHAR AC45
ENCODING 44101
SWIDTH 960 0
DWIDTH 16 0
BBX 0 0 0 0
BITMAP
ENDCHAR
STARTCHAR AC46
ENCODING 44102
SWIDTH 960 0
DWIDTH 16 0
BBX 0 0 0 0
BITMAP
ENDCHAR
STARTCHAR AC47
ENCODING 44103
SWIDTH 960 0
DWIDTH 16 0
BBX 0 0 0 0
BITMAP
ENDCHAR
STARTCHAR AC48
ENCODING 44104
SWIDTH 960 0
DWIDTH 16 0
BBX 0 0 0 0
BITMAP
ENDCHAR
STARTCHAR AC49
ENCODING 44105
SWIDTH 960 0
DWIDTH 16 0
BBX 0 0 0 0
BITMAP
ENDCHAR
STARTCHAR AC4A
ENCODING 44106
SWIDTH 960 0
DWIDTH 16 0
BBX 0 0 0 0
BITMAP
ENDCHAR
STARTCHAR AC4B
ENCODING 44107
SWIDTH 960 0
DWIDTH 16 0
BBX 15 15 2 -1
BITMAP
0020
0020
F030
F83E
1830
1830
183C
1830
1030
0080
0180
03C0
0360
0230
0200
ENDCHAR
STARTCHAR AC4C
ENCODING 44108
SWIDTH 960 0
DWIDTH 16 0
BBX 0 0 0 0
BITMAP
ENDCHAR
STARTCHAR AC4D
ENCODING 44109
SWIDTH 960 0
DWIDTH 16 0
BBX 15 14 2 0
BITMAP
0020
6030
F83C
183E
1830
183C
183C
1030
01C0
03C0
0260
0240
03C0
0380
ENDCHAR
STARTCHAR AC4E
ENCODING 44110
SWIDTH 960 0
DWIDTH 16 0
BBX 0 0 0 0
BITMAP
ENDCHAR
STARTCHAR AC4F
ENCODING 44111
SWIDTH 960 0
DWIDTH 16 0
BBX 0 0 0 0
BITMAP
ENDCHAR
STARTCHAR AC50
ENCODING 44112
SWIDTH 960 0
DWIDTH 16 0
BBX 0 0 0 0
BITMAP
ENDCHAR
STARTCHAR AC51
ENCODING 44113
SWIDTH 960 0
DWIDTH 16 0
BBX 0 0 0 0
BITMAP
ENDCHAR
STARTCHAR AC52
ENCODING 44114
SWIDTH 960 0
DWIDTH 16 0
BBX 0 0 0 0
BITMAP
ENDCHAR
STARTCHAR AC53
ENCODING 44115
SWIDTH 960 0
DWIDTH 16 0
BBX 0 0 0 0
BITMAP
ENDCHAR
STARTCHAR AC54
ENCODING 44116
SWIDTH 960 0
DWIDTH 16 0
BBX 14 11 2 1
BITMAP
0088
008C
F888
F8B8
0888
0C88
08F8
08F8
0888
0088
0080
ENDCHAR
STARTCHAR AC55
ENCODING 44117
SWIDTH 960 0
DWIDTH 16 0
BBX 0 0 0 0
BITMAP
ENDCHAR
STARTCHAR AC56
ENCODING 44118
SWIDTH 960 0
DWIDTH 16 0
BBX 0 0 0 0
BITMAP
ENDCHAR
STARTCHAR AC57
ENCODING 44119
SWIDTH 960 0
DWIDTH 16 0
BBX 0 0 0 0
BITMAP
ENDCHAR
STARTCHAR AC58
ENCODING 44120
SWIDTH 960 0
DWIDTH 16 0
BBX 13 14 2 0
BITMAP
0008
0188
F988
19F8
1998
1998
19F8
1998
0198
0100
0400
0600
07F0
03E0
ENDCHAR
STARTCHAR AC59
ENCODING 44121
SWIDTH 960 0
DWIDTH 16 0
BBX 0 0 0 0
BITMAP
ENDCHAR
STARTCHAR AC5A
ENCODING 44122
SWIDTH 960 0
DWIDTH 16 0
BBX 0 0 0 0
BITMAP
ENDCHAR
STARTCHAR AC5B
ENCODING 44123
SWIDTH 960 0
DWIDTH 16 0
BBX 0 0 0 0
BITMAP
ENDCHAR
STARTCHAR AC5C
ENCODING 44124
SWIDTH 960 0
DWIDTH 16 0
BBX 13 17 2 -2
BITMAP
0188
E188
F9F8
1988
1998
19F8
1998
1188
0000
03E0
0030
0020
00E0
0380
0300
03F0
01E0
ENDCHAR
STARTCHAR AC5D
ENCODING 44125
SWIDTH 960 0
DWIDTH 16 0
BBX 0 0 0 0
BITMAP
ENDCHAR
STARTCHAR AC5E
ENCODING 44126
SWIDTH 960 0
DWIDTH 16 0
BBX 0 0 0 0
BITMAP
ENDCHAR
STARTCHAR AC5F
ENCODING 44127
SWIDTH 960 0
DWIDTH 16 0
BBX 0 0 0 0
BITMAP
ENDCHAR
STARTCHAR AC60
ENCODING 44128
SWIDTH 960 0
DWIDTH 16 0
BBX 0 0 0 0
BITMAP
ENDCHAR
STARTCHAR AC61
ENCODING 44129
SWIDTH 960 0
DWIDTH 16 0
BBX 0 0 0 0
BITMAP
ENDCHAR
STARTCHAR AC62
ENCODING 44130
SWIDTH 960 0
DWIDTH 16 0
BBX 0 0 0 0
BITMAP
ENDCHAR
STARTCHAR AC63
ENCODING 44131
SWIDTH 960 0
DWIDTH 16 0
BBX 0 0 0 0
BITMAP
ENDCHAR
STARTCHAR AC64
ENCODING 44132
SWIDTH 960 0
DWIDTH 16 0
BBX 0 0 0 0
BITMAP
ENDCHAR
STARTCHAR AC65
ENCODING 44133
SWIDTH 960 0
DWIDTH 16 0
BBX 0 0 0 0
BITMAP
ENDCHAR
STARTCHAR AC66
ENCODING 44134
SWIDTH 960 0
DWIDTH 16 0
BBX 0 0 0 0
BITMAP
ENDCHAR
STARTCHAR AC67
ENCODING 44135
SWIDTH 960 0
DWIDTH 16 0
BBX 0 0 0 0
BITMAP
ENDCHAR
STARTCHAR AC68
ENCODING 44136
SWIDTH 960 0
DWIDTH 16 0
BBX 0 0 0 0
BITMAP
ENDCHAR
STARTCHAR AC69
ENCODING 44137
SWIDTH 960 0
DWIDTH 16 0
BBX 0 0 0 0
BITMAP
ENDCHAR
STARTCHAR AC6A
ENCODING 44138
SWIDTH 960 0
DWIDTH 16 0
BBX 0 0 0 0
BITMAP
ENDCHAR
STARTCHAR AC6B
ENCODING 44139
SWIDTH 960 0
DWIDTH 16 0
BBX 0 0 0 0
BITMAP
ENDCHAR
STARTCHAR AC6C
ENCODING 44140
SWIDTH 960 0
DWIDTH 16 0
BBX 0 0 0 0
BITMAP
ENDCHAR
STARTCHAR AC6D
ENCODING 44141
SWIDTH 960 0
DWIDTH 16 0
BBX 0 0 0 0
BITMAP
ENDCHAR
STARTCHAR AC6E
ENCODING 44142
SWIDTH 960 0
DWIDTH 16 0
BBX 0 0 0 0
BITMAP
ENDCHAR
STARTCHAR AC6F
ENCODING 44143
SWIDTH 960 0
DWIDTH 16 0
BBX 0 0 0 0
BITMAP
ENDCHAR
STARTCHAR AC70
ENCODING 44144
SWIDTH 780 0
DWIDTH 13 0
BBX 11 11 1 1
BITMAP
0020
0020
F020
F820
19E0
19E0
1820
1820
1020
0020
0020
ENDCHAR
STARTCHAR AC71
ENCODING 44145
SWIDTH 840 0
DWIDTH 14 0
BBX 13 15 1 -1
BITMAP
0010
0010
F018
F838
18F8
1818
1818
1810
0000
07C0
07E0
0060
0060
0060
0040
ENDCHAR
STARTCHAR AC72
ENCODING 44146
SWIDTH 960 0
DWIDTH 16 0
BBX 0 0 0 0
BITMAP
ENDCHAR
STARTCHAR AC73
ENCODING 44147
SWIDTH 960 0
DWIDTH 16 0
BBX 0 0 0 0
BITMAP
ENDCHAR
STARTCHAR AC74
ENCODING 44148
SWIDTH 840 0
DWIDTH 14 0
BBX 13 14 0 -1
BITMAP
0010
0018
2018
FC18
0CF8
0CF8
0C18
0C18
0818
0000
0300
0300
03F0
01F0
ENDCHAR
STARTCHAR AC75
ENCODING 44149
SWIDTH 960 0
DWIDTH 16 0
BBX 0 0 0 0
BITMAP
ENDCHAR
STARTCHAR AC76
ENCODING 44150
SWIDTH 960 0
DWIDTH 16 0
BBX 0 0 0 0
BITMAP
ENDCHAR
STARTCHAR AC77
ENCODING 44151
SWIDTH 900 0
DWIDTH 15 0
BBX 13 15 1 -1
BITMAP
0010
0018
7818
FC18
0C78
0CF8
0C18
0C18
0008
03F0
03F0
0300
0300
03F8
01F0
ENDCHAR
STARTCHAR AC78
ENCODING 44152
SWIDTH 900 0
DWIDTH 15 0
BBX 13 17 1 -2
BITMAP
0018
0018
0018
F818
0CF8
0C78
0C18
0C18
0810
01F0
0030
0030
00E0
01C0
0300
01F0
00F8
ENDCHAR
STARTCHAR AC79
ENCODING 44153
SWIDTH 960 0
DWIDTH 16 0
BBX 0 0 0 0
BITMAP
ENDCHAR
STARTCHAR AC7A
ENCODING 44154
SWIDTH 900 0
DWIDTH 15 0
BBX 12 15 2 -1
BITMAP
0030
0030
F030
F830
18F0
19F0
1830
0830
1C10
06F0
06B0
0C90
1890
1BF0
0E00
ENDCHAR
STARTCHAR AC7B
ENCODING 44155
SWIDTH 960 0
DWIDTH 16 0
BBX 0 0 0 0
BITMAP
ENDCHAR
STARTCHAR AC7C
ENCODING 44156
SWIDTH 960 0
DWIDTH 16 0
BBX 0 0 0 0
BITMAP
ENDCHAR
STARTCHAR AC7D
ENCODING 44157
SWIDTH 960 0
DWIDTH 16 0
BBX 0 0 0 0
BITMAP
ENDCHAR
STARTCHAR AC7E
ENCODING 44158
SWIDTH 960 0
DWIDTH 16 0
BBX 0 0 0 0
BITMAP
ENDCHAR
STARTCHAR AC7F
ENCODING 44159
SWIDTH 960 0
DWIDTH 16 0
BBX 0 0 0 0
BITMAP
ENDCHAR
STARTCHAR AC80
ENCODING 44160
SWIDTH 900 0
DWIDTH 15 0
BBX 13 15 1 -1
BITMAP
0010
0018
7818
FC18
0C78
0CF8
0C18
0C18
0008
01F0
01F0
0110
0310
0310
01F0
ENDCHAR
STARTCHAR AC81
ENCODING 44161
SWIDTH 840 0
DWIDTH 14 0
BBX 12 15 1 -2
BITMAP
0020
0030
F030
F830
18F0
19F0
1830
1830
0000
0420
0460
05E0
0460
0660
07C0
ENDCHAR
STARTCHAR AC82
ENCODING 44162
SWIDTH 960 0
DWIDTH 16 0
BBX 0 0 0 0
BITMAP
ENDCHAR
STARTCHAR AC83
ENCODING 44163
SWIDTH 840 0
DWIDTH 14 0
BBX 12 13 1 -1
BITMAP
0030
F030
3830
1830
19F0
1830
1830
01B0
0180
03C0
03C0
0660
0620
ENDCHAR
STARTCHAR AC84
ENCODING 44164
SWIDTH 900 0
DWIDTH 15 0
BBX 14 15 1 -1
BITMAP
0010
0018
7818
FC18
0C78
0CF8
0C18
0C18
0008
0230
0730
07F0
0DF8
0CCC
0080
ENDCHAR
STARTCHAR AC85
ENCODING 44165
SWIDTH 900 0
DWIDTH 15 0
BBX 13 15 1 -1
BITMAP
0010
0018
7818
FC18
0C78
0CF8
0C18
0C18
0008
00E0
01E0
0130
0120
01E0
00C0
ENDCHAR
STARTCHAR AC86
ENCODING 44166
SWIDTH 900 0
DWIDTH 15 0
BBX 13 15 1 -1
BITMAP
0010
0018
7818
FC18
0C78
0CF8
0C18
0C18
0010
01F0
01B0
0020
0060
00F0
0190
ENDCHAR
STARTCHAR AC87
ENCODING 44167
SWIDTH 960 0
DWIDTH 16 0
BBX 0 0 0 0
BITMAP
ENDCHAR
STARTCHAR AC88
ENCODING 44168
SWIDTH 960 0
DWIDTH 16 0
BBX 0 0 0 0
BITMAP
ENDCHAR
STARTCHAR AC89
ENCODING 44169
SWIDTH 900 0
DWIDTH 15 0
BBX 13 17 1 -2
BITMAP
0018
0018
0018
F818
0CF8
0C78
0C18
0C18
0808
03F0
03F0
0300
03F0
03F0
0300
03F0
01F0
ENDCHAR
STARTCHAR AC8A
ENCODING 44170
SWIDTH 900 0
DWIDTH 15 0
BBX 13 16 1 -1
BITMAP
0018
0018
0018
F818
0CF8
0C78
0C18
0C18
0808
07F0
07F0
0120
0320
0120
07F8
07F8
ENDCHAR
STARTCHAR AC8B
ENCODING 44171
SWIDTH 900 0
DWIDTH 15 0
BBX 13 17 1 -2
BITMAP
0018
0018
0018
F818
0CF8
0C78
0C18
0C18
0888
00C0
0040
01F8
03F0
00E0
01A0
01E0
00C0
ENDCHAR
STARTCHAR AC8C
ENCODING 44172
SWIDTH 840 0
DWIDTH 14 0
BBX 12 11 1 1
BITMAP
0090
00D0
F0D0
F0D0
1BD0
1BD0
10D0
10D0
10D0
0090
0010
ENDCHAR
STARTCHAR AC8D
ENCODING 44173
SWIDTH 960 0
DWIDTH 16 0
BBX 0 0 0 0
BITMAP
ENDCHAR
STARTCHAR AC8E
ENCODING 44174
SWIDTH 960 0
DWIDTH 16 0
BBX 0 0 0 0
BITMAP
ENDCHAR
STARTCHAR AC8F
ENCODING 44175
SWIDTH 960 0
DWIDTH 16 0
BBX 0 0 0 0
BITMAP
ENDCHAR
STARTCHAR AC90
ENCODING 44176
SWIDTH 960 0
DWIDTH 16 0
BBX 14 14 1 -1
BITMAP
006C
406C
F86C
0C6C
0DEC
0DEC
0C6C
082C
004C
0100
0180
0180
01F8
00F8
ENDCHAR
STARTCHAR AC91
ENCODING 44177
SWIDTH 960 0
DWIDTH 16 0
BBX 0 0 0 0
BITMAP
ENDCHAR
STARTCHAR AC92
ENCODING 44178
SWIDTH 960 0
DWIDTH 16 0
BBX 0 0 0 0
BITMAP
ENDCHAR
STARTCHAR AC93
ENCODING 44179
SWIDTH 960 0
DWIDTH 16 0
BBX 0 0 0 0
BITMAP
ENDCHAR
STARTCHAR AC94
ENCODING 44180
SWIDTH 960 0
DWIDTH 16 0
BBX 14 16 1 -1
BITMAP
006C
786C
FC6C
0C6C
0DEC
0C6C
086C
002C
01F0
0030
0030
00E0
01C0
0300
01F0
00F8
ENDCHAR
STARTCHAR AC95
ENCODING 44181
SWIDTH 960 0
DWIDTH 16 0
BBX 0 0 0 0
BITMAP
ENDCHAR
STARTCHAR AC96
ENCODING 44182
SWIDTH 960 0
DWIDTH 16 0
BBX 0 0 0 0
BITMAP
ENDCHAR
STARTCHAR AC97
ENCODING 44183
SWIDTH 960 0
DWIDTH 16 0
BBX 0 0 0 0
BITMAP
ENDCHAR
STARTCHAR AC98
ENCODING 44184
SWIDTH 960 0
DWIDTH 16 0
BBX 0 0 0 0
BITMAP
ENDCHAR
STARTCHAR AC99
ENCODING 44185
SWIDTH 960 0
DWIDTH 16 0
BBX 0 0 0 0
BITMAP
ENDCHAR
STARTCHAR AC9A
ENCODING 44186
SWIDTH 960 0
DWIDTH 16 0
BBX 0 0 0 0
BITMAP
ENDCHAR
STARTCHAR AC9B
ENCODING 44187
SWIDTH 960 0
DWIDTH 16 0
BBX 0 0 0 0
BITMAP
ENDCHAR
STARTCHAR AC9C
ENCODING 44188
SWIDTH 960 0
DWIDTH 16 0
BBX 14 16 1 -2
BITMAP
0008
006C
F86C
FC6C
0C6C
0DEC
0C6C
086C
002C
0088
01F8
0198
0188
0188
01F8
00F0
ENDCHAR
STARTCHAR AC9D
ENCODING 44189
SWIDTH 960 0
DWIDTH 16 0
BBX 14 16 1 -2
BITMAP
002C
006C
F86C
3C6C
0CEC
0DEC
0C6C
086C
0028
0118
0118
0178
0118
0198
01F0
0060
ENDCHAR
STARTCHAR AC9E
ENCODING 44190
SWIDTH 960 0
DWIDTH 16 0
BBX 0 0 0 0
BITMAP
ENDCHAR
STARTCHAR AC9F
ENCODING 44191
SWIDTH 960 0
DWIDTH 16 0
BBX 14 15 1 -1
BITMAP
002C
006C
F86C
3C6C
0CEC
0DEC
0C6C
082C
0088
00C0
01C0
01E0
0330
0330
0200
ENDCHAR
STARTCHAR ACA0
ENCODING 44192
SWIDTH 900 0
DWIDTH 15 0
BBX 13 14 1 0
BITMAP
0058
00D8
F0D8
F8D8
19D8
1BD8
18D8
1058
0410
0620
0760
0F70
0DD8
08C8
ENDCHAR
STARTCHAR ACA1
ENCODING 44193
SWIDTH 900 0
DWIDTH 15 0
BBX 14 15 1 -1
BITMAP
002C
006C
F86C
3C6C
0DEC
0DEC
0C6C
082C
0000
00E0
01B0
0130
0130
01E0
00C0
ENDCHAR
STARTCHAR ACA2
ENCODING 44194
SWIDTH 960 0
DWIDTH 16 0
BBX 0 0 0 0
BITMAP
ENDCHAR
STARTCHAR ACA3
ENCODING 44195
SWIDTH 960 0
DWIDTH 16 0
BBX 0 0 0 0
BITMAP
ENDCHAR
STARTCHAR ACA4
ENCODING 44196
SWIDTH 960 0
DWIDTH 16 0
BBX 0 0 0 0
BITMAP
ENDCHAR
STARTCHAR ACA5
ENCODING 44197
SWIDTH 960 0
DWIDTH 16 0
BBX 0 0 0 0
BITMAP
ENDCHAR
STARTCHAR ACA6
ENCODING 44198
SWIDTH 960 0
DWIDTH 16 0
BBX 0 0 0 0
BITMAP
ENDCHAR
STARTCHAR ACA7
ENCODING 44199
SWIDTH 960 0
DWIDTH 16 0
BBX 0 0 0 0
BITMAP
ENDCHAR
STARTCHAR ACA8
ENCODING 44200
SWIDTH 840 0
DWIDTH 14 0
BBX 13 11 1 2
BITMAP
0018
0018
0018
F8F8
1C18
0C18
0C18
09F8
08F8
0818
0018
ENDCHAR
STARTCHAR ACA9
ENCODING 44201
SWIDTH 840 0
DWIDTH 14 0
BBX 12 15 1 -1
BITMAP
0010
0030
F1F0
F9F0
1830
1830
19F0
19F0
0030
07D0
07E0
0060
0060
0060
0020
ENDCHAR
STARTCHAR ACAA
ENCODING 44202
SWIDTH 960 0
DWIDTH 16 0
BBX 13 16 2 -1
BITMAP
0018
0018
0018
F0F8
F858
1818
18F8
18F8
1818
0018
0000
0770
0790
0198
0190
0190
ENDCHAR
STARTCHAR ACAB
ENCODING 44203
SWIDTH 960 0
DWIDTH 16 0
BBX 0 0 0 0
BITMAP
ENDCHAR
STARTCHAR ACAC
ENCODING 44204
SWIDTH 840 0
DWIDTH 14 0
BBX 12 13 1 0
BITMAP
0030
0030
F1F0
39B0
1830
1830
13F0
1030
0030
0400
0400
07E0
07C0
ENDCHAR
STARTCHAR ACAD
ENCODING 44205
SWIDTH 960 0
DWIDTH 16 0
BBX 0 0 0 0
BITMAP
ENDCHAR
STARTCHAR ACAE
ENCODING 44206
SWIDTH 960 0
DWIDTH 16 0
BBX 0 0 0 0
BITMAP
ENDCHAR
STARTCHAR ACAF
ENCODING 44207
SWIDTH 960 0
DWIDTH 16 0
BBX 13 15 2 -1
BITMAP
0018
0018
F0F8
F8F8
1818
1818
18F8
18F8
0018
07F8
03E0
0200
0200
03F0
03E0
ENDCHAR
STARTCHAR ACB0
ENCODING 44208
SWIDTH 840 0
DWIDTH 14 0
BBX 12 16 1 -2
BITMAP
0030
F0F0
F9F0
1830
1830
1870
19F0
01B0
03F0
0060
0060
01C0
0300
0600
03E0
01E0
ENDCHAR
STARTCHAR ACB1
ENCODING 44209
SWIDTH 960 0
DWIDTH 16 0
BBX 0 0 0 0
BITMAP
ENDCHAR
STARTCHAR ACB2
ENCODING 44210
SWIDTH 960 0
DWIDTH 16 0
BBX 0 0 0 0
BITMAP
ENDCHAR
STARTCHAR ACB3
ENCODING 44211
SWIDTH 960 0
DWIDTH 16 0
BBX 0 0 0 0
BITMAP
ENDCHAR
STARTCHAR ACB4
ENCODING 44212
SWIDTH 960 0
DWIDTH 16 0
BBX 0 0 0 0
BITMAP
ENDCHAR
STARTCHAR ACB5
ENCODING 44213
SWIDTH 960 0
DWIDTH 16 0
BBX 0 0 0 0
BITMAP
ENDCHAR
STARTCHAR ACB6
ENCODING 44214
SWIDTH 960 0
DWIDTH 16 0
BBX 0 0 0 0
BITMAP
ENDCHAR
STARTCHAR ACB7
ENCODING 44215
SWIDTH 960 0
DWIDTH 16 0
BBX 0 0 0 0
BITMAP
ENDCHAR
STARTCHAR ACB8
ENCODING 44216
SWIDTH 900 0
DWIDTH 15 0
BBX 14 15 1 -1
BITMAP
0008
0008
F86C
7C6C
0C0C
0C0C
0CF8
08F8
0008
01F8
01F0
0310
0310
0330
01F0
ENDCHAR
STARTCHAR ACB9
ENCODING 44217
SWIDTH 900 0
DWIDTH 15 0
BBX 14 16 1 -2
BITMAP
000C
000C
F87C
7C6C
0C0C
0CFC
0CFC
080C
0008
0118
0118
0178
0118
0198
01F0
0040
ENDCHAR
STARTCHAR ACBA
ENCODING 44218
SWIDTH 960 0
DWIDTH 16 0
BBX 0 0 0 0
BITMAP
ENDCHAR
STARTCHAR ACBB
ENCODING 44219
SWIDTH 900 0
DWIDTH 15 0
BBX 14 16 1 -1
BITMAP
0008
0008
000C
F86C
7C6C
0C0C
0CF8
0CF8
0808
0008
0040
00C0
01E0
01B0
0338
0318
ENDCHAR
STARTCHAR ACBC
ENCODING 44220
SWIDTH 900 0
DWIDTH 15 0
BBX 14 15 1 -1
BITMAP
0008
0008
F868
7CE8
0C08
0C08
08F8
08F8
0008
0328
0730
0730
05F8
0CCC
0CC4
ENDCHAR
STARTCHAR ACBD
ENCODING 44221
SWIDTH 960 0
DWIDTH 16 0
BBX 13 15 2 -1
BITMAP
0018
0018
E018
F8F8
1818
1818
18F8
18F8
1018
00D8
01E0
0320
0320
0360
01C0
ENDCHAR
STARTCHAR ACBE
ENCODING 44222
SWIDTH 960 0
DWIDTH 16 0
BBX 0 0 0 0
BITMAP
ENDCHAR
STARTCHAR ACBF
ENCODING 44223
SWIDTH 960 0
DWIDTH 16 0
BBX 0 0 0 0
BITMAP
ENDCHAR
STARTCHAR ACC0
ENCODING 44224
SWIDTH 960 0
DWIDTH 16 0
BBX 0 0 0 0
BITMAP
ENDCHAR
STARTCHAR ACC1
ENCODING 44225
SWIDTH 960 0
DWIDTH 16 0
BBX 13 16 2 -2
BITMAP
0018
0018
F0F8
F8F8
1818
1818
18F8
18F8
07F8
07F8
0600
07E0
07E0
0600
03E0
03E0
ENDCHAR
STARTCHAR ACC2
ENCODING 44226
SWIDTH 960 0
DWIDTH 16 0
BBX 0 0 0 0
BITMAP
ENDCHAR
STARTCHAR ACC3
ENCODING 44227
SWIDTH 960 0
DWIDTH 16 0
BBX 0 0 0 0
BITMAP
ENDCHAR
STARTCHAR ACC4
ENCODING 44228
SWIDTH 960 0
DWIDTH 16 0
BBX 14 12 1 1
BITMAP
002C
006C
006C
F9EC
FA6C
186C
0864
0BE4
0BE4
086C
006C
0024
ENDCHAR
STARTCHAR ACC5
ENCODING 44229
SWIDTH 960 0
DWIDTH 16 0
BBX 0 0 0 0
BITMAP
ENDCHAR
STARTCHAR ACC6
ENCODING 44230
SWIDTH 960 0
DWIDTH 16 0
BBX 0 0 0 0
BITMAP
ENDCHAR
STARTCHAR ACC7
ENCODING 44231
SWIDTH 960 0
DWIDTH 16 0
BBX 0 0 0 0
BITMAP
ENDCHAR
STARTCHAR ACC8
ENCODING 44232
SWIDTH 960 0
DWIDTH 16 0
BBX 14 14 1 1
BITMAP
0024
0034
F9B4
7CF4
0C34
0C34
0DF4
0834
0024
0104
0100
0180
01F8
00F8
ENDCHAR
STARTCHAR ACC9
ENCODING 44233
SWIDTH 960 0
DWIDTH 16 0
BBX 0 0 0 0
BITMAP
ENDCHAR
STARTCHAR ACCA
ENCODING 44234
SWIDTH 960 0
DWIDTH 16 0
BBX 0 0 0 0
BITMAP
ENDCHAR
STARTCHAR ACCB
ENCODING 44235
SWIDTH 960 0
DWIDTH 16 0
BBX 0 0 0 0
BITMAP
ENDCHAR
STARTCHAR ACCC
ENCODING 44236
SWIDTH 960 0
DWIDTH 16 0
BBX 14 18 1 -3
BITMAP
0024
0034
F8B4
FDF4
0C34
0C34
0DF4
0834
0034
0000
01F0
0030
0030
00F0
01C0
0100
01F8
00F0
ENDCHAR
STARTCHAR ACCD
ENCODING 44237
SWIDTH 960 0
DWIDTH 16 0
BBX 0 0 0 0
BITMAP
ENDCHAR
STARTCHAR ACCE
ENCODING 44238
SWIDTH 960 0
DWIDTH 16 0
BBX 0 0 0 0
BITMAP
ENDCHAR
STARTCHAR ACCF
ENCODING 44239
SWIDTH 960 0
DWIDTH 16 0
BBX 0 0 0 0
BITMAP
ENDCHAR
STARTCHAR ACD0
ENCODING 44240
SWIDTH 960 0
DWIDTH 16 0
BBX 0 0 0 0
BITMAP
ENDCHAR
STARTCHAR ACD1
ENCODING 44241
SWIDTH 960 0
DWIDTH 16 0
BBX 0 0 0 0
BITMAP
ENDCHAR
STARTCHAR ACD2
ENCODING 44242
SWIDTH 960 0
DWIDTH 16 0
BBX 0 0 0 0
BITMAP
ENDCHAR
STARTCHAR ACD3
ENCODING 44243
SWIDTH 960 0
DWIDTH 16 0
BBX 0 0 0 0
BITMAP
ENDCHAR
STARTCHAR ACD4
ENCODING 44244
SWIDTH 960 0
DWIDTH 16 0
BBX 0 0 0 0
BITMAP
ENDCHAR
STARTCHAR ACD5
ENCODING 44245
SWIDTH 960 0
DWIDTH 16 0
BBX 15 17 1 -3
BITMAP
0024
0034
7036
FDF6
0C36
0C36
0DF6
0C36
0836
0004
0188
0188
01F8
0198
0198
00F0
0060
ENDCHAR
STARTCHAR ACD6
ENCODING 44246
SWIDTH 960 0
DWIDTH 16 0
BBX 0 0 0 0
BITMAP
ENDCHAR
STARTCHAR ACD7
ENCODING 44247
SWIDTH 960 0
DWIDTH 16 0
BBX 15 16 1 -1
BITMAP
0004
0034
0036
7036
FDF6
0C36
0C76
0DF6
0C36
0834
0060
0060
00E0
00B0
0198
0108
ENDCHAR
STARTCHAR ACD8
ENCODING 44248
SWIDTH 960 0
DWIDTH 16 0
BBX 0 0 0 0
BITMAP
ENDCHAR
STARTCHAR ACD9
ENCODING 44249
SWIDTH 960 0
DWIDTH 16 0
BBX 0 0 0 0
BITMAP
ENDCHAR
STARTCHAR ACDA
ENCODING 44250
SWIDTH 960 0
DWIDTH 16 0
BBX 0 0 0 0
BITMAP
ENDCHAR
STARTCHAR ACDB
ENCODING 44251
SWIDTH 960 0
DWIDTH 16 0
BBX 0 0 0 0
BITMAP
ENDCHAR
STARTCHAR ACDC
ENCODING 44252
SWIDTH 960 0
DWIDTH 16 0
BBX 0 0 0 0
BITMAP
ENDCHAR
STARTCHAR ACDD
ENCODING 44253
SWIDTH 960 0
DWIDTH 16 0
BBX 0 0 0 0
BITMAP
ENDCHAR
STARTCHAR ACDE
ENCODING 44254
SWIDTH 960 0
DWIDTH 16 0
BBX 0 0 0 0
BITMAP
ENDCHAR
STARTCHAR ACDF
ENCODING 44255
SWIDTH 960 0
DWIDTH 16 0
BBX 0 0 0 0
BITMAP
ENDCHAR
STARTCHAR ACE0
ENCODING 44256
SWIDTH 660 0
DWIDTH 11 0
BBX 11 10 1 2
BITMAP
3F00
1F00
0180
0180
0100
0900
0800
0800
0800
FFE0
ENDCHAR
STARTCHAR ACE1
ENCODING 44257
SWIDTH 780 0
DWIDTH 13 0
BBX 10 16 2 -2
BITMAP
1E00
3F00
0300
0F00
0D00
0C00
FFC0
FFC0
0000
0000
3E00
3F00
0300
0300
0300
0200
ENDCHAR
STARTCHAR ACE2
ENCODING 44258
SWIDTH 960 0
DWIDTH 16 0
BBX 0 0 0 0
BITMAP
ENDCHAR
STARTCHAR ACE3
ENCODING 44259
SWIDTH 960 0
DWIDTH 16 0
BBX 0 0 0 0
BITMAP
ENDCHAR
STARTCHAR ACE4
ENCODING 44260
SWIDTH 720 0
DWIDTH 12 0
BBX 11 14 1 0
BITMAP
1F00
1F80
0180
0180
0580
0400
0400
FFE0
7FE0
0000
1800
1800
1F80
0FC0
ENDCHAR
STARTCHAR ACE5
ENCODING 44261
SWIDTH 960 0
DWIDTH 16 0
BBX 0 0 0 0
BITMAP
ENDCHAR
STARTCHAR ACE6
ENCODING 44262
SWIDTH 960 0
DWIDTH 16 0
BBX 0 0 0 0
BITMAP
ENDCHAR
STARTCHAR ACE7
ENCODING 44263
SWIDTH 720 0
DWIDTH 12 0
BBX 11 16 1 -2
BITMAP
1F00
1F80
0180
0580
0500
0400
FFE0
FFE0
0000
0000
1F80
1F00
1000
1000
1F80
0F00
ENDCHAR
STARTCHAR ACE8
ENCODING 44264
SWIDTH 720 0
DWIDTH 12 0
BBX 11 18 1 -3
BITMAP
1F00
1F80
0180
0180
0500
0400
0C00
FFE0
FFC0
0000
1F00
0300
0300
0E00
1C00
3000
1F00
1F00
ENDCHAR
STARTCHAR ACE9
ENCODING 44265
SWIDTH 960 0
DWIDTH 16 0
BBX 0 0 0 0
BITMAP
ENDCHAR
STARTCHAR ACEA
ENCODING 44266
SWIDTH 780 0
DWIDTH 13 0
BBX 11 16 2 -2
BITMAP
3F00
0300
0100
0D00
0C00
0C00
FFE0
FFC0
0000
7000
1BC0
1BC0
3240
6240
6FC0
3800
ENDCHAR
STARTCHAR ACEB
ENCODING 44267
SWIDTH 960 0
DWIDTH 16 0
BBX 0 0 0 0
BITMAP
ENDCHAR
STARTCHAR ACEC
ENCODING 44268
SWIDTH 720 0
DWIDTH 12 0
BBX 10 16 2 -2
BITMAP
3F00
0300
0300
0100
0800
0C00
0C00
FFC0
FFC0
7000
3100
1300
7380
46C0
6E40
7800
ENDCHAR
STARTCHAR ACED
ENCODING 44269
SWIDTH 960 0
DWIDTH 16 0
BBX 0 0 0 0
BITMAP
ENDCHAR
STARTCHAR ACEE
ENCODING 44270
SWIDTH 960 0
DWIDTH 16 0
BBX 0 0 0 0
BITMAP
ENDCHAR
STARTCHAR ACEF
ENCODING 44271
SWIDTH 720 0
DWIDTH 12 0
BBX 11 16 1 -3
BITMAP
1F00
0180
0180
0180
0400
0400
0C00
FFE0
7FC0
3180
7880
0BE0
3F80
21C0
6340
3DC0
ENDCHAR
STARTCHAR ACF0
ENCODING 44272
SWIDTH 660 0
DWIDTH 11 0
BBX 11 16 1 -2
BITMAP
1F00
1F00
0180
0500
0D00
0C00
FFE0
FFC0
0000
0000
1F00
1B80
1180
1180
1F80
1F00
ENDCHAR
STARTCHAR ACF1
ENCODING 44273
SWIDTH 720 0
DWIDTH 12 0
BBX 11 15 1 -1
BITMAP
1F00
1F80
0180
0180
0500
0400
0400
FFE0
FFE0
1180
1180
1780
1180
1980
1F00
ENDCHAR
STARTCHAR ACF2
ENCODING 44274
SWIDTH 960 0
DWIDTH 16 0
BBX 0 0 0 0
BITMAP
ENDCHAR
STARTCHAR ACF3
ENCODING 44275
SWIDTH 720 0
DWIDTH 12 0
BBX 10 16 2 -2
BITMAP
3E00
3F00
0300
0300
0900
0C00
0C00
FFC0
FFC0
0000
0C00
0C00
1E00
1F00
3300
3180
ENDCHAR
STARTCHAR ACF4
ENCODING 44276
SWIDTH 960 0
DWIDTH 16 0
BBX 0 0 0 0
BITMAP
ENDCHAR
STARTCHAR ACF5
ENCODING 44277
SWIDTH 660 0
DWIDTH 11 0
BBX 11 16 1 -2
BITMAP
1F00
1F80
0180
0100
0500
0C00
0C00
FFE0
7FC0
0000
0E00
1F00
1B00
1B00
1F00
0E00
ENDCHAR
STARTCHAR ACF6
ENCODING 44278
SWIDTH 720 0
DWIDTH 12 0
BBX 10 16 2 -2
BITMAP
3E00
3F00
0300
0300
0900
0C00
0C00
FFC0
FF80
0000
1E00
3E00
0600
0E00
1E00
3300
ENDCHAR
STARTCHAR ACF7
ENCODING 44279
SWIDTH 960 0
DWIDTH 16 0
BBX 0 0 0 0
BITMAP
ENDCHAR
STARTCHAR ACF8
ENCODING 44280
SWIDTH 960 0
DWIDTH 16 0
BBX 0 0 0 0
BITMAP
ENDCHAR
STARTCHAR ACF9
ENCODING 44281
SWIDTH 960 0
DWIDTH 16 0
BBX 0 0 0 0
BITMAP
ENDCHAR
STARTCHAR ACFA
ENCODING 44282
SWIDTH 960 0
DWIDTH 16 0
BBX 0 0 0 0
BITMAP
ENDCHAR
STARTCHAR ACFB
ENCODING 44283
SWIDTH 960 0
DWIDTH 16 0
BBX 0 0 0 0
BITMAP
ENDCHAR
STARTCHAR ACFC
ENCODING 44284
SWIDTH 840 0
DWIDTH 14 0
BBX 13 12 1 1
BITMAP
0040
0040
7C40
7C40
0660
0660
1460
1078
1070
FF60
F860
0060
ENDCHAR
STARTCHAR ACFD
ENCODING 44285
SWIDTH 900 0
DWIDTH 15 0
BBX 14 15 1 -1
BITMAP
0060
3860
7C20
0620
0420
0420
103C
123C
FF20
3020
03E0
07E0
0020
0020
0020
ENDCHAR
STARTCHAR ACFE
ENCODING 44286
SWIDTH 960 0
DWIDTH 16 0
BBX 0 0 0 0
BITMAP
ENDCHAR
STARTCHAR ACFF
ENCODING 44287
SWIDTH 960 0
DWIDTH 16 0
BBX 0 0 0 0
BITMAP
ENDCHAR
STARTCHAR AD00
ENCODING 44288
SWIDTH 840 0
DWIDTH 14 0
BBX 14 14 1 -1
BITMAP
0020
7C20
3E20
0620
0630
1430
183C
1F3C
FE20
0000
0200
0200
03F0
03E0
ENDCHAR
STARTCHAR AD01
ENCODING 44289
SWIDTH 960 0
DWIDTH 16 0
BBX 0 0 0 0
BITMAP
ENDCHAR
STARTCHAR AD02
ENCODING 44290
SWIDTH 960 0
DWIDTH 16 0
BBX 0 0 0 0
BITMAP
ENDCHAR
STARTCHAR AD03
ENCODING 44291
SWIDTH 960 0
DWIDTH 16 0
BBX 0 0 0 0
BITMAP
ENDCHAR
STARTCHAR AD04
ENCODING 44292
SWIDTH 900 0
DWIDTH 15 0
BBX 14 18 2 -3
BITMAP
0060
0060
7C60
0C60
0C60
0C60
3878
307C
FE60
F860
0780
00C0
00C0
0380
0700
0C00
0FC0
07C0
ENDCHAR
STARTCHAR AD05
ENCODING 44293
SWIDTH 960 0
DWIDTH 16 0
BBX 0 0 0 0
BITMAP
ENDCHAR
STARTCHAR AD06
ENCODING 44294
SWIDTH 900 0
DWIDTH 15 0
BBX 14 17 1 -3
BITMAP
0020
3C20
7E20
0620
0630
1430
103C
1B3C
FE30
0020
1C00
06F0
0690
0E90
18F0
19F0
0F00
ENDCHAR
STARTCHAR AD07
ENCODING 44295
SWIDTH 960 0
DWIDTH 16 0
BBX 0 0 0 0
BITMAP
ENDCHAR
STARTCHAR AD08
ENCODING 44296
SWIDTH 960 0
DWIDTH 16 0
BBX 0 0 0 0
BITMAP
ENDCHAR
STARTCHAR AD09
ENCODING 44297
SWIDTH 960 0
DWIDTH 16 0
BBX 0 0 0 0
BITMAP
ENDCHAR
STARTCHAR AD0A
ENCODING 44298
SWIDTH 960 0
DWIDTH 16 0
BBX 0 0 0 0
BITMAP
ENDCHAR
STARTCHAR AD0B
ENCODING 44299
SWIDTH 960 0
DWIDTH 16 0
BBX 0 0 0 0
BITMAP
ENDCHAR
STARTCHAR AD0C
ENCODING 44300
SWIDTH 900 0
DWIDTH 15 0
BBX 14 16 1 -2
BITMAP
0020
1820
7C20
0620
0630
0630
103C
193C
FE30
0020
03E0
0260
0620
0620
07E0
03E0
ENDCHAR
STARTCHAR AD0D
ENCODING 44301
SWIDTH 900 0
DWIDTH 15 0
BBX 14 17 1 -2
BITMAP
0020
0020
3C20
7E20
0630
0630
143C
103C
1B30
FE20
0420
0620
0620
07E0
0660
0660
03C0
ENDCHAR
STARTCHAR AD0E
ENCODING 44302
SWIDTH 960 0
DWIDTH 16 0
BBX 0 0 0 0
BITMAP
ENDCHAR
STARTCHAR AD0F
ENCODING 44303
SWIDTH 900 0
DWIDTH 15 0
BBX 14 15 1 -1
BITMAP
0020
1820
7C20
0620
0630
0630
103C
193C
FE20
0080
0180
03C0
0360
0270
0630
ENDCHAR
STARTCHAR AD10
ENCODING 44304
SWIDTH 960 0
DWIDTH 16 0
BBX 0 0 0 0
BITMAP
ENDCHAR
STARTCHAR AD11
ENCODING 44305
SWIDTH 900 0
DWIDTH 15 0
BBX 14 16 1 -2
BITMAP
0020
1820
7C20
0620
0630
0630
103C
193C
FE20
0000
01C0
0360
0360
0260
03C0
0180
ENDCHAR
STARTCHAR AD12
ENCODING 44306
SWIDTH 960 0
DWIDTH 16 0
BBX 0 0 0 0
BITMAP
ENDCHAR
STARTCHAR AD13
ENCODING 44307
SWIDTH 960 0
DWIDTH 16 0
BBX 0 0 0 0
BITMAP
ENDCHAR
STARTCHAR AD14
ENCODING 44308
SWIDTH 960 0
DWIDTH 16 0
BBX 0 0 0 0
BITMAP
ENDCHAR
STARTCHAR AD15
ENCODING 44309
SWIDTH 960 0
DWIDTH 16 0
BBX 0 0 0 0
BITMAP
ENDCHAR
STARTCHAR AD16
ENCODING 44310
SWIDTH 960 0
DWIDTH 16 0
BBX 0 0 0 0
BITMAP
ENDCHAR
STARTCHAR AD17
ENCODING 44311
SWIDTH 960 0
DWIDTH 16 0
BBX 0 0 0 0
BITMAP
ENDCHAR
STARTCHAR AD18
ENCODING 44312
SWIDTH 960 0
DWIDTH 16 0
BBX 14 10 1 1
BITMAP
0044
7C44
4E44
0644
064C
167C
184C
1B4C
FF4C
204C
ENDCHAR
STARTCHAR AD19
ENCODING 44313
SWIDTH 960 0
DWIDTH 16 0
BBX 0 0 0 0
BITMAP
ENDCHAR
STARTCHAR AD1A
ENCODING 44314
SWIDTH 960 0
DWIDTH 16 0
BBX 0 0 0 0
BITMAP
ENDCHAR
STARTCHAR AD1B
ENCODING 44315
SWIDTH 960 0
DWIDTH 16 0
BBX 0 0 0 0
BITMAP
ENDCHAR
STARTCHAR AD1C
ENCODING 44316
SWIDTH 900 0
DWIDTH 15 0
BBX 13 13 1 0
BITMAP
00C8
7CC8
06C8
06C8
04F8
10C8
10C8
FFC8
7800
0300
0300
03F0
01F0
ENDCHAR
STARTCHAR AD1D
ENCODING 44317
SWIDTH 960 0
DWIDTH 16 0
BBX 0 0 0 0
BITMAP
ENDCHAR
STARTCHAR AD1E
ENCODING 44318
SWIDTH 900 0
DWIDTH 15 0
BBX 14 17 0 -4
BITMAP
7C6C
7E6C
036C
037C
337C
326C
306C
FF6C
FF6C
18FC
18FC
1800
1838
187C
1F4C
0F7C
0038
ENDCHAR
STARTCHAR AD1F
ENCODING 44319
SWIDTH 960 0
DWIDTH 16 0
BBX 0 0 0 0
BITMAP
ENDCHAR
STARTCHAR AD20
ENCODING 44320
SWIDTH 900 0
DWIDTH 15 0
BBX 13 17 1 -3
BITMAP
7CC8
7EC8
06C8
06C8
14F8
10C8
1FC8
FEC8
0000
03E0
0060
0060
00E0
0380
0300
03F0
01E0
ENDCHAR
STARTCHAR AD21
ENCODING 44321
SWIDTH 960 0
DWIDTH 16 0
BBX 0 0 0 0
BITMAP
ENDCHAR
STARTCHAR AD22
ENCODING 44322
SWIDTH 960 0
DWIDTH 16 0
BBX 0 0 0 0
BITMAP
ENDCHAR
STARTCHAR AD23
ENCODING 44323
SWIDTH 960 0
DWIDTH 16 0
BBX 0 0 0 0
BITMAP
ENDCHAR
STARTCHAR AD24
ENCODING 44324
SWIDTH 960 0
DWIDTH 16 0
BBX 0 0 0 0
BITMAP
ENDCHAR
STARTCHAR AD25
ENCODING 44325
SWIDTH 960 0
DWIDTH 16 0
BBX 0 0 0 0
BITMAP
ENDCHAR
STARTCHAR AD26
ENCODING 44326
SWIDTH 960 0
DWIDTH 16 0
BBX 0 0 0 0
BITMAP
ENDCHAR
STARTCHAR AD27
ENCODING 44327
SWIDTH 960 0
DWIDTH 16 0
BBX 0 0 0 0
BITMAP
ENDCHAR
STARTCHAR AD28
ENCODING 44328
SWIDTH 960 0
DWIDTH 16 0
BBX 0 0 0 0
BITMAP
ENDCHAR
STARTCHAR AD29
ENCODING 44329
SWIDTH 900 0
DWIDTH 15 0
BBX 13 16 1 -2
BITMAP
00C8
7CC8
0EC8
06C8
06F8
14C8
10C8
7FC8
FC00
0318
0318
03F8
0310
0110
01F0
00E0
ENDCHAR
STARTCHAR AD2A
ENCODING 44330
SWIDTH 960 0
DWIDTH 16 0
BBX 0 0 0 0
BITMAP
ENDCHAR
STARTCHAR AD2B
ENCODING 44331
SWIDTH 960 0
DWIDTH 16 0
BBX 0 0 0 0
BITMAP
ENDCHAR
STARTCHAR AD2C
ENCODING 44332
SWIDTH 900 0
DWIDTH 15 0
BBX 14 15 1 -1
BITMAP
00C8
7CC8
06C8
06C8
04F8
10C8
10C8
FFC8
7848
0320
0330
07B0
05F8
0C4C
04C4
ENDCHAR
STARTCHAR AD2D
ENCODING 44333
SWIDTH 900 0
DWIDTH 15 0
BBX 12 15 2 -1
BITMAP
0190
F990
1D90
0D90
0DF0
3990
3190
FE90
F800
01C0
03E0
0360
0260
03C0
01C0
ENDCHAR
STARTCHAR AD2E
ENCODING 44334
SWIDTH 960 0
DWIDTH 16 0
BBX 0 0 0 0
BITMAP
ENDCHAR
STARTCHAR AD2F
ENCODING 44335
SWIDTH 960 0
DWIDTH 16 0
BBX 0 0 0 0
BITMAP
ENDCHAR
STARTCHAR AD30
ENCODING 44336
SWIDTH 960 0
DWIDTH 16 0
BBX 0 0 0 0
BITMAP
ENDCHAR
STARTCHAR AD31
ENCODING 44337
SWIDTH 960 0
DWIDTH 16 0
BBX 0 0 0 0
BITMAP
ENDCHAR
STARTCHAR AD32
ENCODING 44338
SWIDTH 960 0
DWIDTH 16 0
BBX 0 0 0 0
BITMAP
ENDCHAR
STARTCHAR AD33
ENCODING 44339
SWIDTH 960 0
DWIDTH 16 0
BBX 0 0 0 0
BITMAP
ENDCHAR
STARTCHAR AD34
ENCODING 44340
SWIDTH 840 0
DWIDTH 14 0
BBX 12 11 1 1
BITMAP
0020
3C20
7E30
0630
0630
1630
1830
1830
FF30
FE30
0030
ENDCHAR
STARTCHAR AD35
ENCODING 44341
SWIDTH 840 0
DWIDTH 14 0
BBX 12 15 1 -1
BITMAP
0020
3830
7C30
0630
0430
1430
1030
1230
FF30
0000
03E0
0460
0020
0020
0020
ENDCHAR
STARTCHAR AD36
ENCODING 44342
SWIDTH 960 0
DWIDTH 16 0
BBX 0 0 0 0
BITMAP
ENDCHAR
STARTCHAR AD37
ENCODING 44343
SWIDTH 960 0
DWIDTH 16 0
BBX 0 0 0 0
BITMAP
ENDCHAR
STARTCHAR AD38
ENCODING 44344
SWIDTH 840 0
DWIDTH 14 0
BBX 11 13 2 1
BITMAP
3020
FC20
0C20
0C20
0C20
3020
3220
FE20
2020
0400
0600
07E0
03E0
ENDCHAR
STARTCHAR AD39
ENCODING 44345
SWIDTH 960 0
DWIDTH 16 0
BBX 0 0 0 0
BITMAP
ENDCHAR
STARTCHAR AD3A
ENCODING 44346
SWIDTH 960 0
DWIDTH 16 0
BBX 0 0 0 0
BITMAP
ENDCHAR
STARTCHAR AD3B
ENCODING 44347
SWIDTH 960 0
DWIDTH 16 0
BBX 0 0 0 0
BITMAP
ENDCHAR
STARTCHAR AD3C
ENCODING 44348
SWIDTH 840 0
DWIDTH 14 0
BBX 11 17 2 -3
BITMAP
2020
FC20
0C20
0C20
0C20
3020
3220
FE20
6020
07C0
00C0
00C0
01C0
0700
0400
07E0
03C0
ENDCHAR
STARTCHAR AD3D
ENCODING 44349
SWIDTH 960 0
DWIDTH 16 0
BBX 0 0 0 0
BITMAP
ENDCHAR
STARTCHAR AD3E
ENCODING 44350
SWIDTH 960 0
DWIDTH 16 0
BBX 0 0 0 0
BITMAP
ENDCHAR
STARTCHAR AD3F
ENCODING 44351
SWIDTH 960 0
DWIDTH 16 0
BBX 0 0 0 0
BITMAP
ENDCHAR
STARTCHAR AD40
ENCODING 44352
SWIDTH 960 0
DWIDTH 16 0
BBX 0 0 0 0
BITMAP
ENDCHAR
STARTCHAR AD41
ENCODING 44353
SWIDTH 960 0
DWIDTH 16 0
BBX 0 0 0 0
BITMAP
ENDCHAR
STARTCHAR AD42
ENCODING 44354
SWIDTH 960 0
DWIDTH 16 0
BBX 0 0 0 0
BITMAP
ENDCHAR
STARTCHAR AD43
ENCODING 44355
SWIDTH 960 0
DWIDTH 16 0
BBX 0 0 0 0
BITMAP
ENDCHAR
STARTCHAR AD44
ENCODING 44356
SWIDTH 840 0
DWIDTH 14 0
BBX 12 16 1 -2
BITMAP
0020
3830
7C30
0630
0630
1430
1030
1330
FE30
0200
03E0
0330
0330
0330
03F0
01C0
ENDCHAR
STARTCHAR AD45
ENCODING 44357
SWIDTH 840 0
DWIDTH 14 0
BBX 12 16 1 -2
BITMAP
0030
7C30
3E30
0630
0630
1430
1030
7F30
FC10
0220
0230
0230
03F0
0230
0360
01E0
ENDCHAR
STARTCHAR AD46
ENCODING 44358
SWIDTH 960 0
DWIDTH 16 0
BBX 0 0 0 0
BITMAP
ENDCHAR
STARTCHAR AD47
ENCODING 44359
SWIDTH 840 0
DWIDTH 14 0
BBX 11 14 2 0
BITMAP
3020
FC20
0C20
0C20
0C20
3020
3220
FE20
2180
0380
0380
06C0
0660
0420
ENDCHAR
STARTCHAR AD48
ENCODING 44360
SWIDTH 960 0
DWIDTH 16 0
BBX 0 0 0 0
BITMAP
ENDCHAR
STARTCHAR AD49
ENCODING 44361
SWIDTH 840 0
DWIDTH 14 0
BBX 12 15 1 -1
BITMAP
1830
7C30
0630
0630
0630
1030
1930
FE30
2080
01C0
0360
0360
0360
03C0
0180
ENDCHAR
STARTCHAR AD4A
ENCODING 44362
SWIDTH 960 0
DWIDTH 16 0
BBX 0 0 0 0
BITMAP
ENDCHAR
STARTCHAR AD4B
ENCODING 44363
SWIDTH 960 0
DWIDTH 16 0
BBX 0 0 0 0
BITMAP
ENDCHAR
STARTCHAR AD4C
ENCODING 44364
SWIDTH 960 0
DWIDTH 16 0
BBX 0 0 0 0
BITMAP
ENDCHAR
STARTCHAR AD4D
ENCODING 44365
SWIDTH 960 0
DWIDTH 16 0
BBX 0 0 0 0
BITMAP
ENDCHAR
STARTCHAR AD4E
ENCODING 44366
SWIDTH 960 0
DWIDTH 16 0
BBX 0 0 0 0
BITMAP
ENDCHAR
STARTCHAR AD4F
ENCODING 44367
SWIDTH 960 0
DWIDTH 16 0
BBX 0 0 0 0
BITMAP
ENDCHAR
STARTCHAR AD50
ENCODING 44368
SWIDTH 660 0
DWIDTH 11 0
BBX 11 10 1 2
BITMAP
1E00
3F00
0180
0180
0100
0000
1200
1200
82C0
FFE0
ENDCHAR
STARTCHAR AD51
ENCODING 44369
SWIDTH 960 0
DWIDTH 16 0
BBX 0 0 0 0
BITMAP
ENDCHAR
STARTCHAR AD52
ENCODING 44370
SWIDTH 960 0
DWIDTH 16 0
BBX 0 0 0 0
BITMAP
ENDCHAR
STARTCHAR AD53
ENCODING 44371
SWIDTH 960 0
DWIDTH 16 0
BBX 0 0 0 0
BITMAP
ENDCHAR
STARTCHAR AD54
ENCODING 44372
SWIDTH 720 0
DWIDTH 12 0
BBX 11 14 1 -1
BITMAP
1F00
1F80
0080
0080
0080
1B00
1B00
7FE0
FFE0
1000
1000
1800
1F80
0F80
ENDCHAR
STARTCHAR AD55
ENCODING 44373
SWIDTH 960 0
DWIDTH 16 0
BBX 0 0 0 0
BITMAP
ENDCHAR
STARTCHAR AD56
ENCODING 44374
SWIDTH 960 0
DWIDTH 16 0
BBX 0 0 0 0
BITMAP
ENDCHAR
STARTCHAR AD57
ENCODING 44375
SWIDTH 960 0
DWIDTH 16 0
BBX 0 0 0 0
BITMAP
ENDCHAR
STARTCHAR AD58
ENCODING 44376
SWIDTH 720 0
DWIDTH 12 0
BBX 11 18 2 -4
BITMAP
3F00
1F00
0180
0100
0100
1200
1200
C7C0
FFE0
0000
3E00
0300
0300
0E00
3800
3000
3F00
1E00
ENDCHAR
STARTCHAR AD59
ENCODING 44377
SWIDTH 960 0
DWIDTH 16 0
BBX 0 0 0 0
BITMAP
ENDCHAR
STARTCHAR AD5A
ENCODING 44378
SWIDTH 960 0
DWIDTH 16 0
BBX 0 0 0 0
BITMAP
ENDCHAR
STARTCHAR AD5B
ENCODING 44379
SWIDTH 960 0
DWIDTH 16 0
BBX 0 0 0 0
BITMAP
ENDCHAR
STARTCHAR AD5C
ENCODING 44380
SWIDTH 960 0
DWIDTH 16 0
BBX 0 0 0 0
BITMAP
ENDCHAR
STARTCHAR AD5D
ENCODING 44381
SWIDTH 960 0
DWIDTH 16 0
BBX 0 0 0 0
BITMAP
ENDCHAR
STARTCHAR AD5E
ENCODING 44382
SWIDTH 960 0
DWIDTH 16 0
BBX 0 0 0 0
BITMAP
ENDCHAR
STARTCHAR AD5F
ENCODING 44383
SWIDTH 960 0
DWIDTH 16 0
BBX 0 0 0 0
BITMAP
ENDCHAR
STARTCHAR AD60
ENCODING 44384
SWIDTH 960 0
DWIDTH 16 0
BBX 0 0 0 0
BITMAP
ENDCHAR
STARTCHAR AD61
ENCODING 44385
SWIDTH 720 0
DWIDTH 12 0
BBX 11 17 1 -3
BITMAP
1F00
1F80
0080
0080
0080
0900
1B00
43E0
FFE0
0000
1880
1880
1F80
1980
1980
0F00
0400
ENDCHAR
STARTCHAR AD62
ENCODING 44386
SWIDTH 960 0
DWIDTH 16 0
BBX 0 0 0 0
BITMAP
ENDCHAR
STARTCHAR AD63
ENCODING 44387
SWIDTH 720 0
DWIDTH 12 0
BBX 11 16 1 -2
BITMAP
1F00
1F80
0180
0180
0080
1200
1B00
1340
FFE0
0800
0600
0C00
0E00
1B00
1980
1080
ENDCHAR
STARTCHAR AD64
ENCODING 44388
SWIDTH 960 0
DWIDTH 16 0
BBX 0 0 0 0
BITMAP
ENDCHAR
STARTCHAR AD65
ENCODING 44389
SWIDTH 900 0
DWIDTH 15 0
BBX 14 16 1 -3
BITMAP
3FE0
3FE0
0030
0030
1B30
1B30
1B00
FFFC
FFFC
0F80
1FC0
18E0
1060
18E0
1FC0
0F80
ENDCHAR
STARTCHAR AD66
ENCODING 44390
SWIDTH 960 0
DWIDTH 16 0
BBX 0 0 0 0
BITMAP
ENDCHAR
STARTCHAR AD67
ENCODING 44391
SWIDTH 960 0
DWIDTH 16 0
BBX 0 0 0 0
BITMAP
ENDCHAR
STARTCHAR AD68
ENCODING 44392
SWIDTH 960 0
DWIDTH 16 0
BBX 0 0 0 0
BITMAP
ENDCHAR
STARTCHAR AD69
ENCODING 44393
SWIDTH 960 0
DWIDTH 16 0
BBX 0 0 0 0
BITMAP
ENDCHAR
STARTCHAR AD6A
ENCODING 44394
SWIDTH 960 0
DWIDTH 16 0
BBX 0 0 0 0
BITMAP
ENDCHAR
STARTCHAR AD6B
ENCODING 44395
SWIDTH 960 0
DWIDTH 16 0
BBX 0 0 0 0
BITMAP
ENDCHAR
STARTCHAR AD6C
ENCODING 44396
SWIDTH 720 0
DWIDTH 12 0
BBX 11 14 1 -1
BITMAP
3F00
1F00
0180
0100
0100
0000
0000
FFE0
7F80
0400
0400
0400
0400
0400
ENDCHAR
STARTCHAR AD6D
ENCODING 44397
SWIDTH 720 0
DWIDTH 12 0
BBX 11 16 1 -3
BITMAP
1F00
1F80
0180
0180
0080
FFE0
7FE0
0600
0600
0000
1F00
1F80
0180
0180
0180
0100
ENDCHAR
STARTCHAR AD6E
ENCODING 44398
SWIDTH 960 0
DWIDTH 16 0
BBX 0 0 0 0
BITMAP
ENDCHAR
STARTCHAR AD6F
ENCODING 44399
SWIDTH 960 0
DWIDTH 16 0
BBX 0 0 0 0
BITMAP
ENDCHAR
STARTCHAR AD70
ENCODING 44400
SWIDTH 720 0
DWIDTH 12 0
BBX 11 14 1 -1
BITMAP
1F00
3F80
0180
0180
0100
0000
FFE0
0600
0600
0400
1000
1800
1F80
0F80
ENDCHAR
STARTCHAR AD71
ENCODING 44401
SWIDTH 960 0
DWIDTH 16 0
BBX 0 0 0 0
BITMAP
ENDCHAR
STARTCHAR AD72
ENCODING 44402
SWIDTH 960 0
DWIDTH 16 0
BBX 0 0 0 0
BITMAP
ENDCHAR
STARTCHAR AD73
ENCODING 44403
SWIDTH 720 0
DWIDTH 12 0
BBX 12 16 1 -2
BITMAP
1F80
1F80
0180
0080
0080
0000
FFF0
7FC0
0600
0200
1F80
1F80
1800
1800
1FC0
0F80
ENDCHAR
STARTCHAR AD74
ENCODING 44404
SWIDTH 720 0
DWIDTH 12 0
BBX 11 18 1 -3
BITMAP
1F00
1F80
0180
0180
0100
0000
FFE0
7F80
0600
0400
1F00
0300
0300
0700
1C00
1000
1F80
0F00
ENDCHAR
STARTCHAR AD75
ENCODING 44405
SWIDTH 780 0
DWIDTH 13 0
BBX 11 17 2 -3
BITMAP
3F00
1F00
0100
0100
0100
0000
FFE0
0400
0400
7000
1F80
0980
3880
6080
6480
3C80
1000
ENDCHAR
STARTCHAR AD76
ENCODING 44406
SWIDTH 780 0
DWIDTH 13 0
BBX 11 16 2 -2
BITMAP
3F00
1F00
0100
0100
0100
0000
FFE0
7F00
0400
7400
1BC0
1A40
3A40
6240
6FC0
3C00
ENDCHAR
STARTCHAR AD77
ENCODING 44407
SWIDTH 960 0
DWIDTH 16 0
BBX 0 0 0 0
BITMAP
ENDCHAR
STARTCHAR AD78
ENCODING 44408
SWIDTH 960 0
DWIDTH 16 0
BBX 0 0 0 0
BITMAP
ENDCHAR
STARTCHAR AD79
ENCODING 44409
SWIDTH 960 0
DWIDTH 16 0
BBX 0 0 0 0
BITMAP
ENDCHAR
STARTCHAR AD7A
ENCODING 44410
SWIDTH 960 0
DWIDTH 16 0
BBX 0 0 0 0
BITMAP
ENDCHAR
STARTCHAR AD7B
ENCODING 44411
SWIDTH 780 0
DWIDTH 13 0
BBX 11 16 2 -2
BITMAP
3F00
1F00
0100
0100
0100
0000
FFE0
7F00
0500
3580
78E0
1FE0
3980
6340
67C0
3D80
ENDCHAR
STARTCHAR AD7C
ENCODING 44412
SWIDTH 720 0
DWIDTH 12 0
BBX 12 16 1 -2
BITMAP
1F80
1F80
0180
0080
0080
0000
FFF0
3F80
0600
0200
0F80
1F80
1880
1880
1F80
0F80
ENDCHAR
STARTCHAR AD7D
ENCODING 44413
SWIDTH 780 0
DWIDTH 13 0
BBX 11 16 2 -2
BITMAP
1C00
3F00
1F00
0180
0100
0100
FFE0
FFC0
0400
0400
1180
1180
3F80
1100
1100
1F00
ENDCHAR
STARTCHAR AD7E
ENCODING 44414
SWIDTH 960 0
DWIDTH 16 0
BBX 0 0 0 0
BITMAP
ENDCHAR
STARTCHAR AD7F
ENCODING 44415
SWIDTH 720 0
DWIDTH 12 0
BBX 12 16 1 -2
BITMAP
1F80
0F80
0180
0080
0080
0000
FFF0
0600
0600
0000
0600
0600
0F00
0D80
19C0
18C0
ENDCHAR
STARTCHAR AD80
ENCODING 44416
SWIDTH 960 0
DWIDTH 16 0
BBX 0 0 0 0
BITMAP
ENDCHAR
STARTCHAR AD81
ENCODING 44417
SWIDTH 780 0
DWIDTH 13 0
BBX 11 16 2 -2
BITMAP
3F00
1F00
0100
0100
0100
0000
FFE0
0400
0400
0000
0E00
1E00
1300
1200
1E00
1C00
ENDCHAR
STARTCHAR AD82
ENCODING 44418
SWIDTH 780 0
DWIDTH 13 0
BBX 11 16 2 -2
BITMAP
3F00
1F00
0100
0100
0100
81C0
FFE0
0400
0400
0000
1F00
0300
0600
0E00
1F00
1100
ENDCHAR
STARTCHAR AD83
ENCODING 44419
SWIDTH 960 0
DWIDTH 16 0
BBX 0 0 0 0
BITMAP
ENDCHAR
STARTCHAR AD84
ENCODING 44420
SWIDTH 960 0
DWIDTH 16 0
BBX 0 0 0 0
BITMAP
ENDCHAR
STARTCHAR AD85
ENCODING 44421
SWIDTH 960 0
DWIDTH 16 0
BBX 0 0 0 0
BITMAP
ENDCHAR
STARTCHAR AD86
ENCODING 44422
SWIDTH 960 0
DWIDTH 16 0
BBX 0 0 0 0
BITMAP
ENDCHAR
STARTCHAR AD87
ENCODING 44423
SWIDTH 960 0
DWIDTH 16 0
BBX 0 0 0 0
BITMAP
ENDCHAR
STARTCHAR AD88
ENCODING 44424
SWIDTH 840 0
DWIDTH 14 0
BBX 12 13 1 0
BITMAP
0010
3C30
3E30
0230
0230
0230
0030
FFB0
3E30
09F0
08F0
0830
0010
ENDCHAR
STARTCHAR AD89
ENCODING 44425
SWIDTH 840 0
DWIDTH 14 0
BBX 13 16 1 -2
BITMAP
0010
7C18
7E18
0618
0618
0418
00F8
FF18
7E18
0810
0BE0
03F0
0030
0030
0030
0010
ENDCHAR
STARTCHAR AD8A
ENCODING 44426
SWIDTH 960 0
DWIDTH 16 0
BBX 0 0 0 0
BITMAP
ENDCHAR
STARTCHAR AD8B
ENCODING 44427
SWIDTH 960 0
DWIDTH 16 0
BBX 0 0 0 0
BITMAP
ENDCHAR
STARTCHAR AD8C
ENCODING 44428
SWIDTH 840 0
DWIDTH 14 0
BBX 12 14 1 -1
BITMAP
0010
7C10
0610
0610
0410
00F0
07F0
FF10
0810
0A00
0200
0300
03F0
01F0
ENDCHAR
STARTCHAR AD8D
ENCODING 44429
SWIDTH 960 0
DWIDTH 16 0
BBX 0 0 0 0
BITMAP
ENDCHAR
STARTCHAR AD8E
ENCODING 44430
SWIDTH 960 0
DWIDTH 16 0
BBX 0 0 0 0
BITMAP
ENDCHAR
STARTCHAR AD8F
ENCODING 44431
SWIDTH 960 0
DWIDTH 16 0
BBX 0 0 0 0
BITMAP
ENDCHAR
STARTCHAR AD90
ENCODING 44432
SWIDTH 840 0
DWIDTH 14 0
BBX 12 17 1 -3
BITMAP
7C10
7C10
0610
0410
0410
0270
FFF0
FE10
0810
0BE0
0020
0060
00E0
0380
0300
03F0
01E0
ENDCHAR
STARTCHAR AD91
ENCODING 44433
SWIDTH 960 0
DWIDTH 16 0
BBX 0 0 0 0
BITMAP
ENDCHAR
STARTCHAR AD92
ENCODING 44434
SWIDTH 960 0
DWIDTH 16 0
BBX 0 0 0 0
BITMAP
ENDCHAR
STARTCHAR AD93
ENCODING 44435
SWIDTH 960 0
DWIDTH 16 0
BBX 0 0 0 0
BITMAP
ENDCHAR
STARTCHAR AD94
ENCODING 44436
SWIDTH 960 0
DWIDTH 16 0
BBX 0 0 0 0
BITMAP
ENDCHAR
STARTCHAR AD95
ENCODING 44437
SWIDTH 960 0
DWIDTH 16 0
BBX 0 0 0 0
BITMAP
ENDCHAR
STARTCHAR AD96
ENCODING 44438
SWIDTH 960 0
DWIDTH 16 0
BBX 0 0 0 0
BITMAP
ENDCHAR
STARTCHAR AD97
ENCODING 44439
SWIDTH 960 0
DWIDTH 16 0
BBX 0 0 0 0
BITMAP
ENDCHAR
STARTCHAR AD98
ENCODING 44440
SWIDTH 960 0
DWIDTH 16 0
BBX 0 0 0 0
BITMAP
ENDCHAR
STARTCHAR AD99
ENCODING 44441
SWIDTH 960 0
DWIDTH 16 0
BBX 0 0 0 0
BITMAP
ENDCHAR
STARTCHAR AD9A
ENCODING 44442
SWIDTH 960 0
DWIDTH 16 0
BBX 0 0 0 0
BITMAP
ENDCHAR
STARTCHAR AD9B
ENCODING 44443
SWIDTH 960 0
DWIDTH 16 0
BBX 0 0 0 0
BITMAP
ENDCHAR
STARTCHAR AD9C
ENCODING 44444
SWIDTH 840 0
DWIDTH 14 0
BBX 14 16 1 -2
BITMAP
0010
7C18
7E18
0618
0618
0418
00F8
FF18
7E10
1800
0A00
0630
0730
05F8
0CD8
0CCC
ENDCHAR
STARTCHAR AD9D
ENCODING 44445
SWIDTH 840 0
DWIDTH 14 0
BBX 12 15 1 -2
BITMAP
0010
7C10
7C10
0610
0410
0470
03F0
FF10
1810
18C0
11E0
0360
0360
0360
01C0
ENDCHAR
STARTCHAR AD9E
ENCODING 44446
SWIDTH 960 0
DWIDTH 16 0
BBX 0 0 0 0
BITMAP
ENDCHAR
STARTCHAR AD9F
ENCODING 44447
SWIDTH 960 0
DWIDTH 16 0
BBX 0 0 0 0
BITMAP
ENDCHAR
STARTCHAR ADA0
ENCODING 44448
SWIDTH 960 0
DWIDTH 16 0
BBX 0 0 0 0
BITMAP
ENDCHAR
STARTCHAR ADA1
ENCODING 44449
SWIDTH 960 0
DWIDTH 16 0
BBX 0 0 0 0
BITMAP
ENDCHAR
STARTCHAR ADA2
ENCODING 44450
SWIDTH 960 0
DWIDTH 16 0
BBX 0 0 0 0
BITMAP
ENDCHAR
STARTCHAR ADA3
ENCODING 44451
SWIDTH 960 0
DWIDTH 16 0
BBX 0 0 0 0
BITMAP
ENDCHAR
STARTCHAR ADA4
ENCODING 44452
SWIDTH 960 0
DWIDTH 16 0
BBX 14 13 1 0
BITMAP
002C
7C2C
7E6C
066C
066C
046C
006C
FF6C
7C6C
09EC
086C
082C
0024
ENDCHAR
STARTCHAR ADA5
ENCODING 44453
SWIDTH 960 0
DWIDTH 16 0
BBX 0 0 0 0
BITMAP
ENDCHAR
STARTCHAR ADA6
ENCODING 44454
SWIDTH 960 0
DWIDTH 16 0
BBX 0 0 0 0
BITMAP
ENDCHAR
STARTCHAR ADA7
ENCODING 44455
SWIDTH 960 0
DWIDTH 16 0
BBX 0 0 0 0
BITMAP
ENDCHAR
STARTCHAR ADA8
ENCODING 44456
SWIDTH 960 0
DWIDTH 16 0
BBX 0 0 0 0
BITMAP
ENDCHAR
STARTCHAR ADA9
ENCODING 44457
SWIDTH 960 0
DWIDTH 16 0
BBX 0 0 0 0
BITMAP
ENDCHAR
STARTCHAR ADAA
ENCODING 44458
SWIDTH 960 0
DWIDTH 16 0
BBX 0 0 0 0
BITMAP
ENDCHAR
STARTCHAR ADAB
ENCODING 44459
SWIDTH 960 0
DWIDTH 16 0
BBX 0 0 0 0
BITMAP
ENDCHAR
STARTCHAR ADAC
ENCODING 44460
SWIDTH 960 0
DWIDTH 16 0
BBX 0 0 0 0
BITMAP
ENDCHAR
STARTCHAR ADAD
ENCODING 44461
SWIDTH 960 0
DWIDTH 16 0
BBX 0 0 0 0
BITMAP
ENDCHAR
STARTCHAR ADAE
ENCODING 44462
SWIDTH 960 0
DWIDTH 16 0
BBX 0 0 0 0
BITMAP
ENDCHAR
STARTCHAR ADAF
ENCODING 44463
SWIDTH 960 0
DWIDTH 16 0
BBX 0 0 0 0
BITMAP
ENDCHAR
STARTCHAR ADB0
ENCODING 44464
SWIDTH 960 0
DWIDTH 16 0
BBX 0 0 0 0
BITMAP
ENDCHAR
STARTCHAR ADB1
ENCODING 44465
SWIDTH 960 0
DWIDTH 16 0
BBX 0 0 0 0
BITMAP
ENDCHAR
STARTCHAR ADB2
ENCODING 44466
SWIDTH 960 0
DWIDTH 16 0
BBX 0 0 0 0
BITMAP
ENDCHAR
STARTCHAR ADB3
ENCODING 44467
SWIDTH 960 0
DWIDTH 16 0
BBX 0 0 0 0
BITMAP
ENDCHAR
STARTCHAR ADB4
ENCODING 44468
SWIDTH 900 0
DWIDTH 15 0
BBX 14 16 0 -3
BITMAP
7C6C
7E6C
026C
026C
026C
FF6C
FF6C
1BEC
1BEC
186C
0FFC
0FFC
080C
080C
0FFC
07FC
ENDCHAR
STARTCHAR ADB5
ENCODING 44469
SWIDTH 960 0
DWIDTH 16 0
BBX 0 0 0 0
BITMAP
ENDCHAR
STARTCHAR ADB6
ENCODING 44470
SWIDTH 960 0
DWIDTH 16 0
BBX 0 0 0 0
BITMAP
ENDCHAR
STARTCHAR ADB7
ENCODING 44471
SWIDTH 960 0
DWIDTH 16 0
BBX 14 16 1 -2
BITMAP
006C
3C6C
7E6C
066C
066C
066C
01EC
7F6C
FE6C
082C
0840
00C0
01E0
01B0
0118
0108
ENDCHAR
STARTCHAR ADB8
ENCODING 44472
SWIDTH 960 0
DWIDTH 16 0
BBX 0 0 0 0
BITMAP
ENDCHAR
STARTCHAR ADB9
ENCODING 44473
SWIDTH 960 0
DWIDTH 16 0
BBX 0 0 0 0
BITMAP
ENDCHAR
STARTCHAR ADBA
ENCODING 44474
SWIDTH 960 0
DWIDTH 16 0
BBX 0 0 0 0
BITMAP
ENDCHAR
STARTCHAR ADBB
ENCODING 44475
SWIDTH 960 0
DWIDTH 16 0
BBX 0 0 0 0
BITMAP
ENDCHAR
STARTCHAR ADBC
ENCODING 44476
SWIDTH 960 0
DWIDTH 16 0
BBX 0 0 0 0
BITMAP
ENDCHAR
STARTCHAR ADBD
ENCODING 44477
SWIDTH 960 0
DWIDTH 16 0
BBX 0 0 0 0
BITMAP
ENDCHAR
STARTCHAR ADBE
ENCODING 44478
SWIDTH 960 0
DWIDTH 16 0
BBX 0 0 0 0
BITMAP
ENDCHAR
STARTCHAR ADBF
ENCODING 44479
SWIDTH 960 0
DWIDTH 16 0
BBX 0 0 0 0
BITMAP
ENDCHAR
STARTCHAR ADC0
ENCODING 44480
SWIDTH 840 0
DWIDTH 14 0
BBX 12 14 1 -1
BITMAP
0020
3C30
7E30
0630
0630
0430
0030
0010
FF90
FF10
1810
1830
1810
1000
ENDCHAR
STARTCHAR ADC1
ENCODING 44481
SWIDTH 840 0
DWIDTH 14 0
BBX 13 17 1 -3
BITMAP
0010
0010
7C10
0618
0618
0618
0018
0198
FFD8
1810
1800
0BE0
03F0
0030
0030
0030
0020
ENDCHAR
STARTCHAR ADC2
ENCODING 44482
SWIDTH 960 0
DWIDTH 16 0
BBX 0 0 0 0
BITMAP
ENDCHAR
STARTCHAR ADC3
ENCODING 44483
SWIDTH 960 0
DWIDTH 16 0
BBX 0 0 0 0
BITMAP
ENDCHAR
STARTCHAR ADC4
ENCODING 44484
SWIDTH 840 0
DWIDTH 14 0
BBX 12 15 1 -2
BITMAP
0010
7C10
0610
0610
0610
0410
0010
FF90
1810
1800
1800
0200
0200
03F0
03E0
ENDCHAR
STARTCHAR ADC5
ENCODING 44485
SWIDTH 960 0
DWIDTH 16 0
BBX 0 0 0 0
BITMAP
ENDCHAR
STARTCHAR ADC6
ENCODING 44486
SWIDTH 960 0
DWIDTH 16 0
BBX 0 0 0 0
BITMAP
ENDCHAR
STARTCHAR ADC7
ENCODING 44487
SWIDTH 960 0
DWIDTH 16 0
BBX 0 0 0 0
BITMAP
ENDCHAR
STARTCHAR ADC8
ENCODING 44488
SWIDTH 840 0
DWIDTH 14 0
BBX 13 18 1 -3
BITMAP
0010
1818
7E18
0618
0618
0618
0018
7FD8
FF18
18C0
1BE0
0830
0030
00E0
0380
0300
03F0
01E0
ENDCHAR
STARTCHAR ADC9
ENCODING 44489
SWIDTH 960 0
DWIDTH 16 0
BBX 0 0 0 0
BITMAP
ENDCHAR
STARTCHAR ADCA
ENCODING 44490
SWIDTH 960 0
DWIDTH 16 0
BBX 0 0 0 0
BITMAP
ENDCHAR
STARTCHAR ADCB
ENCODING 44491
SWIDTH 960 0
DWIDTH 16 0
BBX 0 0 0 0
BITMAP
ENDCHAR
STARTCHAR ADCC
ENCODING 44492
SWIDTH 960 0
DWIDTH 16 0
BBX 0 0 0 0
BITMAP
ENDCHAR
STARTCHAR ADCD
ENCODING 44493
SWIDTH 960 0
DWIDTH 16 0
BBX 0 0 0 0
BITMAP
ENDCHAR
STARTCHAR ADCE
ENCODING 44494
SWIDTH 960 0
DWIDTH 16 0
BBX 0 0 0 0
BITMAP
ENDCHAR
STARTCHAR ADCF
ENCODING 44495
SWIDTH 960 0
DWIDTH 16 0
BBX 0 0 0 0
BITMAP
ENDCHAR
STARTCHAR ADD0
ENCODING 44496
SWIDTH 840 0
DWIDTH 14 0
BBX 13 16 1 -2
BITMAP
0010
3C10
7E18
0618
0618
0618
0018
0018
FFD8
FF10
19F0
1BF0
0B10
0310
0310
01F0
ENDCHAR
STARTCHAR ADD1
ENCODING 44497
SWIDTH 840 0
DWIDTH 14 0
BBX 12 17 1 -3
BITMAP
0010
7C10
3E10
0610
0610
0610
0010
FFD0
7E10
1800
0B10
0310
0390
03F0
0330
0330
01E0
ENDCHAR
STARTCHAR ADD2
ENCODING 44498
SWIDTH 960 0
DWIDTH 16 0
BBX 0 0 0 0
BITMAP
ENDCHAR
STARTCHAR ADD3
ENCODING 44499
SWIDTH 840 0
DWIDTH 14 0
BBX 13 16 1 -2
BITMAP
0010
3818
7E18
0618
0618
0618
0018
47D8
FF98
0810
0840
08C0
00E0
01E0
01B0
0318
ENDCHAR
STARTCHAR ADD4
ENCODING 44500
SWIDTH 960 0
DWIDTH 16 0
BBX 0 0 0 0
BITMAP
ENDCHAR
STARTCHAR ADD5
ENCODING 44501
SWIDTH 960 0
DWIDTH 16 0
BBX 0 0 0 0
BITMAP
ENDCHAR
STARTCHAR ADD6
ENCODING 44502
SWIDTH 960 0
DWIDTH 16 0
BBX 0 0 0 0
BITMAP
ENDCHAR
STARTCHAR ADD7
ENCODING 44503
SWIDTH 960 0
DWIDTH 16 0
BBX 0 0 0 0
BITMAP
ENDCHAR
STARTCHAR ADD8
ENCODING 44504
SWIDTH 960 0
DWIDTH 16 0
BBX 0 0 0 0
BITMAP
ENDCHAR
STARTCHAR ADD9
ENCODING 44505
SWIDTH 960 0
DWIDTH 16 0
BBX 0 0 0 0
BITMAP
ENDCHAR
STARTCHAR ADDA
ENCODING 44506
SWIDTH 960 0
DWIDTH 16 0
BBX 0 0 0 0
BITMAP
ENDCHAR
STARTCHAR ADDB
ENCODING 44507
SWIDTH 960 0
DWIDTH 16 0
BBX 0 0 0 0
BITMAP
ENDCHAR
STARTCHAR ADDC
ENCODING 44508
SWIDTH 720 0
DWIDTH 12 0
BBX 11 14 1 -1
BITMAP
1F00
1F80
0180
0180
0100
0000
0000
FFE0
FFE0
1180
3180
3180
3180
3100
ENDCHAR
STARTCHAR ADDD
ENCODING 44509
SWIDTH 960 0
DWIDTH 16 0
BBX 0 0 0 0
BITMAP
ENDCHAR
STARTCHAR ADDE
ENCODING 44510
SWIDTH 960 0
DWIDTH 16 0
BBX 0 0 0 0
BITMAP
ENDCHAR
STARTCHAR ADDF
ENCODING 44511
SWIDTH 960 0
DWIDTH 16 0
BBX 0 0 0 0
BITMAP
ENDCHAR
STARTCHAR ADE0
ENCODING 44512
SWIDTH 720 0
DWIDTH 12 0
BBX 11 16 1 -2
BITMAP
1E00
3F00
0300
0100
0000
0000
FFE0
FFC0
3100
3100
3100
2000
3000
3000
3F00
1F00
ENDCHAR
STARTCHAR ADE1
ENCODING 44513
SWIDTH 960 0
DWIDTH 16 0
BBX 0 0 0 0
BITMAP
ENDCHAR
STARTCHAR ADE2
ENCODING 44514
SWIDTH 960 0
DWIDTH 16 0
BBX 0 0 0 0
BITMAP
ENDCHAR
STARTCHAR ADE3
ENCODING 44515
SWIDTH 960 0
DWIDTH 16 0
BBX 0 0 0 0
BITMAP
ENDCHAR
STARTCHAR ADE4
ENCODING 44516
SWIDTH 720 0
DWIDTH 12 0
BBX 11 20 1 -5
BITMAP
1E00
1F00
0180
0100
0000
0000
FFE0
FFE0
1100
3180
3180
1100
1F00
0300
0300
0F00
1C00
3000
1F80
0F00
ENDCHAR
STARTCHAR ADE5
ENCODING 44517
SWIDTH 960 0
DWIDTH 16 0
BBX 0 0 0 0
BITMAP
ENDCHAR
STARTCHAR ADE6
ENCODING 44518
SWIDTH 960 0
DWIDTH 16 0
BBX 0 0 0 0
BITMAP
ENDCHAR
STARTCHAR ADE7
ENCODING 44519
SWIDTH 960 0
DWIDTH 16 0
BBX 0 0 0 0
BITMAP
ENDCHAR
STARTCHAR ADE8
ENCODING 44520
SWIDTH 960 0
DWIDTH 16 0
BBX 0 0 0 0
BITMAP
ENDCHAR
STARTCHAR ADE9
ENCODING 44521
SWIDTH 960 0
DWIDTH 16 0
BBX 0 0 0 0
BITMAP
ENDCHAR
STARTCHAR ADEA
ENCODING 44522
SWIDTH 960 0
DWIDTH 16 0
BBX 0 0 0 0
BITMAP
ENDCHAR
STARTCHAR ADEB
ENCODING 44523
SWIDTH 960 0
DWIDTH 16 0
BBX 0 0 0 0
BITMAP
ENDCHAR
STARTCHAR ADEC
ENCODING 44524
SWIDTH 960 0
DWIDTH 16 0
BBX 0 0 0 0
BITMAP
ENDCHAR
STARTCHAR ADED
ENCODING 44525
SWIDTH 960 0
DWIDTH 16 0
BBX 0 0 0 0
BITMAP
ENDCHAR
STARTCHAR ADEE
ENCODING 44526
SWIDTH 960 0
DWIDTH 16 0
BBX 0 0 0 0
BITMAP
ENDCHAR
STARTCHAR ADEF
ENCODING 44527
SWIDTH 960 0
DWIDTH 16 0
BBX 0 0 0 0
BITMAP
ENDCHAR
STARTCHAR ADF0
ENCODING 44528
SWIDTH 960 0
DWIDTH 16 0
BBX 0 0 0 0
BITMAP
ENDCHAR
STARTCHAR ADF1
ENCODING 44529
SWIDTH 960 0
DWIDTH 16 0
BBX 0 0 0 0
BITMAP
ENDCHAR
STARTCHAR ADF2
ENCODING 44530
SWIDTH 960 0
DWIDTH 16 0
BBX 0 0 0 0
BITMAP
ENDCHAR
STARTCHAR ADF3
ENCODING 44531
SWIDTH 960 0
DWIDTH 16 0
BBX 0 0 0 0
BITMAP
ENDCHAR
STARTCHAR ADF4
ENCODING 44532
SWIDTH 960 0
DWIDTH 16 0
BBX 0 0 0 0
BITMAP
ENDCHAR
STARTCHAR ADF5
ENCODING 44533
SWIDTH 960 0
DWIDTH 16 0
BBX 0 0 0 0
BITMAP
ENDCHAR
STARTCHAR ADF6
ENCODING 44534
SWIDTH 960 0
DWIDTH 16 0
BBX 0 0 0 0
BITMAP
ENDCHAR
STARTCHAR ADF7
ENCODING 44535
SWIDTH 960 0
DWIDTH 16 0
BBX 0 0 0 0
BITMAP
ENDCHAR
STARTCHAR ADF8
ENCODING 44536
SWIDTH 660 0
DWIDTH 11 0
BBX 11 9 1 2
BITMAP
3F00
1F80
0180
0180
0180
0100
0000
FFE0
FFC0
ENDCHAR
STARTCHAR ADF9
ENCODING 44537
SWIDTH 720 0
DWIDTH 12 0
BBX 12 16 1 -1
BITMAP
1F00
1F80
0180
0180
0180
0000
0000
FFF0
7FC0
0000
0000
1F80
0180
0080
0080
0080
ENDCHAR
STARTCHAR ADFA
ENCODING 44538
SWIDTH 960 0
DWIDTH 16 0
BBX 0 0 0 0
BITMAP
ENDCHAR
STARTCHAR ADFB
ENCODING 44539
SWIDTH 960 0
DWIDTH 16 0
BBX 0 0 0 0
BITMAP
ENDCHAR
STARTCHAR ADFC
ENCODING 44540
SWIDTH 720 0
DWIDTH 12 0
BBX 11 14 1 -1
BITMAP
1E00
3F00
0100
0100
0100
0000
FFE0
7F80
0000
2000
3000
3000
1F80
1F00
ENDCHAR
STARTCHAR ADFD
ENCODING 44541
SWIDTH 960 0
DWIDTH 16 0
BBX 0 0 0 0
BITMAP
ENDCHAR
STARTCHAR ADFE
ENCODING 44542
SWIDTH 960 0
DWIDTH 16 0
BBX 0 0 0 0
BITMAP
ENDCHAR
STARTCHAR ADFF
ENCODING 44543
SWIDTH 720 0
DWIDTH 12 0
BBX 11 15 1 -1
BITMAP
1F00
1F00
0180
0180
0100
0000
0000
FFE0
7FC0
1F80
1F80
1800
1800
1F80
0F00
ENDCHAR
STARTCHAR AE00
ENCODING 44544
SWIDTH 660 0
DWIDTH 11 0
BBX 11 17 1 -3
BITMAP
1E00
1F00
0180
0100
0000
0000
FFE0
7F80
1F00
0300
0300
0300
1E00
1800
1000
1F80
0F00
ENDCHAR
STARTCHAR AE01
ENCODING 44545
SWIDTH 720 0
DWIDTH 12 0
BBX 11 17 1 -3
BITMAP
1F00
1F80
0180
0180
0100
0000
0000
FFE0
0000
0000
3BC0
0CC0
0CC0
38C0
30C0
1680
0C00
ENDCHAR
STARTCHAR AE02
ENCODING 44546
SWIDTH 960 0
DWIDTH 16 0
BBX 0 0 0 0
BITMAP
ENDCHAR
STARTCHAR AE03
ENCODING 44547
SWIDTH 960 0
DWIDTH 16 0
BBX 0 0 0 0
BITMAP
ENDCHAR
STARTCHAR AE04
ENCODING 44548
SWIDTH 960 0
DWIDTH 16 0
BBX 0 0 0 0
BITMAP
ENDCHAR
STARTCHAR AE05
ENCODING 44549
SWIDTH 960 0
DWIDTH 16 0
BBX 0 0 0 0
BITMAP
ENDCHAR
STARTCHAR AE06
ENCODING 44550
SWIDTH 960 0
DWIDTH 16 0
BBX 0 0 0 0
BITMAP
ENDCHAR
STARTCHAR AE07
ENCODING 44551
SWIDTH 960 0
DWIDTH 16 0
BBX 0 0 0 0
BITMAP
ENDCHAR
STARTCHAR AE08
ENCODING 44552
SWIDTH 720 0
DWIDTH 12 0
BBX 11 14 1 -1
BITMAP
1E00
3F00
0100
0100
0000
0000
FFE0
7F80
1F00
1F00
1180
1180
1980
1F00
ENDCHAR
STARTCHAR AE09
ENCODING 44553
SWIDTH 720 0
DWIDTH 12 0
BBX 11 14 1 -1
BITMAP
1E00
3F00
0100
0100
0000
0000
FFE0
7F80
1180
1580
1F80
1100
1B00
0F00
ENDCHAR
STARTCHAR AE0A
ENCODING 44554
SWIDTH 960 0
DWIDTH 16 0
BBX 0 0 0 0
BITMAP
ENDCHAR
STARTCHAR AE0B
ENCODING 44555
SWIDTH 660 0
DWIDTH 11 0
BBX 11 15 1 -1
BITMAP
1E00
3F00
0100
0100
0100
0000
0000
FFE0
FF80
0400
0C00
0E00
1B00
1B80
1180
ENDCHAR
STARTCHAR AE0C
ENCODING 44556
SWIDTH 960 0
DWIDTH 16 0
BBX 0 0 0 0
BITMAP
ENDCHAR
STARTCHAR AE0D
ENCODING 44557
SWIDTH 720 0
DWIDTH 12 0
BBX 11 14 1 -1
BITMAP
1F00
1F80
0180
0180
0000
0000
FFE0
7FC0
0F00
0D00
0980
0900
0F00
0600
ENDCHAR
STARTCHAR AE0E
ENCODING 44558
SWIDTH 960 0
DWIDTH 16 0
BBX 0 0 0 0
BITMAP
ENDCHAR
STARTCHAR AE0F
ENCODING 44559
SWIDTH 960 0
DWIDTH 16 0
BBX 0 0 0 0
BITMAP
ENDCHAR
STARTCHAR AE10
ENCODING 44560
SWIDTH 960 0
DWIDTH 16 0
BBX 0 0 0 0
BITMAP
ENDCHAR
STARTCHAR AE11
ENCODING 44561
SWIDTH 960 0
DWIDTH 16 0
BBX 0 0 0 0
BITMAP
ENDCHAR
STARTCHAR AE12
ENCODING 44562
SWIDTH 960 0
DWIDTH 16 0
BBX 0 0 0 0
BITMAP
ENDCHAR
STARTCHAR AE13
ENCODING 44563
SWIDTH 960 0
DWIDTH 16 0
BBX 0 0 0 0
BITMAP
ENDCHAR
STARTCHAR AE14
ENCODING 44564
SWIDTH 780 0
DWIDTH 13 0
BBX 12 12 1 2
BITMAP
0020
0020
7C20
7E30
0630
0630
0630
0030
0130
FFB0
FC30
0020
ENDCHAR
STARTCHAR AE15
ENCODING 44565
SWIDTH 960 0
DWIDTH 16 0
BBX 0 0 0 0
BITMAP
ENDCHAR
STARTCHAR AE16
ENCODING 44566
SWIDTH 960 0
DWIDTH 16 0
BBX 0 0 0 0
BITMAP
ENDCHAR
STARTCHAR AE17
ENCODING 44567
SWIDTH 960 0
DWIDTH 16 0
BBX 0 0 0 0
BITMAP
ENDCHAR
STARTCHAR AE18
ENCODING 44568
SWIDTH 960 0
DWIDTH 16 0
BBX 0 0 0 0
BITMAP
ENDCHAR
STARTCHAR AE19
ENCODING 44569
SWIDTH 960 0
DWIDTH 16 0
BBX 0 0 0 0
BITMAP
ENDCHAR
STARTCHAR AE1A
ENCODING 44570
SWIDTH 960 0
DWIDTH 16 0
BBX 0 0 0 0
BITMAP
ENDCHAR
STARTCHAR AE1B
ENCODING 44571
SWIDTH 960 0
DWIDTH 16 0
BBX 0 0 0 0
BITMAP
ENDCHAR
STARTCHAR AE1C
ENCODING 44572
SWIDTH 900 0
DWIDTH 15 0
BBX 13 16 1 -3
BITMAP
7F10
7F10
0110
0110
0110
FFD0
FFD0
0010
3FF0
3FF0
0030
3FF0
3FF0
3000
3FF8
1FF8
ENDCHAR
STARTCHAR AE1D
ENCODING 44573
SWIDTH 960 0
DWIDTH 16 0
BBX 0 0 0 0
BITMAP
ENDCHAR
STARTCHAR AE1E
ENCODING 44574
SWIDTH 960 0
DWIDTH 16 0
BBX 0 0 0 0
BITMAP
ENDCHAR
STARTCHAR AE1F
ENCODING 44575
SWIDTH 960 0
DWIDTH 16 0
BBX 0 0 0 0
BITMAP
ENDCHAR
STARTCHAR AE20
ENCODING 44576
SWIDTH 960 0
DWIDTH 16 0
BBX 0 0 0 0
BITMAP
ENDCHAR
STARTCHAR AE21
ENCODING 44577
SWIDTH 960 0
DWIDTH 16 0
BBX 0 0 0 0
BITMAP
ENDCHAR
STARTCHAR AE22
ENCODING 44578
SWIDTH 960 0
DWIDTH 16 0
BBX 0 0 0 0
BITMAP
ENDCHAR
STARTCHAR AE23
ENCODING 44579
SWIDTH 960 0
DWIDTH 16 0
BBX 0 0 0 0
BITMAP
ENDCHAR
STARTCHAR AE24
ENCODING 44580
SWIDTH 960 0
DWIDTH 16 0
BBX 0 0 0 0
BITMAP
ENDCHAR
STARTCHAR AE25
ENCODING 44581
SWIDTH 960 0
DWIDTH 16 0
BBX 0 0 0 0
BITMAP
ENDCHAR
STARTCHAR AE26
ENCODING 44582
SWIDTH 960 0
DWIDTH 16 0
BBX 0 0 0 0
BITMAP
ENDCHAR
STARTCHAR AE27
ENCODING 44583
SWIDTH 960 0
DWIDTH 16 0
BBX 0 0 0 0
BITMAP
ENDCHAR
STARTCHAR AE28
ENCODING 44584
SWIDTH 960 0
DWIDTH 16 0
BBX 0 0 0 0
BITMAP
ENDCHAR
STARTCHAR AE29
ENCODING 44585
SWIDTH 960 0
DWIDTH 16 0
BBX 0 0 0 0
BITMAP
ENDCHAR
STARTCHAR AE2A
ENCODING 44586
SWIDTH 960 0
DWIDTH 16 0
BBX 0 0 0 0
BITMAP
ENDCHAR
STARTCHAR AE2B
ENCODING 44587
SWIDTH 960 0
DWIDTH 16 0
BBX 0 0 0 0
BITMAP
ENDCHAR
STARTCHAR AE2C
ENCODING 44588
SWIDTH 960 0
DWIDTH 16 0
BBX 0 0 0 0
BITMAP
ENDCHAR
STARTCHAR AE2D
ENCODING 44589
SWIDTH 960 0
DWIDTH 16 0
BBX 0 0 0 0
BITMAP
ENDCHAR
STARTCHAR AE2E
ENCODING 44590
SWIDTH 960 0
DWIDTH 16 0
BBX 0 0 0 0
BITMAP
ENDCHAR
STARTCHAR AE2F
ENCODING 44591
SWIDTH 960 0
DWIDTH 16 0
BBX 0 0 0 0
BITMAP
ENDCHAR
STARTCHAR AE30
ENCODING 44592
SWIDTH 780 0
DWIDTH 13 0
BBX 11 11 1 1
BITMAP
0060
0060
F060
F820
1820
1820
1820
1820
1820
0020
0020
ENDCHAR
STARTCHAR AE31
ENCODING 44593
SWIDTH 840 0
DWIDTH 14 0
BBX 12 14 1 -2
BITMAP
0010
7810
FC10
0C10
0C10
0C10
0C10
0010
03E0
03F0
0030
0030
0030
0020
ENDCHAR
STARTCHAR AE32
ENCODING 44594
SWIDTH 960 0
DWIDTH 16 0
BBX 0 0 0 0
BITMAP
ENDCHAR
STARTCHAR AE33
ENCODING 44595
SWIDTH 960 0
DWIDTH 16 0
BBX 0 0 0 0
BITMAP
ENDCHAR
STARTCHAR AE34
ENCODING 44596
SWIDTH 900 0
DWIDTH 15 0
BBX 13 13 1 0
BITMAP
0010
0018
7818
FC18
0C18
0C18
0C18
0C18
0018
0300
0300
03F8
01F0
ENDCHAR
STARTCHAR AE35
ENCODING 44597
SWIDTH 960 0
DWIDTH 16 0
BBX 0 0 0 0
BITMAP
ENDCHAR
STARTCHAR AE36
ENCODING 44598
SWIDTH 960 0
DWIDTH 16 0
BBX 0 0 0 0
BITMAP
ENDCHAR
STARTCHAR AE37
ENCODING 44599
SWIDTH 840 0
DWIDTH 14 0
BBX 13 15 1 -1
BITMAP
0018
0018
F818
7C18
0C18
0C18
0C18
0C10
0000
03F0
03F0
0300
0300
03F8
01F0
ENDCHAR
STARTCHAR AE38
ENCODING 44600
SWIDTH 840 0
DWIDTH 14 0
BBX 12 17 1 -2
BITMAP
0020
0030
F030
7830
1830
1830
1830
1820
03C0
0060
0060
00E0
03C0
0700
0600
03E0
01E0
ENDCHAR
STARTCHAR AE39
ENCODING 44601
SWIDTH 960 0
DWIDTH 16 0
BBX 0 0 0 0
BITMAP
ENDCHAR
STARTCHAR AE3A
ENCODING 44602
SWIDTH 840 0
DWIDTH 14 0
BBX 13 15 1 -1
BITMAP
0010
0010
F810
7C10
0C10
0C10
0C10
0810
0E00
0370
0348
0648
0C78
0DF8
0700
ENDCHAR
STARTCHAR AE3B
ENCODING 44603
SWIDTH 960 0
DWIDTH 16 0
BBX 0 0 0 0
BITMAP
ENDCHAR
STARTCHAR AE3C
ENCODING 44604
SWIDTH 960 0
DWIDTH 16 0
BBX 0 0 0 0
BITMAP
ENDCHAR
STARTCHAR AE3D
ENCODING 44605
SWIDTH 960 0
DWIDTH 16 0
BBX 0 0 0 0
BITMAP
ENDCHAR
STARTCHAR AE3E
ENCODING 44606
SWIDTH 960 0
DWIDTH 16 0
BBX 0 0 0 0
BITMAP
ENDCHAR
STARTCHAR AE3F
ENCODING 44607
SWIDTH 960 0
DWIDTH 16 0
BBX 0 0 0 0
BITMAP
ENDCHAR
STARTCHAR AE40
ENCODING 44608
SWIDTH 840 0
DWIDTH 14 0
BBX 12 14 1 -1
BITMAP
0030
0030
F830
3830
1830
1830
1830
1820
03E0
03F0
0330
0330
03F0
03E0
ENDCHAR
STARTCHAR AE41
ENCODING 44609
SWIDTH 900 0
DWIDTH 15 0
BBX 12 14 2 0
BITMAP
0030
0030
F030
F830
1830
1830
1830
1A10
0230
0230
02F0
0230
0360
01E0
ENDCHAR
STARTCHAR AE42
ENCODING 44610
SWIDTH 960 0
DWIDTH 16 0
BBX 0 0 0 0
BITMAP
ENDCHAR
STARTCHAR AE43
ENCODING 44611
SWIDTH 840 0
DWIDTH 14 0
BBX 13 14 1 0
BITMAP
0010
0018
7818
FC18
0C18
0C18
0C18
0C10
0040
00C0
00E0
01F0
0130
0318
ENDCHAR
STARTCHAR AE44
ENCODING 44612
SWIDTH 960 0
DWIDTH 16 0
BBX 0 0 0 0
BITMAP
ENDCHAR
STARTCHAR AE45
ENCODING 44613
SWIDTH 900 0
DWIDTH 15 0
BBX 13 15 1 -1
BITMAP
0010
0018
7018
FC18
0C18
0C18
0C18
0C18
0840
00E0
01B0
0130
0130
01E0
00C0
ENDCHAR
STARTCHAR AE46
ENCODING 44614
SWIDTH 840 0
DWIDTH 14 0
BBX 13 15 1 -1
BITMAP
0010
0018
7818
FC18
0C18
0C18
0C18
0C10
0000
03E0
0060
0060
00E0
01B0
0210
ENDCHAR
STARTCHAR AE47
ENCODING 44615
SWIDTH 960 0
DWIDTH 16 0
BBX 0 0 0 0
BITMAP
ENDCHAR
STARTCHAR AE48
ENCODING 44616
SWIDTH 960 0
DWIDTH 16 0
BBX 0 0 0 0
BITMAP
ENDCHAR
STARTCHAR AE49
ENCODING 44617
SWIDTH 960 0
DWIDTH 16 0
BBX 0 0 0 0
BITMAP
ENDCHAR
STARTCHAR AE4A
ENCODING 44618
SWIDTH 840 0
DWIDTH 14 0
BBX 13 15 1 -1
BITMAP
0010
7018
F818
0C18
0C18
0C18
0C18
0810
07F0
03F8
0120
0120
0120
07F8
07F8
ENDCHAR
STARTCHAR AE4B
ENCODING 44619
SWIDTH 960 0
DWIDTH 16 0
BBX 0 0 0 0
BITMAP
ENDCHAR
STARTCHAR AE4C
ENCODING 44620
SWIDTH 900 0
DWIDTH 15 0
BBX 15 11 1 1
BITMAP
0010
0010
4718
F798
1998
1998
199E
199C
1118
0010
0010
ENDCHAR
STARTCHAR AE4D
ENCODING 44621
SWIDTH 960 0
DWIDTH 16 0
BBX 15 14 1 -1
BITMAP
0018
F798
F998
1998
199E
1998
1998
0008
01F0
01F0
0010
0010
0010
0010
ENDCHAR
STARTCHAR AE4E
ENCODING 44622
SWIDTH 960 0
DWIDTH 16 0
BBX 15 13 1 0
BITMAP
0018
F798
F998
1998
199E
1998
1998
0008
07F0
07B0
0190
0190
0110
ENDCHAR
STARTCHAR AE4F
ENCODING 44623
SWIDTH 960 0
DWIDTH 16 0
BBX 0 0 0 0
BITMAP
ENDCHAR
STARTCHAR AE50
ENCODING 44624
SWIDTH 960 0
DWIDTH 16 0
BBX 15 13 1 0
BITMAP
0018
F798
F998
1998
199E
1998
1998
0008
0000
0300
0300
01F8
01F0
ENDCHAR
STARTCHAR AE51
ENCODING 44625
SWIDTH 960 0
DWIDTH 16 0
BBX 0 0 0 0
BITMAP
ENDCHAR
STARTCHAR AE52
ENCODING 44626
SWIDTH 960 0
DWIDTH 16 0
BBX 0 0 0 0
BITMAP
ENDCHAR
STARTCHAR AE53
ENCODING 44627
SWIDTH 960 0
DWIDTH 16 0
BBX 0 0 0 0
BITMAP
ENDCHAR
STARTCHAR AE54
ENCODING 44628
SWIDTH 960 0
DWIDTH 16 0
BBX 15 16 1 0
BITMAP
0018
F718
FB98
1998
199E
1998
1118
01F0
0030
0010
0030
00E0
0180
0180
01F8
00F0
ENDCHAR
STARTCHAR AE55
ENCODING 44629
SWIDTH 960 0
DWIDTH 16 0
BBX 0 0 0 0
BITMAP
ENDCHAR
STARTCHAR AE56
ENCODING 44630
SWIDTH 960 0
DWIDTH 16 0
BBX 16 15 1 -1
BITMAP
0008
0018
F798
7988
198E
198F
1988
1008
0700
01BC
01AC
0324
0624
06FC
03C0
ENDCHAR
STARTCHAR AE57
ENCODING 44631
SWIDTH 960 0
DWIDTH 16 0
BBX 0 0 0 0
BITMAP
ENDCHAR
STARTCHAR AE58
ENCODING 44632
SWIDTH 960 0
DWIDTH 16 0
BBX 0 0 0 0
BITMAP
ENDCHAR
STARTCHAR AE59
ENCODING 44633
SWIDTH 960 0
DWIDTH 16 0
BBX 0 0 0 0
BITMAP
ENDCHAR
STARTCHAR AE5A
ENCODING 44634
SWIDTH 960 0
DWIDTH 16 0
BBX 0 0 0 0
BITMAP
ENDCHAR
STARTCHAR AE5B
ENCODING 44635
SWIDTH 960 0
DWIDTH 16 0
BBX 0 0 0 0
BITMAP
ENDCHAR
STARTCHAR AE5C
ENCODING 44636
SWIDTH 900 0
DWIDTH 15 0
BBX 15 15 1 -1
BITMAP
0018
6718
FF98
1998
199E
199E
1998
1018
0000
01F0
0198
0198
0198
01F8
01F0
ENDCHAR
STARTCHAR AE5D
ENCODING 44637
SWIDTH 960 0
DWIDTH 16 0
BBX 16 16 1 -1
BITMAP
0008
0218
7798
F998
1988
198F
1988
1888
0000
0118
0118
0358
01F8
0110
01B0
00F0
ENDCHAR
STARTCHAR AE5E
ENCODING 44638
SWIDTH 960 0
DWIDTH 16 0
BBX 0 0 0 0
BITMAP
ENDCHAR
STARTCHAR AE5F
ENCODING 44639
SWIDTH 960 0
DWIDTH 16 0
BBX 15 14 1 0
BITMAP
0018
0718
F798
1998
199E
199E
1998
1008
0040
00C0
00E0
01E0
01B0
0318
ENDCHAR
STARTCHAR AE60
ENCODING 44640
SWIDTH 960 0
DWIDTH 16 0
BBX 15 14 1 0
BITMAP
0018
F798
F998
1998
199E
1998
1998
0000
0300
0330
07B0
07F8
04EC
0C44
ENDCHAR
STARTCHAR AE61
ENCODING 44641
SWIDTH 960 0
DWIDTH 16 0
BBX 15 14 1 0
BITMAP
0018
0718
F798
1998
199E
199E
1998
1008
0060
00F0
01B0
01B0
01B0
00E0
ENDCHAR
STARTCHAR AE62
ENCODING 44642
SWIDTH 960 0
DWIDTH 16 0
BBX 0 0 0 0
BITMAP
ENDCHAR
STARTCHAR AE63
ENCODING 44643
SWIDTH 960 0
DWIDTH 16 0
BBX 0 0 0 0
BITMAP
ENDCHAR
STARTCHAR AE64
ENCODING 44644
SWIDTH 960 0
DWIDTH 16 0
BBX 0 0 0 0
BITMAP
ENDCHAR
STARTCHAR AE65
ENCODING 44645
SWIDTH 960 0
DWIDTH 16 0
BBX 16 16 1 -1
BITMAP
0018
0718
FF98
1988
198E
198F
1988
1008
03F0
03F8
0100
01F0
01F0
0100
01F8
00F0
ENDCHAR
STARTCHAR AE66
ENCODING 44646
SWIDTH 960 0
DWIDTH 16 0
BBX 0 0 0 0
BITMAP
ENDCHAR
STARTCHAR AE67
ENCODING 44647
SWIDTH 960 0
DWIDTH 16 0
BBX 0 0 0 0
BITMAP
ENDCHAR
STARTCHAR AE68
ENCODING 44648
SWIDTH 960 0
DWIDTH 16 0
BBX 14 11 1 1
BITMAP
0044
0044
5C44
FE44
3264
327C
327C
3264
3264
0044
0044
ENDCHAR
STARTCHAR AE69
ENCODING 44649
SWIDTH 960 0
DWIDTH 16 0
BBX 15 16 1 -1
BITMAP
0022
0022
0426
FF26
7B3E
1B26
1B26
1B26
1200
0000
00F8
00FC
000C
000C
000C
0008
ENDCHAR
STARTCHAR AE6A
ENCODING 44650
SWIDTH 960 0
DWIDTH 16 0
BBX 0 0 0 0
BITMAP
ENDCHAR
STARTCHAR AE6B
ENCODING 44651
SWIDTH 960 0
DWIDTH 16 0
BBX 0 0 0 0
BITMAP
ENDCHAR
STARTCHAR AE6C
ENCODING 44652
SWIDTH 960 0
DWIDTH 16 0
BBX 15 13 1 1
BITMAP
0022
0E26
FF26
1B26
1B3E
1B26
1B26
1226
0000
0080
0180
00FC
00F8
ENDCHAR
STARTCHAR AE6D
ENCODING 44653
SWIDTH 960 0
DWIDTH 16 0
BBX 0 0 0 0
BITMAP
ENDCHAR
STARTCHAR AE6E
ENCODING 44654
SWIDTH 960 0
DWIDTH 16 0
BBX 0 0 0 0
BITMAP
ENDCHAR
STARTCHAR AE6F
ENCODING 44655
SWIDTH 960 0
DWIDTH 16 0
BBX 0 0 0 0
BITMAP
ENDCHAR
STARTCHAR AE70
ENCODING 44656
SWIDTH 1020 0
DWIDTH 17 0
BBX 15 17 1 -2
BITMAP
0062
6E66
FF26
1B26
1B3E
1B26
1226
0024
00F8
0098
0008
0018
0070
00C0
00C0
00FC
0078
ENDCHAR
STARTCHAR AE71
ENCODING 44657
SWIDTH 960 0
DWIDTH 16 0
BBX 0 0 0 0
BITMAP
ENDCHAR
STARTCHAR AE72
ENCODING 44658
SWIDTH 960 0
DWIDTH 16 0
BBX 0 0 0 0
BITMAP
ENDCHAR
STARTCHAR AE73
ENCODING 44659
SWIDTH 960 0
DWIDTH 16 0
BBX 0 0 0 0
BITMAP
ENDCHAR
STARTCHAR AE74
ENCODING 44660
SWIDTH 960 0
DWIDTH 16 0
BBX 0 0 0 0
BITMAP
ENDCHAR
STARTCHAR AE75
ENCODING 44661
SWIDTH 960 0
DWIDTH 16 0
BBX 0 0 0 0
BITMAP
ENDCHAR
STARTCHAR AE76
ENCODING 44662
SWIDTH 960 0
DWIDTH 16 0
BBX 0 0 0 0
BITMAP
ENDCHAR
STARTCHAR AE77
ENCODING 44663
SWIDTH 960 0
DWIDTH 16 0
BBX 0 0 0 0
BITMAP
ENDCHAR
STARTCHAR AE78
ENCODING 44664
SWIDTH 1020 0
DWIDTH 17 0
BBX 15 14 1 0
BITMAP
0022
7F22
FB26
1B26
1B3E
1B26
1B26
0026
0078
007C
0044
0044
00C4
007C
ENDCHAR
STARTCHAR AE79
ENCODING 44665
SWIDTH 1020 0
DWIDTH 17 0
BBX 15 15 1 0
BITMAP
0022
0E26
FF26
1B26
1B3E
1B26
1B26
1026
0084
0084
00AC
00FC
00CC
00DC
0078
ENDCHAR
STARTCHAR AE7A
ENCODING 44666
SWIDTH 960 0
DWIDTH 16 0
BBX 0 0 0 0
BITMAP
ENDCHAR
STARTCHAR AE7B
ENCODING 44667
SWIDTH 1020 0
DWIDTH 17 0
BBX 15 15 1 -1
BITMAP
0022
0E22
FF22
1B26
193E
1B26
1B26
1226
0000
0030
0030
0070
0058
00CC
0084
ENDCHAR
STARTCHAR AE7C
ENCODING 44668
SWIDTH 1020 0
DWIDTH 17 0
BBX 14 14 2 0
BITMAP
0044
1C44
FE64
3264
327C
3264
3264
2044
0200
0310
0730
07B8
04E8
0C4C
ENDCHAR
STARTCHAR AE7D
ENCODING 44669
SWIDTH 1020 0
DWIDTH 17 0
BBX 15 15 1 -1
BITMAP
0022
0622
FF22
1B32
193E
1B36
1B26
1222
0000
0038
006C
004C
0048
0078
0030
ENDCHAR
STARTCHAR AE7E
ENCODING 44670
SWIDTH 960 0
DWIDTH 16 0
BBX 0 0 0 0
BITMAP
ENDCHAR
STARTCHAR AE7F
ENCODING 44671
SWIDTH 960 0
DWIDTH 16 0
BBX 0 0 0 0
BITMAP
ENDCHAR
STARTCHAR AE80
ENCODING 44672
SWIDTH 960 0
DWIDTH 16 0
BBX 0 0 0 0
BITMAP
ENDCHAR
STARTCHAR AE81
ENCODING 44673
SWIDTH 960 0
DWIDTH 16 0
BBX 0 0 0 0
BITMAP
ENDCHAR
STARTCHAR AE82
ENCODING 44674
SWIDTH 960 0
DWIDTH 16 0
BBX 0 0 0 0
BITMAP
ENDCHAR
STARTCHAR AE83
ENCODING 44675
SWIDTH 960 0
DWIDTH 16 0
BBX 0 0 0 0
BITMAP
ENDCHAR
STARTCHAR AE84
ENCODING 44676
SWIDTH 1020 0
DWIDTH 17 0
BBX 17 12 1 1
BITMAP
001800
001800
001800
F79F00
F99B00
199800
199800
199F00
199F80
101800
001800
001800
ENDCHAR
STARTCHAR AE85
ENCODING 44677
SWIDTH 1020 0
DWIDTH 17 0
BBX 16 15 1 -1
BITMAP
0008
0408
F788
798B
198C
198C
198F
1108
0008
01F0
01F0
0010
0010
0010
0010
ENDCHAR
STARTCHAR AE86
ENCODING 44678
SWIDTH 900 0
DWIDTH 15 0
BBX 14 16 1 -3
BITMAP
FF30
FF30
19BC
313C
3330
633C
C63C
8C30
0030
0000
7DF0
7DF0
0430
0430
0430
0430
ENDCHAR
STARTCHAR AE87
ENCODING 44679
SWIDTH 960 0
DWIDTH 16 0
BBX 0 0 0 0
BITMAP
ENDCHAR
STARTCHAR AE88
ENCODING 44680
SWIDTH 960 0
DWIDTH 16 0
BBX 0 0 0 0
BITMAP
ENDCHAR
STARTCHAR AE89
ENCODING 44681
SWIDTH 960 0
DWIDTH 16 0
BBX 0 0 0 0
BITMAP
ENDCHAR
STARTCHAR AE8A
ENCODING 44682
SWIDTH 960 0
DWIDTH 16 0
BBX 0 0 0 0
BITMAP
ENDCHAR
STARTCHAR AE8B
ENCODING 44683
SWIDTH 960 0
DWIDTH 16 0
BBX 0 0 0 0
BITMAP
ENDCHAR
STARTCHAR AE8C
ENCODING 44684
SWIDTH 1020 0
DWIDTH 17 0
BBX 16 13 1 1
BITMAP
0008
0708
F788
198F
198C
198C
198F
110C
0008
0180
0180
00FC
00F8
ENDCHAR
STARTCHAR AE8D
ENCODING 44685
SWIDTH 900 0
DWIDTH 15 0
BBX 14 16 1 -3
BITMAP
FF30
FF3C
19BC
3130
333C
E63C
CE30
0430
0000
7FF0
7FF0
7E30
7E30
6030
7E30
3E30
ENDCHAR
STARTCHAR AE8E
ENCODING 44686
SWIDTH 960 0
DWIDTH 16 0
BBX 0 0 0 0
BITMAP
ENDCHAR
STARTCHAR AE8F
ENCODING 44687
SWIDTH 960 0
DWIDTH 16 0
BBX 0 0 0 0
BITMAP
ENDCHAR
STARTCHAR AE90
ENCODING 44688
SWIDTH 960 0
DWIDTH 16 0
BBX 0 0 0 0
BITMAP
ENDCHAR
STARTCHAR AE91
ENCODING 44689
SWIDTH 960 0
DWIDTH 16 0
BBX 0 0 0 0
BITMAP
ENDCHAR
STARTCHAR AE92
ENCODING 44690
SWIDTH 960 0
DWIDTH 16 0
BBX 0 0 0 0
BITMAP
ENDCHAR
STARTCHAR AE93
ENCODING 44691
SWIDTH 960 0
DWIDTH 16 0
BBX 0 0 0 0
BITMAP
ENDCHAR
STARTCHAR AE94
ENCODING 44692
SWIDTH 960 0
DWIDTH 16 0
BBX 0 0 0 0
BITMAP
ENDCHAR
STARTCHAR AE95
ENCODING 44693
SWIDTH 960 0
DWIDTH 16 0
BBX 0 0 0 0
BITMAP
ENDCHAR
STARTCHAR AE96
ENCODING 44694
SWIDTH 960 0
DWIDTH 16 0
BBX 0 0 0 0
BITMAP
ENDCHAR
STARTCHAR AE97
ENCODING 44695
SWIDTH 960 0
DWIDTH 16 0
BBX 0 0 0 0
BITMAP
ENDCHAR
STARTCHAR AE98
ENCODING 44696
SWIDTH 960 0
DWIDTH 16 0
BBX 0 0 0 0
BITMAP
ENDCHAR
STARTCHAR AE99
ENCODING 44697
SWIDTH 960 0
DWIDTH 16 0
BBX 0 0 0 0
BITMAP
ENDCHAR
STARTCHAR AE9A
ENCODING 44698
SWIDTH 960 0
DWIDTH 16 0
BBX 0 0 0 0
BITMAP
ENDCHAR
STARTCHAR AE9B
ENCODING 44699
SWIDTH 960 0
DWIDTH 16 0
BBX 0 0 0 0
BITMAP
ENDCHAR
STARTCHAR AE9C
ENCODING 44700
SWIDTH 960 0
DWIDTH 16 0
BBX 0 0 0 0
BITMAP
ENDCHAR
STARTCHAR AE9D
ENCODING 44701
SWIDTH 960 0
DWIDTH 16 0
BBX 0 0 0 0
BITMAP
ENDCHAR
STARTCHAR AE9E
ENCODING 44702
SWIDTH 960 0
DWIDTH 16 0
BBX 0 0 0 0
BITMAP
ENDCHAR
STARTCHAR AE9F
ENCODING 44703
SWIDTH 960 0
DWIDTH 16 0
BBX 0 0 0 0
BITMAP
ENDCHAR
STARTCHAR AEA0
ENCODING 44704
SWIDTH 900 0
DWIDTH 15 0
BBX 13 15 1 -2
BITMAP
00D8
FCD8
FED8
32F8
36F8
36D8
26D8
66F8
CCF8
CCD8
98D8
08D8
00D8
00D8
00D8
ENDCHAR
STARTCHAR AEA1
ENCODING 44705
SWIDTH 960 0
DWIDTH 16 0
BBX 0 0 0 0
BITMAP
ENDCHAR
STARTCHAR AEA2
ENCODING 44706
SWIDTH 960 0
DWIDTH 16 0
BBX 0 0 0 0
BITMAP
ENDCHAR
STARTCHAR AEA3
ENCODING 44707
SWIDTH 960 0
DWIDTH 16 0
BBX 0 0 0 0
BITMAP
ENDCHAR
STARTCHAR AEA4
ENCODING 44708
SWIDTH 960 0
DWIDTH 16 0
BBX 0 0 0 0
BITMAP
ENDCHAR
STARTCHAR AEA5
ENCODING 44709
SWIDTH 960 0
DWIDTH 16 0
BBX 0 0 0 0
BITMAP
ENDCHAR
STARTCHAR AEA6
ENCODING 44710
SWIDTH 960 0
DWIDTH 16 0
BBX 0 0 0 0
BITMAP
ENDCHAR
STARTCHAR AEA7
ENCODING 44711
SWIDTH 960 0
DWIDTH 16 0
BBX 0 0 0 0
BITMAP
ENDCHAR
STARTCHAR AEA8
ENCODING 44712
SWIDTH 960 0
DWIDTH 16 0
BBX 0 0 0 0
BITMAP
ENDCHAR
STARTCHAR AEA9
ENCODING 44713
SWIDTH 960 0
DWIDTH 16 0
BBX 0 0 0 0
BITMAP
ENDCHAR
STARTCHAR AEAA
ENCODING 44714
SWIDTH 960 0
DWIDTH 16 0
BBX 0 0 0 0
BITMAP
ENDCHAR
STARTCHAR AEAB
ENCODING 44715
SWIDTH 960 0
DWIDTH 16 0
BBX 0 0 0 0
BITMAP
ENDCHAR
STARTCHAR AEAC
ENCODING 44716
SWIDTH 960 0
DWIDTH 16 0
BBX 0 0 0 0
BITMAP
ENDCHAR
STARTCHAR AEAD
ENCODING 44717
SWIDTH 960 0
DWIDTH 16 0
BBX 0 0 0 0
BITMAP
ENDCHAR
STARTCHAR AEAE
ENCODING 44718
SWIDTH 960 0
DWIDTH 16 0
BBX 0 0 0 0
BITMAP
ENDCHAR
STARTCHAR AEAF
ENCODING 44719
SWIDTH 960 0
DWIDTH 16 0
BBX 0 0 0 0
BITMAP
ENDCHAR
STARTCHAR AEB0
ENCODING 44720
SWIDTH 960 0
DWIDTH 16 0
BBX 0 0 0 0
BITMAP
ENDCHAR
STARTCHAR AEB1
ENCODING 44721
SWIDTH 960 0
DWIDTH 16 0
BBX 0 0 0 0
BITMAP
ENDCHAR
STARTCHAR AEB2
ENCODING 44722
SWIDTH 960 0
DWIDTH 16 0
BBX 0 0 0 0
BITMAP
ENDCHAR
STARTCHAR AEB3
ENCODING 44723
SWIDTH 960 0
DWIDTH 16 0
BBX 0 0 0 0
BITMAP
ENDCHAR
STARTCHAR AEB4
ENCODING 44724
SWIDTH 960 0
DWIDTH 16 0
BBX 0 0 0 0
BITMAP
ENDCHAR
STARTCHAR AEB5
ENCODING 44725
SWIDTH 960 0
DWIDTH 16 0
BBX 0 0 0 0
BITMAP
ENDCHAR
STARTCHAR AEB6
ENCODING 44726
SWIDTH 960 0
DWIDTH 16 0
BBX 0 0 0 0
BITMAP
ENDCHAR
STARTCHAR AEB7
ENCODING 44727
SWIDTH 960 0
DWIDTH 16 0
BBX 0 0 0 0
BITMAP
ENDCHAR
STARTCHAR AEB8
ENCODING 44728
SWIDTH 960 0
DWIDTH 16 0
BBX 0 0 0 0
BITMAP
ENDCHAR
STARTCHAR AEB9
ENCODING 44729
SWIDTH 960 0
DWIDTH 16 0
BBX 0 0 0 0
BITMAP
ENDCHAR
STARTCHAR AEBA
ENCODING 44730
SWIDTH 960 0
DWIDTH 16 0
BBX 0 0 0 0
BITMAP
ENDCHAR
STARTCHAR AEBB
ENCODING 44731
SWIDTH 960 0
DWIDTH 16 0
BBX 0 0 0 0
BITMAP
ENDCHAR
STARTCHAR AEBC
ENCODING 44732
SWIDTH 960 0
DWIDTH 16 0
BBX 15 11 1 1
BITMAP
0004
0004
0706
FF86
198E
19BE
1986
1986
1886
0004
0004
ENDCHAR
STARTCHAR AEBD
ENCODING 44733
SWIDTH 960 0
DWIDTH 16 0
BBX 14 15 1 -1
BITMAP
000C
000C
670C
FF8C
19BC
19BC
198C
190C
100C
01F0
01F8
0018
0008
0008
0008
ENDCHAR
STARTCHAR AEBE
ENCODING 44734
SWIDTH 960 0
DWIDTH 16 0
BBX 14 15 1 -1
BITMAP
0008
060C
F78C
798C
19BC
19BC
198C
110C
000C
0078
0398
03C8
00C8
00C8
0080
ENDCHAR
STARTCHAR AEBF
ENCODING 44735
SWIDTH 960 0
DWIDTH 16 0
BBX 0 0 0 0
BITMAP
ENDCHAR
STARTCHAR AEC0
ENCODING 44736
SWIDTH 960 0
DWIDTH 16 0
BBX 14 14 1 0
BITMAP
000C
040C
F70C
798C
19BC
19BC
198C
110C
000C
0000
0100
0180
01F8
00F8
ENDCHAR
STARTCHAR AEC1
ENCODING 44737
SWIDTH 960 0
DWIDTH 16 0
BBX 0 0 0 0
BITMAP
ENDCHAR
STARTCHAR AEC2
ENCODING 44738
SWIDTH 960 0
DWIDTH 16 0
BBX 0 0 0 0
BITMAP
ENDCHAR
STARTCHAR AEC3
ENCODING 44739
SWIDTH 960 0
DWIDTH 16 0
BBX 0 0 0 0
BITMAP
ENDCHAR
STARTCHAR AEC4
ENCODING 44740
SWIDTH 960 0
DWIDTH 16 0
BBX 14 18 1 -2
BITMAP
0004
000C
770C
FF8C
19BC
19BC
198C
198C
0004
00F8
0098
0008
0018
0070
00C0
00C0
00FC
0078
ENDCHAR
STARTCHAR AEC5
ENCODING 44741
SWIDTH 960 0
DWIDTH 16 0
BBX 0 0 0 0
BITMAP
ENDCHAR
STARTCHAR AEC6
ENCODING 44742
SWIDTH 960 0
DWIDTH 16 0
BBX 0 0 0 0
BITMAP
ENDCHAR
STARTCHAR AEC7
ENCODING 44743
SWIDTH 960 0
DWIDTH 16 0
BBX 0 0 0 0
BITMAP
ENDCHAR
STARTCHAR AEC8
ENCODING 44744
SWIDTH 960 0
DWIDTH 16 0
BBX 0 0 0 0
BITMAP
ENDCHAR
STARTCHAR AEC9
ENCODING 44745
SWIDTH 960 0
DWIDTH 16 0
BBX 0 0 0 0
BITMAP
ENDCHAR
STARTCHAR AECA
ENCODING 44746
SWIDTH 960 0
DWIDTH 16 0
BBX 0 0 0 0
BITMAP
ENDCHAR
STARTCHAR AECB
ENCODING 44747
SWIDTH 960 0
DWIDTH 16 0
BBX 0 0 0 0
BITMAP
ENDCHAR
STARTCHAR AECC
ENCODING 44748
SWIDTH 960 0
DWIDTH 16 0
BBX 14 15 1 -1
BITMAP
060C
478C
F98C
198C
19BC
198C
190C
100C
0080
00F8
0098
0088
0188
01F8
00F8
ENDCHAR
STARTCHAR AECD
ENCODING 44749
SWIDTH 960 0
DWIDTH 16 0
BBX 14 15 1 -1
BITMAP
0004
070C
FF8C
198C
19BC
198C
198C
100C
0108
0188
01D8
01F8
0198
01B8
00F0
ENDCHAR
STARTCHAR AECE
ENCODING 44750
SWIDTH 960 0
DWIDTH 16 0
BBX 0 0 0 0
BITMAP
ENDCHAR
STARTCHAR AECF
ENCODING 44751
SWIDTH 960 0
DWIDTH 16 0
BBX 14 13 1 0
BITMAP
000C
F70C
798C
198C
19BC
198C
190C
006C
0060
00E0
01B0
0198
0108
ENDCHAR
STARTCHAR AED0
ENCODING 44752
SWIDTH 960 0
DWIDTH 16 0
BBX 15 15 1 -1
BITMAP
0008
060C
F78C
798C
19BC
19BC
198C
110C
000C
0110
0398
03B8
02FC
0626
0464
ENDCHAR
STARTCHAR AED1
ENCODING 44753
SWIDTH 960 0
DWIDTH 16 0
BBX 14 15 1 -1
BITMAP
0008
060C
F78C
798C
19BC
19BC
198C
190C
0024
0070
00D8
00D8
00D8
00F0
0060
ENDCHAR
STARTCHAR AED2
ENCODING 44754
SWIDTH 960 0
DWIDTH 16 0
BBX 0 0 0 0
BITMAP
ENDCHAR
STARTCHAR AED3
ENCODING 44755
SWIDTH 960 0
DWIDTH 16 0
BBX 0 0 0 0
BITMAP
ENDCHAR
STARTCHAR AED4
ENCODING 44756
SWIDTH 960 0
DWIDTH 16 0
BBX 0 0 0 0
BITMAP
ENDCHAR
STARTCHAR AED5
ENCODING 44757
SWIDTH 960 0
DWIDTH 16 0
BBX 0 0 0 0
BITMAP
ENDCHAR
STARTCHAR AED6
ENCODING 44758
SWIDTH 960 0
DWIDTH 16 0
BBX 0 0 0 0
BITMAP
ENDCHAR
STARTCHAR AED7
ENCODING 44759
SWIDTH 960 0
DWIDTH 16 0
BBX 0 0 0 0
BITMAP
ENDCHAR
STARTCHAR AED8
ENCODING 44760
SWIDTH 960 0
DWIDTH 16 0
BBX 15 11 1 2
BITMAP
0004
0036
0036
FE36
F636
32F6
3276
3236
3636
2036
0034
ENDCHAR
STARTCHAR AED9
ENCODING 44761
SWIDTH 1020 0
DWIDTH 17 0
BBX 15 14 1 -1
BITMAP
0016
0E16
FF16
1B16
1B76
1B16
1B16
1016
00F8
00FC
000C
000C
000C
0004
ENDCHAR
STARTCHAR AEDA
ENCODING 44762
SWIDTH 960 0
DWIDTH 16 0
BBX 0 0 0 0
BITMAP
ENDCHAR
STARTCHAR AEDB
ENCODING 44763
SWIDTH 960 0
DWIDTH 16 0
BBX 0 0 0 0
BITMAP
ENDCHAR
STARTCHAR AEDC
ENCODING 44764
SWIDTH 1020 0
DWIDTH 17 0
BBX 15 13 1 0
BITMAP
0012
0012
FF1E
7B1A
197A
1B7A
1B1A
191A
0012
00C0
00C0
00FC
007C
ENDCHAR
STARTCHAR AEDD
ENCODING 44765
SWIDTH 960 0
DWIDTH 16 0
BBX 0 0 0 0
BITMAP
ENDCHAR
STARTCHAR AEDE
ENCODING 44766
SWIDTH 960 0
DWIDTH 16 0
BBX 0 0 0 0
BITMAP
ENDCHAR
STARTCHAR AEDF
ENCODING 44767
SWIDTH 960 0
DWIDTH 16 0
BBX 0 0 0 0
BITMAP
ENDCHAR
STARTCHAR AEE0
ENCODING 44768
SWIDTH 960 0
DWIDTH 16 0
BBX 0 0 0 0
BITMAP
ENDCHAR
STARTCHAR AEE1
ENCODING 44769
SWIDTH 960 0
DWIDTH 16 0
BBX 0 0 0 0
BITMAP
ENDCHAR
STARTCHAR AEE2
ENCODING 44770
SWIDTH 960 0
DWIDTH 16 0
BBX 0 0 0 0
BITMAP
ENDCHAR
STARTCHAR AEE3
ENCODING 44771
SWIDTH 960 0
DWIDTH 16 0
BBX 0 0 0 0
BITMAP
ENDCHAR
STARTCHAR AEE4
ENCODING 44772
SWIDTH 960 0
DWIDTH 16 0
BBX 0 0 0 0
BITMAP
ENDCHAR
STARTCHAR AEE5
ENCODING 44773
SWIDTH 960 0
DWIDTH 16 0
BBX 0 0 0 0
BITMAP
ENDCHAR
STARTCHAR AEE6
ENCODING 44774
SWIDTH 960 0
DWIDTH 16 0
BBX 0 0 0 0
BITMAP
ENDCHAR
STARTCHAR AEE7
ENCODING 44775
SWIDTH 960 0
DWIDTH 16 0
BBX 0 0 0 0
BITMAP
ENDCHAR
STARTCHAR AEE8
ENCODING 44776
SWIDTH 1020 0
DWIDTH 17 0
BBX 15 15 1 -1
BITMAP
0016
0016
FE16
FB16
1B76
1B76
1B16
1216
0016
00F8
00FC
00CC
00CC
00CC
00F8
ENDCHAR
STARTCHAR AEE9
ENCODING 44777
SWIDTH 960 0
DWIDTH 16 0
BBX 0 0 0 0
BITMAP
ENDCHAR
STARTCHAR AEEA
ENCODING 44778
SWIDTH 960 0
DWIDTH 16 0
BBX 0 0 0 0
BITMAP
ENDCHAR
STARTCHAR AEEB
ENCODING 44779
SWIDTH 1020 0
DWIDTH 17 0
BBX 15 14 1 -1
BITMAP
0016
4E16
FF1E
1B1E
1B7E
1B1E
1B1E
1012
0020
0060
00F0
00D8
008C
0184
ENDCHAR
STARTCHAR AEEC
ENCODING 44780
SWIDTH 960 0
DWIDTH 16 0
BBX 0 0 0 0
BITMAP
ENDCHAR
STARTCHAR AEED
ENCODING 44781
SWIDTH 1020 0
DWIDTH 17 0
BBX 15 15 1 -1
BITMAP
0004
0016
6E16
FF16
1B7E
1B7E
1B1E
1B16
0002
0030
0078
00C8
00C8
00F8
0070
ENDCHAR
STARTCHAR AEEE
ENCODING 44782
SWIDTH 960 0
DWIDTH 16 0
BBX 0 0 0 0
BITMAP
ENDCHAR
STARTCHAR AEEF
ENCODING 44783
SWIDTH 960 0
DWIDTH 16 0
BBX 0 0 0 0
BITMAP
ENDCHAR
STARTCHAR AEF0
ENCODING 44784
SWIDTH 960 0
DWIDTH 16 0
BBX 0 0 0 0
BITMAP
ENDCHAR
STARTCHAR AEF1
ENCODING 44785
SWIDTH 960 0
DWIDTH 16 0
BBX 0 0 0 0
BITMAP
ENDCHAR
STARTCHAR AEF2
ENCODING 44786
SWIDTH 960 0
DWIDTH 16 0
BBX 0 0 0 0
BITMAP
ENDCHAR
STARTCHAR AEF3
ENCODING 44787
SWIDTH 960 0
DWIDTH 16 0
BBX 0 0 0 0
BITMAP
ENDCHAR
STARTCHAR AEF4
ENCODING 44788
SWIDTH 1020 0
DWIDTH 17 0
BBX 15 11 1 1
BITMAP
0006
0006
7786
FBBE
18BE
1886
198E
19BE
1906
0006
0006
ENDCHAR
STARTCHAR AEF5
ENCODING 44789
SWIDTH 960 0
DWIDTH 16 0
BBX 0 0 0 0
BITMAP
ENDCHAR
STARTCHAR AEF6
ENCODING 44790
SWIDTH 960 0
DWIDTH 16 0
BBX 0 0 0 0
BITMAP
ENDCHAR
STARTCHAR AEF7
ENCODING 44791
SWIDTH 960 0
DWIDTH 16 0
BBX 0 0 0 0
BITMAP
ENDCHAR
STARTCHAR AEF8
ENCODING 44792
SWIDTH 960 0
DWIDTH 16 0
BBX 15 14 1 0
BITMAP
0004
0006
7706
FBB6
1986
1986
19BE
193E
0004
0004
0080
0180
00CC
00FC
ENDCHAR
STARTCHAR AEF9
ENCODING 44793
SWIDTH 960 0
DWIDTH 16 0
BBX 0 0 0 0
BITMAP
ENDCHAR
STARTCHAR AEFA
ENCODING 44794
SWIDTH 960 0
DWIDTH 16 0
BBX 0 0 0 0
BITMAP
ENDCHAR
STARTCHAR AEFB
ENCODING 44795
SWIDTH 960 0
DWIDTH 16 0
BBX 0 0 0 0
BITMAP
ENDCHAR
STARTCHAR AEFC
ENCODING 44796
SWIDTH 1020 0
DWIDTH 17 0
BBX 15 17 1 -2
BITMAP
0006
0206
F7BE
7986
1986
19BE
19BE
0006
007C
004C
000C
001C
0078
00E0
00C0
007E
003C
ENDCHAR
STARTCHAR AEFD
ENCODING 44797
SWIDTH 960 0
DWIDTH 16 0
BBX 0 0 0 0
BITMAP
ENDCHAR
STARTCHAR AEFE
ENCODING 44798
SWIDTH 960 0
DWIDTH 16 0
BBX 0 0 0 0
BITMAP
ENDCHAR
STARTCHAR AEFF
ENCODING 44799
SWIDTH 960 0
DWIDTH 16 0
BBX 0 0 0 0
BITMAP
ENDCHAR
STARTCHAR AF00
ENCODING 44800
SWIDTH 960 0
DWIDTH 16 0
BBX 0 0 0 0
BITMAP
ENDCHAR
STARTCHAR AF01
ENCODING 44801
SWIDTH 960 0
DWIDTH 16 0
BBX 0 0 0 0
BITMAP
ENDCHAR
STARTCHAR AF02
ENCODING 44802
SWIDTH 960 0
DWIDTH 16 0
BBX 0 0 0 0
BITMAP
ENDCHAR
STARTCHAR AF03
ENCODING 44803
SWIDTH 960 0
DWIDTH 16 0
BBX 0 0 0 0
BITMAP
ENDCHAR
STARTCHAR AF04
ENCODING 44804
SWIDTH 960 0
DWIDTH 16 0
BBX 0 0 0 0
BITMAP
ENDCHAR
STARTCHAR AF05
ENCODING 44805
SWIDTH 960 0
DWIDTH 16 0
BBX 0 0 0 0
BITMAP
ENDCHAR
STARTCHAR AF06
ENCODING 44806
SWIDTH 960 0
DWIDTH 16 0
BBX 0 0 0 0
BITMAP
ENDCHAR
STARTCHAR AF07
ENCODING 44807
SWIDTH 960 0
DWIDTH 16 0
BBX 15 15 1 -1
BITMAP
0006
0006
F796
79BE
1986
1986
19BE
1916
0006
0024
0030
0070
0058
00CC
0084
ENDCHAR
STARTCHAR AF08
ENCODING 44808
SWIDTH 1020 0
DWIDTH 17 0
BBX 15 16 1 -1
BITMAP
0006
0006
0706
FFBE
1996
1986
19BE
19BE
1906
0006
0180
0188
01D8
03FC
0376
0222
ENDCHAR
STARTCHAR AF09
ENCODING 44809
SWIDTH 960 0
DWIDTH 16 0
BBX 0 0 0 0
BITMAP
ENDCHAR
STARTCHAR AF0A
ENCODING 44810
SWIDTH 960 0
DWIDTH 16 0
BBX 0 0 0 0
BITMAP
ENDCHAR
STARTCHAR AF0B
ENCODING 44811
SWIDTH 960 0
DWIDTH 16 0
BBX 0 0 0 0
BITMAP
ENDCHAR
STARTCHAR AF0C
ENCODING 44812
SWIDTH 960 0
DWIDTH 16 0
BBX 0 0 0 0
BITMAP
ENDCHAR
STARTCHAR AF0D
ENCODING 44813
SWIDTH 960 0
DWIDTH 16 0
BBX 15 17 1 -2
BITMAP
0004
0006
7706
FBB6
1986
1986
19BE
1916
0004
01FC
01F8
0180
01F8
01F8
0180
00F8
00F8
ENDCHAR
STARTCHAR AF0E
ENCODING 44814
SWIDTH 960 0
DWIDTH 16 0
BBX 0 0 0 0
BITMAP
ENDCHAR
STARTCHAR AF0F
ENCODING 44815
SWIDTH 960 0
DWIDTH 16 0
BBX 0 0 0 0
BITMAP
ENDCHAR
STARTCHAR AF10
ENCODING 44816
SWIDTH 1080 0
DWIDTH 18 0
BBX 17 12 1 1
BITMAP
000900
000900
000D80
7F2D80
FB6D80
1B0D80
1B0D80
1B3D80
1B7D80
100980
000980
000980
ENDCHAR
STARTCHAR AF11
ENCODING 44817
SWIDTH 960 0
DWIDTH 16 0
BBX 0 0 0 0
BITMAP
ENDCHAR
STARTCHAR AF12
ENCODING 44818
SWIDTH 960 0
DWIDTH 16 0
BBX 0 0 0 0
BITMAP
ENDCHAR
STARTCHAR AF13
ENCODING 44819
SWIDTH 960 0
DWIDTH 16 0
BBX 0 0 0 0
BITMAP
ENDCHAR
STARTCHAR AF14
ENCODING 44820
SWIDTH 960 0
DWIDTH 16 0
BBX 0 0 0 0
BITMAP
ENDCHAR
STARTCHAR AF15
ENCODING 44821
SWIDTH 960 0
DWIDTH 16 0
BBX 0 0 0 0
BITMAP
ENDCHAR
STARTCHAR AF16
ENCODING 44822
SWIDTH 960 0
DWIDTH 16 0
BBX 0 0 0 0
BITMAP
ENDCHAR
STARTCHAR AF17
ENCODING 44823
SWIDTH 960 0
DWIDTH 16 0
BBX 0 0 0 0
BITMAP
ENDCHAR
STARTCHAR AF18
ENCODING 44824
SWIDTH 960 0
DWIDTH 16 0
BBX 0 0 0 0
BITMAP
ENDCHAR
STARTCHAR AF19
ENCODING 44825
SWIDTH 960 0
DWIDTH 16 0
BBX 0 0 0 0
BITMAP
ENDCHAR
STARTCHAR AF1A
ENCODING 44826
SWIDTH 960 0
DWIDTH 16 0
BBX 0 0 0 0
BITMAP
ENDCHAR
STARTCHAR AF1B
ENCODING 44827
SWIDTH 960 0
DWIDTH 16 0
BBX 0 0 0 0
BITMAP
ENDCHAR
STARTCHAR AF1C
ENCODING 44828
SWIDTH 960 0
DWIDTH 16 0
BBX 0 0 0 0
BITMAP
ENDCHAR
STARTCHAR AF1D
ENCODING 44829
SWIDTH 960 0
DWIDTH 16 0
BBX 0 0 0 0
BITMAP
ENDCHAR
STARTCHAR AF1E
ENCODING 44830
SWIDTH 960 0
DWIDTH 16 0
BBX 0 0 0 0
BITMAP
ENDCHAR
STARTCHAR AF1F
ENCODING 44831
SWIDTH 960 0
DWIDTH 16 0
BBX 0 0 0 0
BITMAP
ENDCHAR
STARTCHAR AF20
ENCODING 44832
SWIDTH 960 0
DWIDTH 16 0
BBX 0 0 0 0
BITMAP
ENDCHAR
STARTCHAR AF21
ENCODING 44833
SWIDTH 960 0
DWIDTH 16 0
BBX 0 0 0 0
BITMAP
ENDCHAR
STARTCHAR AF22
ENCODING 44834
SWIDTH 960 0
DWIDTH 16 0
BBX 0 0 0 0
BITMAP
ENDCHAR
STARTCHAR AF23
ENCODING 44835
SWIDTH 960 0
DWIDTH 16 0
BBX 0 0 0 0
BITMAP
ENDCHAR
STARTCHAR AF24
ENCODING 44836
SWIDTH 960 0
DWIDTH 16 0
BBX 0 0 0 0
BITMAP
ENDCHAR
STARTCHAR AF25
ENCODING 44837
SWIDTH 960 0
DWIDTH 16 0
BBX 0 0 0 0
BITMAP
ENDCHAR
STARTCHAR AF26
ENCODING 44838
SWIDTH 960 0
DWIDTH 16 0
BBX 0 0 0 0
BITMAP
ENDCHAR
STARTCHAR AF27
ENCODING 44839
SWIDTH 960 0
DWIDTH 16 0
BBX 0 0 0 0
BITMAP
ENDCHAR
STARTCHAR AF28
ENCODING 44840
SWIDTH 960 0
DWIDTH 16 0
BBX 0 0 0 0
BITMAP
ENDCHAR
STARTCHAR AF29
ENCODING 44841
SWIDTH 960 0
DWIDTH 16 0
BBX 0 0 0 0
BITMAP
ENDCHAR
STARTCHAR AF2A
ENCODING 44842
SWIDTH 960 0
DWIDTH 16 0
BBX 0 0 0 0
BITMAP
ENDCHAR
STARTCHAR AF2B
ENCODING 44843
SWIDTH 960 0
DWIDTH 16 0
BBX 0 0 0 0
BITMAP
ENDCHAR
STARTCHAR AF2C
ENCODING 44844
SWIDTH 780 0
DWIDTH 13 0
BBX 12 12 1 1
BITMAP
0700
77C0
F8C0
0CC0
08C0
0880
0A00
0200
0600
0600
7FF0
1F80
ENDCHAR
STARTCHAR AF2D
ENCODING 44845
SWIDTH 780 0
DWIDTH 13 0
BBX 12 17 1 -3
BITMAP
0700
F7C0
78C0
0CC0
0AC0
0E80
0600
7FF0
7FE0
0000
0000
1F00
1F80
0180
0080
0080
0080
ENDCHAR
STARTCHAR AF2E
ENCODING 44846
SWIDTH 960 0
DWIDTH 16 0
BBX 0 0 0 0
BITMAP
ENDCHAR
STARTCHAR AF2F
ENCODING 44847
SWIDTH 960 0
DWIDTH 16 0
BBX 0 0 0 0
BITMAP
ENDCHAR
STARTCHAR AF30
ENCODING 44848
SWIDTH 780 0
DWIDTH 13 0
BBX 12 15 1 -1
BITMAP
0780
FBC0
38C0
18C0
1880
1E00
0600
0600
7FF0
3FC0
0000
0800
1800
0FC0
0F80
ENDCHAR
STARTCHAR AF31
ENCODING 44849
SWIDTH 960 0
DWIDTH 16 0
BBX 0 0 0 0
BITMAP
ENDCHAR
STARTCHAR AF32
ENCODING 44850
SWIDTH 780 0
DWIDTH 13 0
BBX 11 18 2 -3
BITMAP
0700
F780
F980
1980
1980
1C80
0400
0400
FFE0
7FC0
0100
0180
2060
27E0
2180
2140
3F40
1980
ENDCHAR
STARTCHAR AF33
ENCODING 44851
SWIDTH 960 0
DWIDTH 16 0
BBX 0 0 0 0
BITMAP
ENDCHAR
STARTCHAR AF34
ENCODING 44852
SWIDTH 780 0
DWIDTH 13 0
BBX 11 20 2 -4
BITMAP
0F80
F380
3980
1980
1180
1400
0400
0C00
FFE0
1E00
0000
0F00
0980
0180
0300
0F00
1800
1800
1F80
0F80
ENDCHAR
STARTCHAR AF35
ENCODING 44853
SWIDTH 960 0
DWIDTH 16 0
BBX 0 0 0 0
BITMAP
ENDCHAR
STARTCHAR AF36
ENCODING 44854
SWIDTH 960 0
DWIDTH 16 0
BBX 0 0 0 0
BITMAP
ENDCHAR
STARTCHAR AF37
ENCODING 44855
SWIDTH 960 0
DWIDTH 16 0
BBX 0 0 0 0
BITMAP
ENDCHAR
STARTCHAR AF38
ENCODING 44856
SWIDTH 960 0
DWIDTH 16 0
BBX 0 0 0 0
BITMAP
ENDCHAR
STARTCHAR AF39
ENCODING 44857
SWIDTH 960 0
DWIDTH 16 0
BBX 0 0 0 0
BITMAP
ENDCHAR
STARTCHAR AF3A
ENCODING 44858
SWIDTH 960 0
DWIDTH 16 0
BBX 0 0 0 0
BITMAP
ENDCHAR
STARTCHAR AF3B
ENCODING 44859
SWIDTH 960 0
DWIDTH 16 0
BBX 0 0 0 0
BITMAP
ENDCHAR
STARTCHAR AF3C
ENCODING 44860
SWIDTH 780 0
DWIDTH 13 0
BBX 12 17 1 -2
BITMAP
0700
77C0
F8C0
0CC0
08C0
0A80
0200
0600
7FF0
7FE0
0000
0E00
0FC0
0CC0
0CC0
0CC0
0FC0
ENDCHAR
STARTCHAR AF3D
ENCODING 44861
SWIDTH 780 0
DWIDTH 13 0
BBX 12 18 1 -3
BITMAP
0700
77C0
F8C0
0CC0
08C0
0A80
0600
0600
7FF0
7FF0
0000
0840
08C0
0AC0
0BC0
0CC0
0D80
0780
ENDCHAR
STARTCHAR AF3E
ENCODING 44862
SWIDTH 960 0
DWIDTH 16 0
BBX 0 0 0 0
BITMAP
ENDCHAR
STARTCHAR AF3F
ENCODING 44863
SWIDTH 780 0
DWIDTH 13 0
BBX 12 18 1 -3
BITMAP
0200
7780
F8C0
18C0
08C0
0A80
0E00
0600
7FF0
7FE0
0000
0000
0200
0600
0700
0D80
0CC0
0840
ENDCHAR
STARTCHAR AF40
ENCODING 44864
SWIDTH 960 0
DWIDTH 16 0
BBX 0 0 0 0
BITMAP
ENDCHAR
STARTCHAR AF41
ENCODING 44865
SWIDTH 720 0
DWIDTH 12 0
BBX 11 17 1 -2
BITMAP
0400
6780
F980
1880
1880
1880
1600
0600
4660
FFE0
0000
0600
0F00
0D80
0980
0900
0F00
ENDCHAR
STARTCHAR AF42
ENCODING 44866
SWIDTH 720 0
DWIDTH 12 0
BBX 12 17 1 -3
BITMAP
4780
F9C0
1CC0
08C0
0880
0E00
0600
0600
7FF0
0000
0000
0F80
0180
0300
0700
0D80
0880
ENDCHAR
STARTCHAR AF43
ENCODING 44867
SWIDTH 720 0
DWIDTH 12 0
BBX 12 18 1 -3
BITMAP
4780
F9C0
18C0
1880
1880
1600
0600
8620
7FF0
0000
0600
0200
0700
0F80
0100
0300
0780
0D80
ENDCHAR
STARTCHAR AF44
ENCODING 44868
SWIDTH 960 0
DWIDTH 16 0
BBX 0 0 0 0
BITMAP
ENDCHAR
STARTCHAR AF45
ENCODING 44869
SWIDTH 960 0
DWIDTH 16 0
BBX 0 0 0 0
BITMAP
ENDCHAR
STARTCHAR AF46
ENCODING 44870
SWIDTH 960 0
DWIDTH 16 0
BBX 0 0 0 0
BITMAP
ENDCHAR
STARTCHAR AF47
ENCODING 44871
SWIDTH 960 0
DWIDTH 16 0
BBX 0 0 0 0
BITMAP
ENDCHAR
STARTCHAR AF48
ENCODING 44872
SWIDTH 960 0
DWIDTH 16 0
BBX 16 12 1 2
BITMAP
0010
0018
0F98
F398
1998
1998
1998
1C1F
061C
06D8
3FD8
0018
ENDCHAR
STARTCHAR AF49
ENCODING 44873
SWIDTH 1020 0
DWIDTH 17 0
BBX 16 15 1 -1
BITMAP
0008
0F08
F788
798C
198C
198C
1C0F
040F
1FCC
3F08
00F8
0078
000C
000C
0008
ENDCHAR
STARTCHAR AF4A
ENCODING 44874
SWIDTH 960 0
DWIDTH 16 0
BBX 0 0 0 0
BITMAP
ENDCHAR
STARTCHAR AF4B
ENCODING 44875
SWIDTH 960 0
DWIDTH 16 0
BBX 0 0 0 0
BITMAP
ENDCHAR
STARTCHAR AF4C
ENCODING 44876
SWIDTH 960 0
DWIDTH 16 0
BBX 0 0 0 0
BITMAP
ENDCHAR
STARTCHAR AF4D
ENCODING 44877
SWIDTH 960 0
DWIDTH 16 0
BBX 0 0 0 0
BITMAP
ENDCHAR
STARTCHAR AF4E
ENCODING 44878
SWIDTH 960 0
DWIDTH 16 0
BBX 0 0 0 0
BITMAP
ENDCHAR
STARTCHAR AF4F
ENCODING 44879
SWIDTH 960 0
DWIDTH 16 0
BBX 0 0 0 0
BITMAP
ENDCHAR
STARTCHAR AF50
ENCODING 44880
SWIDTH 1020 0
DWIDTH 17 0
BBX 16 19 1 -3
BITMAP
0008
040C
678C
F98C
198C
198C
198F
0E0F
06CC
1F80
0078
009C
000C
0018
0078
00C0
00C0
00FC
007C
ENDCHAR
STARTCHAR AF51
ENCODING 44881
SWIDTH 960 0
DWIDTH 16 0
BBX 0 0 0 0
BITMAP
ENDCHAR
STARTCHAR AF52
ENCODING 44882
SWIDTH 960 0
DWIDTH 16 0
BBX 0 0 0 0
BITMAP
ENDCHAR
STARTCHAR AF53
ENCODING 44883
SWIDTH 960 0
DWIDTH 16 0
BBX 0 0 0 0
BITMAP
ENDCHAR
STARTCHAR AF54
ENCODING 44884
SWIDTH 960 0
DWIDTH 16 0
BBX 0 0 0 0
BITMAP
ENDCHAR
STARTCHAR AF55
ENCODING 44885
SWIDTH 960 0
DWIDTH 16 0
BBX 0 0 0 0
BITMAP
ENDCHAR
STARTCHAR AF56
ENCODING 44886
SWIDTH 960 0
DWIDTH 16 0
BBX 0 0 0 0
BITMAP
ENDCHAR
STARTCHAR AF57
ENCODING 44887
SWIDTH 960 0
DWIDTH 16 0
BBX 0 0 0 0
BITMAP
ENDCHAR
STARTCHAR AF58
ENCODING 44888
SWIDTH 960 0
DWIDTH 16 0
BBX 0 0 0 0
BITMAP
ENDCHAR
STARTCHAR AF59
ENCODING 44889
SWIDTH 960 0
DWIDTH 16 0
BBX 0 0 0 0
BITMAP
ENDCHAR
STARTCHAR AF5A
ENCODING 44890
SWIDTH 960 0
DWIDTH 16 0
BBX 0 0 0 0
BITMAP
ENDCHAR
STARTCHAR AF5B
ENCODING 44891
SWIDTH 960 0
DWIDTH 16 0
BBX 0 0 0 0
BITMAP
ENDCHAR
STARTCHAR AF5C
ENCODING 44892
SWIDTH 960 0
DWIDTH 16 0
BBX 16 16 1 -1
BITMAP
0008
0F08
F788
798C
198C
198C
1C0F
040F
07CC
3F88
0180
0188
01D8
037C
0336
0222
ENDCHAR
STARTCHAR AF5D
ENCODING 44893
SWIDTH 1020 0
DWIDTH 17 0
BBX 16 16 1 -1
BITMAP
0008
0F8C
FB8C
198C
198C
198C
1C0F
060F
07CC
1F8C
0070
00F8
00D8
00D8
00F8
0070
ENDCHAR
STARTCHAR AF5E
ENCODING 44894
SWIDTH 960 0
DWIDTH 16 0
BBX 0 0 0 0
BITMAP
ENDCHAR
STARTCHAR AF5F
ENCODING 44895
SWIDTH 960 0
DWIDTH 16 0
BBX 0 0 0 0
BITMAP
ENDCHAR
STARTCHAR AF60
ENCODING 44896
SWIDTH 960 0
DWIDTH 16 0
BBX 0 0 0 0
BITMAP
ENDCHAR
STARTCHAR AF61
ENCODING 44897
SWIDTH 960 0
DWIDTH 16 0
BBX 0 0 0 0
BITMAP
ENDCHAR
STARTCHAR AF62
ENCODING 44898
SWIDTH 960 0
DWIDTH 16 0
BBX 0 0 0 0
BITMAP
ENDCHAR
STARTCHAR AF63
ENCODING 44899
SWIDTH 960 0
DWIDTH 16 0
BBX 0 0 0 0
BITMAP
ENDCHAR
STARTCHAR AF64
ENCODING 44900
SWIDTH 1020 0
DWIDTH 17 0
BBX 16 11 1 2
BITMAP
0020
0733
FFB2
F9B2
19B2
19B2
1D3E
0432
0632
3FF2
3F12
ENDCHAR
STARTCHAR AF65
ENCODING 44901
SWIDTH 1020 0
DWIDTH 17 0
BBX 15 14 1 -1
BITMAP
0F22
F7B2
39B2
19B2
19BE
153E
0436
3FF6
1E7C
007E
0006
0006
0006
0004
ENDCHAR
STARTCHAR AF66
ENCODING 44902
SWIDTH 960 0
DWIDTH 16 0
BBX 0 0 0 0
BITMAP
ENDCHAR
STARTCHAR AF67
ENCODING 44903
SWIDTH 960 0
DWIDTH 16 0
BBX 0 0 0 0
BITMAP
ENDCHAR
STARTCHAR AF68
ENCODING 44904
SWIDTH 960 0
DWIDTH 16 0
BBX 0 0 0 0
BITMAP
ENDCHAR
STARTCHAR AF69
ENCODING 44905
SWIDTH 960 0
DWIDTH 16 0
BBX 0 0 0 0
BITMAP
ENDCHAR
STARTCHAR AF6A
ENCODING 44906
SWIDTH 960 0
DWIDTH 16 0
BBX 0 0 0 0
BITMAP
ENDCHAR
STARTCHAR AF6B
ENCODING 44907
SWIDTH 960 0
DWIDTH 16 0
BBX 0 0 0 0
BITMAP
ENDCHAR
STARTCHAR AF6C
ENCODING 44908
SWIDTH 960 0
DWIDTH 16 0
BBX 0 0 0 0
BITMAP
ENDCHAR
STARTCHAR AF6D
ENCODING 44909
SWIDTH 960 0
DWIDTH 16 0
BBX 0 0 0 0
BITMAP
ENDCHAR
STARTCHAR AF6E
ENCODING 44910
SWIDTH 960 0
DWIDTH 16 0
BBX 0 0 0 0
BITMAP
ENDCHAR
STARTCHAR AF6F
ENCODING 44911
SWIDTH 960 0
DWIDTH 16 0
BBX 0 0 0 0
BITMAP
ENDCHAR
STARTCHAR AF70
ENCODING 44912
SWIDTH 960 0
DWIDTH 16 0
BBX 0 0 0 0
BITMAP
ENDCHAR
STARTCHAR AF71
ENCODING 44913
SWIDTH 960 0
DWIDTH 16 0
BBX 0 0 0 0
BITMAP
ENDCHAR
STARTCHAR AF72
ENCODING 44914
SWIDTH 960 0
DWIDTH 16 0
BBX 0 0 0 0
BITMAP
ENDCHAR
STARTCHAR AF73
ENCODING 44915
SWIDTH 960 0
DWIDTH 16 0
BBX 0 0 0 0
BITMAP
ENDCHAR
STARTCHAR AF74
ENCODING 44916
SWIDTH 960 0
DWIDTH 16 0
BBX 0 0 0 0
BITMAP
ENDCHAR
STARTCHAR AF75
ENCODING 44917
SWIDTH 960 0
DWIDTH 16 0
BBX 0 0 0 0
BITMAP
ENDCHAR
STARTCHAR AF76
ENCODING 44918
SWIDTH 960 0
DWIDTH 16 0
BBX 0 0 0 0
BITMAP
ENDCHAR
STARTCHAR AF77
ENCODING 44919
SWIDTH 960 0
DWIDTH 16 0
BBX 0 0 0 0
BITMAP
ENDCHAR
STARTCHAR AF78
ENCODING 44920
SWIDTH 960 0
DWIDTH 16 0
BBX 0 0 0 0
BITMAP
ENDCHAR
STARTCHAR AF79
ENCODING 44921
SWIDTH 1020 0
DWIDTH 17 0
BBX 15 15 1 -1
BITMAP
0022
0F32
FBB2
19B6
19B6
193E
1436
06B6
3FE2
0018
003C
006C
006C
006C
0038
ENDCHAR
STARTCHAR AF7A
ENCODING 44922
SWIDTH 960 0
DWIDTH 16 0
BBX 0 0 0 0
BITMAP
ENDCHAR
STARTCHAR AF7B
ENCODING 44923
SWIDTH 960 0
DWIDTH 16 0
BBX 0 0 0 0
BITMAP
ENDCHAR
STARTCHAR AF7C
ENCODING 44924
SWIDTH 960 0
DWIDTH 16 0
BBX 0 0 0 0
BITMAP
ENDCHAR
STARTCHAR AF7D
ENCODING 44925
SWIDTH 960 0
DWIDTH 16 0
BBX 0 0 0 0
BITMAP
ENDCHAR
STARTCHAR AF7E
ENCODING 44926
SWIDTH 960 0
DWIDTH 16 0
BBX 0 0 0 0
BITMAP
ENDCHAR
STARTCHAR AF7F
ENCODING 44927
SWIDTH 960 0
DWIDTH 16 0
BBX 0 0 0 0
BITMAP
ENDCHAR
STARTCHAR AF80
ENCODING 44928
SWIDTH 900 0
DWIDTH 15 0
BBX 13 12 1 1
BITMAP
0010
0418
6F98
F998
1988
1988
1988
1608
0608
07C8
3FC8
0008
ENDCHAR
STARTCHAR AF81
ENCODING 44929
SWIDTH 960 0
DWIDTH 16 0
BBX 0 0 0 0
BITMAP
ENDCHAR
STARTCHAR AF82
ENCODING 44930
SWIDTH 960 0
DWIDTH 16 0
BBX 0 0 0 0
BITMAP
ENDCHAR
STARTCHAR AF83
ENCODING 44931
SWIDTH 960 0
DWIDTH 16 0
BBX 0 0 0 0
BITMAP
ENDCHAR
STARTCHAR AF84
ENCODING 44932
SWIDTH 900 0
DWIDTH 15 0
BBX 13 14 1 -1
BITMAP
0708
FF88
7988
1988
1988
1C08
0608
2FC8
1F08
0000
0100
0180
01F8
00F8
ENDCHAR
STARTCHAR AF85
ENCODING 44933
SWIDTH 960 0
DWIDTH 16 0
BBX 0 0 0 0
BITMAP
ENDCHAR
STARTCHAR AF86
ENCODING 44934
SWIDTH 960 0
DWIDTH 16 0
BBX 0 0 0 0
BITMAP
ENDCHAR
STARTCHAR AF87
ENCODING 44935
SWIDTH 960 0
DWIDTH 16 0
BBX 0 0 0 0
BITMAP
ENDCHAR
STARTCHAR AF88
ENCODING 44936
SWIDTH 900 0
DWIDTH 15 0
BBX 14 18 1 -3
BITMAP
0008
0788
F988
1988
198C
198C
0C08
0608
1FC8
1EF0
0098
0018
0018
00F0
00C0
0180
00FC
0078
ENDCHAR
STARTCHAR AF89
ENCODING 44937
SWIDTH 960 0
DWIDTH 16 0
BBX 0 0 0 0
BITMAP
ENDCHAR
STARTCHAR AF8A
ENCODING 44938
SWIDTH 960 0
DWIDTH 16 0
BBX 0 0 0 0
BITMAP
ENDCHAR
STARTCHAR AF8B
ENCODING 44939
SWIDTH 960 0
DWIDTH 16 0
BBX 0 0 0 0
BITMAP
ENDCHAR
STARTCHAR AF8C
ENCODING 44940
SWIDTH 960 0
DWIDTH 16 0
BBX 0 0 0 0
BITMAP
ENDCHAR
STARTCHAR AF8D
ENCODING 44941
SWIDTH 960 0
DWIDTH 16 0
BBX 0 0 0 0
BITMAP
ENDCHAR
STARTCHAR AF8E
ENCODING 44942
SWIDTH 960 0
DWIDTH 16 0
BBX 0 0 0 0
BITMAP
ENDCHAR
STARTCHAR AF8F
ENCODING 44943
SWIDTH 960 0
DWIDTH 16 0
BBX 0 0 0 0
BITMAP
ENDCHAR
STARTCHAR AF90
ENCODING 44944
SWIDTH 900 0
DWIDTH 15 0
BBX 14 16 1 -2
BITMAP
0608
6788
F98C
198C
198C
198C
160C
06CC
1F88
0000
00F8
00F8
0188
0188
01F8
00F8
ENDCHAR
STARTCHAR AF91
ENCODING 44945
SWIDTH 900 0
DWIDTH 15 0
BBX 13 17 1 -3
BITMAP
0608
EF88
F988
1988
1988
1908
1408
04C8
3F88
0000
0118
0118
0198
0178
0110
01B0
00F0
ENDCHAR
STARTCHAR AF92
ENCODING 44946
SWIDTH 960 0
DWIDTH 16 0
BBX 0 0 0 0
BITMAP
ENDCHAR
STARTCHAR AF93
ENCODING 44947
SWIDTH 960 0
DWIDTH 16 0
BBX 0 0 0 0
BITMAP
ENDCHAR
STARTCHAR AF94
ENCODING 44948
SWIDTH 960 0
DWIDTH 16 0
BBX 0 0 0 0
BITMAP
ENDCHAR
STARTCHAR AF95
ENCODING 44949
SWIDTH 900 0
DWIDTH 15 0
BBX 13 15 1 -2
BITMAP
0F08
F388
1988
1988
1988
1408
0408
3FC8
1E08
0070
00F0
0090
0190
00F0
00E0
ENDCHAR
STARTCHAR AF96
ENCODING 44950
SWIDTH 960 0
DWIDTH 16 0
BBX 0 0 0 0
BITMAP
ENDCHAR
STARTCHAR AF97
ENCODING 44951
SWIDTH 960 0
DWIDTH 16 0
BBX 0 0 0 0
BITMAP
ENDCHAR
STARTCHAR AF98
ENCODING 44952
SWIDTH 960 0
DWIDTH 16 0
BBX 0 0 0 0
BITMAP
ENDCHAR
STARTCHAR AF99
ENCODING 44953
SWIDTH 960 0
DWIDTH 16 0
BBX 0 0 0 0
BITMAP
ENDCHAR
STARTCHAR AF9A
ENCODING 44954
SWIDTH 960 0
DWIDTH 16 0
BBX 0 0 0 0
BITMAP
ENDCHAR
STARTCHAR AF9B
ENCODING 44955
SWIDTH 960 0
DWIDTH 16 0
BBX 0 0 0 0
BITMAP
ENDCHAR
STARTCHAR AF9C
ENCODING 44956
SWIDTH 780 0
DWIDTH 13 0
BBX 12 12 1 0
BITMAP
6780
F9C0
18C0
18C0
1880
1800
0000
0900
0900
0900
7FF0
7FE0
ENDCHAR
STARTCHAR AF9D
ENCODING 44957
SWIDTH 960 0
DWIDTH 16 0
BBX 0 0 0 0
BITMAP
ENDCHAR
STARTCHAR AF9E
ENCODING 44958
SWIDTH 960 0
DWIDTH 16 0
BBX 0 0 0 0
BITMAP
ENDCHAR
STARTCHAR AF9F
ENCODING 44959
SWIDTH 960 0
DWIDTH 16 0
BBX 0 0 0 0
BITMAP
ENDCHAR
STARTCHAR AFA0
ENCODING 44960
SWIDTH 960 0
DWIDTH 16 0
BBX 0 0 0 0
BITMAP
ENDCHAR
STARTCHAR AFA1
ENCODING 44961
SWIDTH 960 0
DWIDTH 16 0
BBX 0 0 0 0
BITMAP
ENDCHAR
STARTCHAR AFA2
ENCODING 44962
SWIDTH 960 0
DWIDTH 16 0
BBX 0 0 0 0
BITMAP
ENDCHAR
STARTCHAR AFA3
ENCODING 44963
SWIDTH 960 0
DWIDTH 16 0
BBX 0 0 0 0
BITMAP
ENDCHAR
STARTCHAR AFA4
ENCODING 44964
SWIDTH 900 0
DWIDTH 15 0
BBX 14 16 1 -3
BITMAP
7BE0
7BF0
0C30
0C30
0CF0
0CC0
FFFC
FFFC
0000
3FF0
3FF0
3FF0
3FF0
3000
3FF0
3FF0
ENDCHAR
STARTCHAR AFA5
ENCODING 44965
SWIDTH 960 0
DWIDTH 16 0
BBX 0 0 0 0
BITMAP
ENDCHAR
STARTCHAR AFA6
ENCODING 44966
SWIDTH 960 0
DWIDTH 16 0
BBX 0 0 0 0
BITMAP
ENDCHAR
STARTCHAR AFA7
ENCODING 44967
SWIDTH 960 0
DWIDTH 16 0
BBX 0 0 0 0
BITMAP
ENDCHAR
STARTCHAR AFA8
ENCODING 44968
SWIDTH 960 0
DWIDTH 16 0
BBX 0 0 0 0
BITMAP
ENDCHAR
STARTCHAR AFA9
ENCODING 44969
SWIDTH 960 0
DWIDTH 16 0
BBX 0 0 0 0
BITMAP
ENDCHAR
STARTCHAR AFAA
ENCODING 44970
SWIDTH 960 0
DWIDTH 16 0
BBX 0 0 0 0
BITMAP
ENDCHAR
STARTCHAR AFAB
ENCODING 44971
SWIDTH 960 0
DWIDTH 16 0
BBX 0 0 0 0
BITMAP
ENDCHAR
STARTCHAR AFAC
ENCODING 44972
SWIDTH 960 0
DWIDTH 16 0
BBX 0 0 0 0
BITMAP
ENDCHAR
STARTCHAR AFAD
ENCODING 44973
SWIDTH 960 0
DWIDTH 16 0
BBX 0 0 0 0
BITMAP
ENDCHAR
STARTCHAR AFAE
ENCODING 44974
SWIDTH 960 0
DWIDTH 16 0
BBX 0 0 0 0
BITMAP
ENDCHAR
STARTCHAR AFAF
ENCODING 44975
SWIDTH 960 0
DWIDTH 16 0
BBX 0 0 0 0
BITMAP
ENDCHAR
STARTCHAR AFB0
ENCODING 44976
SWIDTH 960 0
DWIDTH 16 0
BBX 0 0 0 0
BITMAP
ENDCHAR
STARTCHAR AFB1
ENCODING 44977
SWIDTH 960 0
DWIDTH 16 0
BBX 0 0 0 0
BITMAP
ENDCHAR
STARTCHAR AFB2
ENCODING 44978
SWIDTH 960 0
DWIDTH 16 0
BBX 0 0 0 0
BITMAP
ENDCHAR
STARTCHAR AFB3
ENCODING 44979
SWIDTH 960 0
DWIDTH 16 0
BBX 0 0 0 0
BITMAP
ENDCHAR
STARTCHAR AFB4
ENCODING 44980
SWIDTH 960 0
DWIDTH 16 0
BBX 0 0 0 0
BITMAP
ENDCHAR
STARTCHAR AFB5
ENCODING 44981
SWIDTH 960 0
DWIDTH 16 0
BBX 0 0 0 0
BITMAP
ENDCHAR
STARTCHAR AFB6
ENCODING 44982
SWIDTH 960 0
DWIDTH 16 0
BBX 0 0 0 0
BITMAP
ENDCHAR
STARTCHAR AFB7
ENCODING 44983
SWIDTH 960 0
DWIDTH 16 0
BBX 0 0 0 0
BITMAP
ENDCHAR
STARTCHAR AFB8
ENCODING 44984
SWIDTH 720 0
DWIDTH 12 0
BBX 12 14 1 -2
BITMAP
7780
F8C0
18C0
18C0
1880
1800
0000
7FF0
3FC0
0200
0200
0200
0200
0200
ENDCHAR
STARTCHAR AFB9
ENCODING 44985
SWIDTH 780 0
DWIDTH 13 0
BBX 12 17 1 -4
BITMAP
7780
F8C0
18C0
18C0
1880
1000
7FF0
7FE0
0200
0200
0000
0F00
0F80
0080
0080
0080
0080
ENDCHAR
STARTCHAR AFBA
ENCODING 44986
SWIDTH 900 0
DWIDTH 15 0
BBX 14 16 1 -3
BITMAP
7BE0
7FE0
0C30
0C30
0C30
0C30
FFFC
FFFC
0300
0300
7FF0
7DF0
0430
0430
0430
0430
ENDCHAR
STARTCHAR AFBB
ENCODING 44987
SWIDTH 960 0
DWIDTH 16 0
BBX 0 0 0 0
BITMAP
ENDCHAR
STARTCHAR AFBC
ENCODING 44988
SWIDTH 780 0
DWIDTH 13 0
BBX 12 14 1 -1
BITMAP
6780
F8C0
18C0
18C0
1880
1000
7FF0
7FE0
0200
0200
1C00
1800
0FC0
0F80
ENDCHAR
STARTCHAR AFBD
ENCODING 44989
SWIDTH 960 0
DWIDTH 16 0
BBX 0 0 0 0
BITMAP
ENDCHAR
STARTCHAR AFBE
ENCODING 44990
SWIDTH 960 0
DWIDTH 16 0
BBX 0 0 0 0
BITMAP
ENDCHAR
STARTCHAR AFBF
ENCODING 44991
SWIDTH 960 0
DWIDTH 16 0
BBX 0 0 0 0
BITMAP
ENDCHAR
STARTCHAR AFC0
ENCODING 44992
SWIDTH 780 0
DWIDTH 13 0
BBX 12 20 1 -4
BITMAP
0300
77C0
F8C0
18C0
18C0
1880
1000
7FF0
7FE0
0200
0200
0000
0F80
0180
0180
0700
0E00
1800
0FC0
0780
ENDCHAR
STARTCHAR AFC1
ENCODING 44993
SWIDTH 960 0
DWIDTH 16 0
BBX 0 0 0 0
BITMAP
ENDCHAR
STARTCHAR AFC2
ENCODING 44994
SWIDTH 960 0
DWIDTH 16 0
BBX 0 0 0 0
BITMAP
ENDCHAR
STARTCHAR AFC3
ENCODING 44995
SWIDTH 960 0
DWIDTH 16 0
BBX 0 0 0 0
BITMAP
ENDCHAR
STARTCHAR AFC4
ENCODING 44996
SWIDTH 960 0
DWIDTH 16 0
BBX 0 0 0 0
BITMAP
ENDCHAR
STARTCHAR AFC5
ENCODING 44997
SWIDTH 960 0
DWIDTH 16 0
BBX 0 0 0 0
BITMAP
ENDCHAR
STARTCHAR AFC6
ENCODING 44998
SWIDTH 960 0
DWIDTH 16 0
BBX 0 0 0 0
BITMAP
ENDCHAR
STARTCHAR AFC7
ENCODING 44999
SWIDTH 780 0
DWIDTH 13 0
BBX 12 18 1 -4
BITMAP
0780
FBC0
18C0
18C0
1880
1880
0000
7FF0
7FE0
0200
02C0
3880
0FF0
0DC0
19E0
31E0
37C0
1C00
ENDCHAR
STARTCHAR AFC8
ENCODING 45000
SWIDTH 780 0
DWIDTH 13 0
BBX 12 17 1 -3
BITMAP
0780
FFC0
38C0
18C0
18C0
1880
0000
7FF0
3FC0
0200
0200
0C00
0F80
0CC0
08C0
08C0
0F80
ENDCHAR
STARTCHAR AFC9
ENCODING 45001
SWIDTH 780 0
DWIDTH 13 0
BBX 12 17 1 -3
BITMAP
0700
F7C0
78C0
18C0
18C0
1880
0000
7FF0
7FE0
0200
0AC0
08C0
0CC0
0BC0
0880
0D80
0780
ENDCHAR
STARTCHAR AFCA
ENCODING 45002
SWIDTH 960 0
DWIDTH 16 0
BBX 0 0 0 0
BITMAP
ENDCHAR
STARTCHAR AFCB
ENCODING 45003
SWIDTH 780 0
DWIDTH 13 0
BBX 11 17 2 -3
BITMAP
0F80
F380
3980
1980
1180
1000
0000
FFE0
0600
0600
0400
0400
0600
0E00
1B00
1980
1080
ENDCHAR
STARTCHAR AFCC
ENCODING 45004
SWIDTH 960 0
DWIDTH 16 0
BBX 0 0 0 0
BITMAP
ENDCHAR
STARTCHAR AFCD
ENCODING 45005
SWIDTH 780 0
DWIDTH 13 0
BBX 12 18 1 -4
BITMAP
2780
F9C0
18C0
08C0
18C0
0800
4030
7FF0
0200
0200
0200
0300
0780
0D80
0D80
0D80
0700
0200
ENDCHAR
STARTCHAR AFCE
ENCODING 45006
SWIDTH 780 0
DWIDTH 13 0
BBX 12 17 1 -3
BITMAP
6780
F9C0
18C0
18C0
1880
1000
4060
7FF0
0600
0200
0200
0F80
0D80
0180
0300
0780
0CC0
ENDCHAR
STARTCHAR AFCF
ENCODING 45007
SWIDTH 960 0
DWIDTH 16 0
BBX 0 0 0 0
BITMAP
ENDCHAR
STARTCHAR AFD0
ENCODING 45008
SWIDTH 960 0
DWIDTH 16 0
BBX 0 0 0 0
BITMAP
ENDCHAR
STARTCHAR AFD1
ENCODING 45009
SWIDTH 960 0
DWIDTH 16 0
BBX 0 0 0 0
BITMAP
ENDCHAR
STARTCHAR AFD2
ENCODING 45010
SWIDTH 960 0
DWIDTH 16 0
BBX 0 0 0 0
BITMAP
ENDCHAR
STARTCHAR AFD3
ENCODING 45011
SWIDTH 960 0
DWIDTH 16 0
BBX 0 0 0 0
BITMAP
ENDCHAR
STARTCHAR AFD4
ENCODING 45012
SWIDTH 900 0
DWIDTH 15 0
BBX 13 13 1 0
BITMAP
0008
0708
FF88
1988
1988
1988
1908
01C8
3FC8
0678
0678
0608
0608
ENDCHAR
STARTCHAR AFD5
ENCODING 45013
SWIDTH 960 0
DWIDTH 16 0
BBX 0 0 0 0
BITMAP
ENDCHAR
STARTCHAR AFD6
ENCODING 45014
SWIDTH 960 0
DWIDTH 16 0
BBX 0 0 0 0
BITMAP
ENDCHAR
STARTCHAR AFD7
ENCODING 45015
SWIDTH 960 0
DWIDTH 16 0
BBX 0 0 0 0
BITMAP
ENDCHAR
STARTCHAR AFD8
ENCODING 45016
SWIDTH 960 0
DWIDTH 16 0
BBX 0 0 0 0
BITMAP
ENDCHAR
STARTCHAR AFD9
ENCODING 45017
SWIDTH 960 0
DWIDTH 16 0
BBX 0 0 0 0
BITMAP
ENDCHAR
STARTCHAR AFDA
ENCODING 45018
SWIDTH 960 0
DWIDTH 16 0
BBX 0 0 0 0
BITMAP
ENDCHAR
STARTCHAR AFDB
ENCODING 45019
SWIDTH 960 0
DWIDTH 16 0
BBX 0 0 0 0
BITMAP
ENDCHAR
STARTCHAR AFDC
ENCODING 45020
SWIDTH 960 0
DWIDTH 16 0
BBX 14 18 1 -3
BITMAP
0004
6F04
FB84
198C
198C
190C
00BC
3FCC
1E0C
06F8
0298
0008
0018
0070
00C0
00C0
00FC
0078
ENDCHAR
STARTCHAR AFDD
ENCODING 45021
SWIDTH 960 0
DWIDTH 16 0
BBX 0 0 0 0
BITMAP
ENDCHAR
STARTCHAR AFDE
ENCODING 45022
SWIDTH 960 0
DWIDTH 16 0
BBX 0 0 0 0
BITMAP
ENDCHAR
STARTCHAR AFDF
ENCODING 45023
SWIDTH 960 0
DWIDTH 16 0
BBX 0 0 0 0
BITMAP
ENDCHAR
STARTCHAR AFE0
ENCODING 45024
SWIDTH 960 0
DWIDTH 16 0
BBX 0 0 0 0
BITMAP
ENDCHAR
STARTCHAR AFE1
ENCODING 45025
SWIDTH 960 0
DWIDTH 16 0
BBX 0 0 0 0
BITMAP
ENDCHAR
STARTCHAR AFE2
ENCODING 45026
SWIDTH 960 0
DWIDTH 16 0
BBX 0 0 0 0
BITMAP
ENDCHAR
STARTCHAR AFE3
ENCODING 45027
SWIDTH 960 0
DWIDTH 16 0
BBX 0 0 0 0
BITMAP
ENDCHAR
STARTCHAR AFE4
ENCODING 45028
SWIDTH 960 0
DWIDTH 16 0
BBX 0 0 0 0
BITMAP
ENDCHAR
STARTCHAR AFE5
ENCODING 45029
SWIDTH 960 0
DWIDTH 16 0
BBX 0 0 0 0
BITMAP
ENDCHAR
STARTCHAR AFE6
ENCODING 45030
SWIDTH 960 0
DWIDTH 16 0
BBX 0 0 0 0
BITMAP
ENDCHAR
STARTCHAR AFE7
ENCODING 45031
SWIDTH 960 0
DWIDTH 16 0
BBX 0 0 0 0
BITMAP
ENDCHAR
STARTCHAR AFE8
ENCODING 45032
SWIDTH 960 0
DWIDTH 16 0
BBX 15 15 1 -1
BITMAP
0004
7784
F986
1986
1986
1986
003E
3FC4
3F84
0680
078C
01D8
01FC
0376
0232
ENDCHAR
STARTCHAR AFE9
ENCODING 45033
SWIDTH 960 0
DWIDTH 16 0
BBX 14 15 1 -1
BITMAP
0704
7784
F984
1984
1984
183C
009C
3FC4
1E04
0230
0278
0048
0048
00D8
0078
ENDCHAR
STARTCHAR AFEA
ENCODING 45034
SWIDTH 960 0
DWIDTH 16 0
BBX 0 0 0 0
BITMAP
ENDCHAR
STARTCHAR AFEB
ENCODING 45035
SWIDTH 960 0
DWIDTH 16 0
BBX 0 0 0 0
BITMAP
ENDCHAR
STARTCHAR AFEC
ENCODING 45036
SWIDTH 960 0
DWIDTH 16 0
BBX 0 0 0 0
BITMAP
ENDCHAR
STARTCHAR AFED
ENCODING 45037
SWIDTH 960 0
DWIDTH 16 0
BBX 0 0 0 0
BITMAP
ENDCHAR
STARTCHAR AFEE
ENCODING 45038
SWIDTH 960 0
DWIDTH 16 0
BBX 0 0 0 0
BITMAP
ENDCHAR
STARTCHAR AFEF
ENCODING 45039
SWIDTH 960 0
DWIDTH 16 0
BBX 0 0 0 0
BITMAP
ENDCHAR
STARTCHAR AFF0
ENCODING 45040
SWIDTH 1020 0
DWIDTH 17 0
BBX 16 13 1 1
BITMAP
0012
071A
779B
F99B
199B
199B
081B
001B
3FDB
067B
067B
061B
061B
ENDCHAR
STARTCHAR AFF1
ENCODING 45041
SWIDTH 960 0
DWIDTH 16 0
BBX 15 17 1 -2
BITMAP
0004
0036
FE36
F736
1B36
1B36
1B36
10F6
3FB6
3FB6
0616
04F8
00FC
000C
000C
000C
0008
ENDCHAR
STARTCHAR AFF2
ENCODING 45042
SWIDTH 960 0
DWIDTH 16 0
BBX 0 0 0 0
BITMAP
ENDCHAR
STARTCHAR AFF3
ENCODING 45043
SWIDTH 960 0
DWIDTH 16 0
BBX 0 0 0 0
BITMAP
ENDCHAR
STARTCHAR AFF4
ENCODING 45044
SWIDTH 1020 0
DWIDTH 17 0
BBX 15 15 1 -1
BITMAP
0016
4E16
FF16
1B16
1B16
1B16
19F6
0016
3F96
3F96
0684
06C0
00C0
00FE
007C
ENDCHAR
STARTCHAR AFF5
ENCODING 45045
SWIDTH 960 0
DWIDTH 16 0
BBX 0 0 0 0
BITMAP
ENDCHAR
STARTCHAR AFF6
ENCODING 45046
SWIDTH 960 0
DWIDTH 16 0
BBX 0 0 0 0
BITMAP
ENDCHAR
STARTCHAR AFF7
ENCODING 45047
SWIDTH 960 0
DWIDTH 16 0
BBX 0 0 0 0
BITMAP
ENDCHAR
STARTCHAR AFF8
ENCODING 45048
SWIDTH 1020 0
DWIDTH 17 0
BBX 15 19 1 -3
BITMAP
0024
0036
FF36
FB36
1B36
1B36
13F6
00F6
3FB6
3FB6
0604
0478
000C
000C
0038
0070
00C0
00FC
007C
ENDCHAR
STARTCHAR AFF9
ENCODING 45049
SWIDTH 900 0
DWIDTH 15 0
BBX 13 16 1 -3
BITMAP
DCD8
FED8
66D8
66D8
40D8
FED8
FED8
37D8
37D8
30C0
3EF8
3EF8
3E18
3E18
3F18
3F18
ENDCHAR
STARTCHAR AFFA
ENCODING 45050
SWIDTH 960 0
DWIDTH 16 0
BBX 0 0 0 0
BITMAP
ENDCHAR
STARTCHAR AFFB
ENCODING 45051
SWIDTH 960 0
DWIDTH 16 0
BBX 0 0 0 0
BITMAP
ENDCHAR
STARTCHAR AFFC
ENCODING 45052
SWIDTH 960 0
DWIDTH 16 0
BBX 0 0 0 0
BITMAP
ENDCHAR
STARTCHAR AFFD
ENCODING 45053
SWIDTH 960 0
DWIDTH 16 0
BBX 0 0 0 0
BITMAP
ENDCHAR
STARTCHAR AFFE
ENCODING 45054
SWIDTH 960 0
DWIDTH 16 0
BBX 0 0 0 0
BITMAP
ENDCHAR
STARTCHAR AFFF
ENCODING 45055
SWIDTH 900 0
DWIDTH 15 0
BBX 14 17 1 -4
BITMAP
DCD8
FED8
66D8
66D8
40D8
FED8
FED8
37D8
37D8
7CF0
7C60
05FC
7DFC
7C98
7E98
3EF8
0070
ENDCHAR
STARTCHAR B000
ENCODING 45056
SWIDTH 1020 0
DWIDTH 17 0
BBX 15 17 1 -2
BITMAP
0002
0016
FF16
7B16
1B16
1B16
1B76
00F6
3F96
3FD6
0612
0678
007E
0066
0066
0066
007E
ENDCHAR
STARTCHAR B001
ENCODING 45057
SWIDTH 1020 0
DWIDTH 17 0
BBX 15 18 1 -3
BITMAP
0012
0016
FF16
7B16
1916
1B16
1B7E
00FE
3F96
3FD6
0604
0644
00C6
00E6
00FC
00C4
006C
0078
ENDCHAR
STARTCHAR B002
ENCODING 45058
SWIDTH 960 0
DWIDTH 16 0
BBX 0 0 0 0
BITMAP
ENDCHAR
STARTCHAR B003
ENCODING 45059
SWIDTH 960 0
DWIDTH 16 0
BBX 0 0 0 0
BITMAP
ENDCHAR
STARTCHAR B004
ENCODING 45060
SWIDTH 1020 0
DWIDTH 17 0
BBX 16 17 1 -2
BITMAP
0016
0E36
FF36
1B36
1B36
1B36
12F6
00B6
3FB6
3F96
0600
06CC
01CC
01FC
013E
0313
0030
ENDCHAR
STARTCHAR B005
ENCODING 45061
SWIDTH 960 0
DWIDTH 16 0
BBX 0 0 0 0
BITMAP
ENDCHAR
STARTCHAR B006
ENCODING 45062
SWIDTH 960 0
DWIDTH 16 0
BBX 0 0 0 0
BITMAP
ENDCHAR
STARTCHAR B007
ENCODING 45063
SWIDTH 960 0
DWIDTH 16 0
BBX 0 0 0 0
BITMAP
ENDCHAR
STARTCHAR B008
ENCODING 45064
SWIDTH 960 0
DWIDTH 16 0
BBX 0 0 0 0
BITMAP
ENDCHAR
STARTCHAR B009
ENCODING 45065
SWIDTH 960 0
DWIDTH 16 0
BBX 0 0 0 0
BITMAP
ENDCHAR
STARTCHAR B00A
ENCODING 45066
SWIDTH 960 0
DWIDTH 16 0
BBX 0 0 0 0
BITMAP
ENDCHAR
STARTCHAR B00B
ENCODING 45067
SWIDTH 960 0
DWIDTH 16 0
BBX 0 0 0 0
BITMAP
ENDCHAR
STARTCHAR B00C
ENCODING 45068
SWIDTH 900 0
DWIDTH 15 0
BBX 13 14 1 -1
BITMAP
0010
0798
F998
1998
1988
1988
1008
0048
7FC8
0C08
0C08
0408
0408
0008
ENDCHAR
STARTCHAR B00D
ENCODING 45069
SWIDTH 960 0
DWIDTH 16 0
BBX 0 0 0 0
BITMAP
ENDCHAR
STARTCHAR B00E
ENCODING 45070
SWIDTH 960 0
DWIDTH 16 0
BBX 0 0 0 0
BITMAP
ENDCHAR
STARTCHAR B00F
ENCODING 45071
SWIDTH 960 0
DWIDTH 16 0
BBX 0 0 0 0
BITMAP
ENDCHAR
STARTCHAR B010
ENCODING 45072
SWIDTH 900 0
DWIDTH 15 0
BBX 14 15 1 -1
BITMAP
0008
0F8C
FB8C
198C
198C
198C
100C
3FEC
7F0C
0408
0500
0900
0100
01F8
00F8
ENDCHAR
STARTCHAR B011
ENCODING 45073
SWIDTH 960 0
DWIDTH 16 0
BBX 0 0 0 0
BITMAP
ENDCHAR
STARTCHAR B012
ENCODING 45074
SWIDTH 960 0
DWIDTH 16 0
BBX 0 0 0 0
BITMAP
ENDCHAR
STARTCHAR B013
ENCODING 45075
SWIDTH 960 0
DWIDTH 16 0
BBX 0 0 0 0
BITMAP
ENDCHAR
STARTCHAR B014
ENCODING 45076
SWIDTH 900 0
DWIDTH 15 0
BBX 14 18 1 -2
BITMAP
0008
0F08
F388
3988
1988
190C
100C
7FE8
3F08
0C08
0CF0
0818
0018
0070
00E0
0180
01F8
00F8
ENDCHAR
STARTCHAR B015
ENCODING 45077
SWIDTH 960 0
DWIDTH 16 0
BBX 0 0 0 0
BITMAP
ENDCHAR
STARTCHAR B016
ENCODING 45078
SWIDTH 960 0
DWIDTH 16 0
BBX 0 0 0 0
BITMAP
ENDCHAR
STARTCHAR B017
ENCODING 45079
SWIDTH 960 0
DWIDTH 16 0
BBX 0 0 0 0
BITMAP
ENDCHAR
STARTCHAR B018
ENCODING 45080
SWIDTH 960 0
DWIDTH 16 0
BBX 0 0 0 0
BITMAP
ENDCHAR
STARTCHAR B019
ENCODING 45081
SWIDTH 960 0
DWIDTH 16 0
BBX 0 0 0 0
BITMAP
ENDCHAR
STARTCHAR B01A
ENCODING 45082
SWIDTH 960 0
DWIDTH 16 0
BBX 0 0 0 0
BITMAP
ENDCHAR
STARTCHAR B01B
ENCODING 45083
SWIDTH 960 0
DWIDTH 16 0
BBX 0 0 0 0
BITMAP
ENDCHAR
STARTCHAR B01C
ENCODING 45084
SWIDTH 900 0
DWIDTH 15 0
BBX 14 17 1 -2
BITMAP
0008
0F08
F388
3988
198C
190C
100C
7FE8
3F88
0C08
0C80
05F8
0198
0188
0188
01F8
00E0
ENDCHAR
STARTCHAR B01D
ENCODING 45085
SWIDTH 900 0
DWIDTH 15 0
BBX 14 17 1 -2
BITMAP
0008
0F08
F388
398C
198C
190C
100C
7FEC
3F88
0C00
0D08
0508
0158
01F8
0198
01B8
00F0
ENDCHAR
STARTCHAR B01E
ENCODING 45086
SWIDTH 960 0
DWIDTH 16 0
BBX 0 0 0 0
BITMAP
ENDCHAR
STARTCHAR B01F
ENCODING 45087
SWIDTH 960 0
DWIDTH 16 0
BBX 0 0 0 0
BITMAP
ENDCHAR
STARTCHAR B020
ENCODING 45088
SWIDTH 960 0
DWIDTH 16 0
BBX 0 0 0 0
BITMAP
ENDCHAR
STARTCHAR B021
ENCODING 45089
SWIDTH 960 0
DWIDTH 16 0
BBX 0 0 0 0
BITMAP
ENDCHAR
STARTCHAR B022
ENCODING 45090
SWIDTH 960 0
DWIDTH 16 0
BBX 0 0 0 0
BITMAP
ENDCHAR
STARTCHAR B023
ENCODING 45091
SWIDTH 960 0
DWIDTH 16 0
BBX 0 0 0 0
BITMAP
ENDCHAR
STARTCHAR B024
ENCODING 45092
SWIDTH 960 0
DWIDTH 16 0
BBX 0 0 0 0
BITMAP
ENDCHAR
STARTCHAR B025
ENCODING 45093
SWIDTH 960 0
DWIDTH 16 0
BBX 0 0 0 0
BITMAP
ENDCHAR
STARTCHAR B026
ENCODING 45094
SWIDTH 960 0
DWIDTH 16 0
BBX 0 0 0 0
BITMAP
ENDCHAR
STARTCHAR B027
ENCODING 45095
SWIDTH 960 0
DWIDTH 16 0
BBX 0 0 0 0
BITMAP
ENDCHAR
STARTCHAR B028
ENCODING 45096
SWIDTH 780 0
DWIDTH 13 0
BBX 12 14 1 -1
BITMAP
0780
FBC0
18C0
18C0
18C0
1880
0000
7FF0
7FE0
1880
1880
1880
1880
1880
ENDCHAR
STARTCHAR B029
ENCODING 45097
SWIDTH 960 0
DWIDTH 16 0
BBX 0 0 0 0
BITMAP
ENDCHAR
STARTCHAR B02A
ENCODING 45098
SWIDTH 960 0
DWIDTH 16 0
BBX 0 0 0 0
BITMAP
ENDCHAR
STARTCHAR B02B
ENCODING 45099
SWIDTH 960 0
DWIDTH 16 0
BBX 0 0 0 0
BITMAP
ENDCHAR
STARTCHAR B02C
ENCODING 45100
SWIDTH 960 0
DWIDTH 16 0
BBX 0 0 0 0
BITMAP
ENDCHAR
STARTCHAR B02D
ENCODING 45101
SWIDTH 960 0
DWIDTH 16 0
BBX 0 0 0 0
BITMAP
ENDCHAR
STARTCHAR B02E
ENCODING 45102
SWIDTH 960 0
DWIDTH 16 0
BBX 0 0 0 0
BITMAP
ENDCHAR
STARTCHAR B02F
ENCODING 45103
SWIDTH 960 0
DWIDTH 16 0
BBX 0 0 0 0
BITMAP
ENDCHAR
STARTCHAR B030
ENCODING 45104
SWIDTH 960 0
DWIDTH 16 0
BBX 0 0 0 0
BITMAP
ENDCHAR
STARTCHAR B031
ENCODING 45105
SWIDTH 960 0
DWIDTH 16 0
BBX 0 0 0 0
BITMAP
ENDCHAR
STARTCHAR B032
ENCODING 45106
SWIDTH 960 0
DWIDTH 16 0
BBX 0 0 0 0
BITMAP
ENDCHAR
STARTCHAR B033
ENCODING 45107
SWIDTH 960 0
DWIDTH 16 0
BBX 0 0 0 0
BITMAP
ENDCHAR
STARTCHAR B034
ENCODING 45108
SWIDTH 960 0
DWIDTH 16 0
BBX 0 0 0 0
BITMAP
ENDCHAR
STARTCHAR B035
ENCODING 45109
SWIDTH 960 0
DWIDTH 16 0
BBX 0 0 0 0
BITMAP
ENDCHAR
STARTCHAR B036
ENCODING 45110
SWIDTH 960 0
DWIDTH 16 0
BBX 0 0 0 0
BITMAP
ENDCHAR
STARTCHAR B037
ENCODING 45111
SWIDTH 960 0
DWIDTH 16 0
BBX 0 0 0 0
BITMAP
ENDCHAR
STARTCHAR B038
ENCODING 45112
SWIDTH 960 0
DWIDTH 16 0
BBX 0 0 0 0
BITMAP
ENDCHAR
STARTCHAR B039
ENCODING 45113
SWIDTH 960 0
DWIDTH 16 0
BBX 0 0 0 0
BITMAP
ENDCHAR
STARTCHAR B03A
ENCODING 45114
SWIDTH 960 0
DWIDTH 16 0
BBX 0 0 0 0
BITMAP
ENDCHAR
STARTCHAR B03B
ENCODING 45115
SWIDTH 960 0
DWIDTH 16 0
BBX 0 0 0 0
BITMAP
ENDCHAR
STARTCHAR B03C
ENCODING 45116
SWIDTH 960 0
DWIDTH 16 0
BBX 0 0 0 0
BITMAP
ENDCHAR
STARTCHAR B03D
ENCODING 45117
SWIDTH 960 0
DWIDTH 16 0
BBX 0 0 0 0
BITMAP
ENDCHAR
STARTCHAR B03E
ENCODING 45118
SWIDTH 960 0
DWIDTH 16 0
BBX 0 0 0 0
BITMAP
ENDCHAR
STARTCHAR B03F
ENCODING 45119
SWIDTH 960 0
DWIDTH 16 0
BBX 0 0 0 0
BITMAP
ENDCHAR
STARTCHAR B040
ENCODING 45120
SWIDTH 960 0
DWIDTH 16 0
BBX 0 0 0 0
BITMAP
ENDCHAR
STARTCHAR B041
ENCODING 45121
SWIDTH 960 0
DWIDTH 16 0
BBX 0 0 0 0
BITMAP
ENDCHAR
STARTCHAR B042
ENCODING 45122
SWIDTH 960 0
DWIDTH 16 0
BBX 0 0 0 0
BITMAP
ENDCHAR
STARTCHAR B043
ENCODING 45123
SWIDTH 960 0
DWIDTH 16 0
BBX 0 0 0 0
BITMAP
ENDCHAR
STARTCHAR B044
ENCODING 45124
SWIDTH 660 0
DWIDTH 11 0
BBX 11 10 1 3
BITMAP
0700
FF80
F980
1980
1980
1180
1000
0000
0040
FFE0
ENDCHAR
STARTCHAR B045
ENCODING 45125
SWIDTH 720 0
DWIDTH 12 0
BBX 12 16 1 -2
BITMAP
0200
E780
F980
1880
1880
1080
0000
FFF0
7F80
0000
1F00
1F80
0180
0080
0080
0080
ENDCHAR
STARTCHAR B046
ENCODING 45126
SWIDTH 960 0
DWIDTH 16 0
BBX 0 0 0 0
BITMAP
ENDCHAR
STARTCHAR B047
ENCODING 45127
SWIDTH 960 0
DWIDTH 16 0
BBX 0 0 0 0
BITMAP
ENDCHAR
STARTCHAR B048
ENCODING 45128
SWIDTH 780 0
DWIDTH 13 0
BBX 12 14 1 -1
BITMAP
0780
F9C0
18C0
18C0
1880
1000
7FF0
7FE0
0000
0000
0800
0800
0FC0
0FC0
ENDCHAR
STARTCHAR B049
ENCODING 45129
SWIDTH 960 0
DWIDTH 16 0
BBX 0 0 0 0
BITMAP
ENDCHAR
STARTCHAR B04A
ENCODING 45130
SWIDTH 780 0
DWIDTH 13 0
BBX 12 16 1 -2
BITMAP
0780
F9C0
18C0
18C0
1880
1000
7FF0
7FE0
0000
01C0
3080
33F0
31C0
31E0
3F60
1DC0
ENDCHAR
STARTCHAR B04B
ENCODING 45131
SWIDTH 960 0
DWIDTH 16 0
BBX 0 0 0 0
BITMAP
ENDCHAR
STARTCHAR B04C
ENCODING 45132
SWIDTH 780 0
DWIDTH 13 0
BBX 12 18 1 -3
BITMAP
0780
FBC0
18C0
18C0
1880
1000
7FF0
7FE0
0000
0F00
0980
0180
0380
0F00
1C00
1800
0FC0
0780
ENDCHAR
STARTCHAR B04D
ENCODING 45133
SWIDTH 960 0
DWIDTH 16 0
BBX 0 0 0 0
BITMAP
ENDCHAR
STARTCHAR B04E
ENCODING 45134
SWIDTH 780 0
DWIDTH 13 0
BBX 12 16 1 -2
BITMAP
4780
F9C0
18C0
18C0
1880
7FF0
7FE0
0000
0000
3800
0DC0
0D20
1920
31E0
37E0
1C00
ENDCHAR
STARTCHAR B04F
ENCODING 45135
SWIDTH 960 0
DWIDTH 16 0
BBX 0 0 0 0
BITMAP
ENDCHAR
STARTCHAR B050
ENCODING 45136
SWIDTH 960 0
DWIDTH 16 0
BBX 0 0 0 0
BITMAP
ENDCHAR
STARTCHAR B051
ENCODING 45137
SWIDTH 960 0
DWIDTH 16 0
BBX 0 0 0 0
BITMAP
ENDCHAR
STARTCHAR B052
ENCODING 45138
SWIDTH 960 0
DWIDTH 16 0
BBX 0 0 0 0
BITMAP
ENDCHAR
STARTCHAR B053
ENCODING 45139
SWIDTH 780 0
DWIDTH 13 0
BBX 12 17 1 -3
BITMAP
4780
F9C0
18C0
18C0
1880
0000
7FF0
7FE0
0000
01C0
3800
0BF0
0CC0
39E0
2160
37C0
1C00
ENDCHAR
STARTCHAR B054
ENCODING 45140
SWIDTH 780 0
DWIDTH 13 0
BBX 12 16 1 -2
BITMAP
0780
F7C0
78C0
18C0
1880
1800
0000
7FF0
0000
0000
0F80
0F80
0880
0880
1F80
0F80
ENDCHAR
STARTCHAR B055
ENCODING 45141
SWIDTH 780 0
DWIDTH 13 0
BBX 12 16 1 -2
BITMAP
0780
FBC0
18C0
18C0
1880
0800
40E0
7FF0
0000
08C0
08C0
0CC0
0BC0
0880
0D80
0780
ENDCHAR
STARTCHAR B056
ENCODING 45142
SWIDTH 960 0
DWIDTH 16 0
BBX 0 0 0 0
BITMAP
ENDCHAR
STARTCHAR B057
ENCODING 45143
SWIDTH 780 0
DWIDTH 13 0
BBX 12 15 1 -1
BITMAP
0780
FFC0
78C0
18C0
1880
0800
0020
7FF0
0000
0200
0600
0700
0D80
0DC0
18C0
ENDCHAR
STARTCHAR B058
ENCODING 45144
SWIDTH 960 0
DWIDTH 16 0
BBX 0 0 0 0
BITMAP
ENDCHAR
STARTCHAR B059
ENCODING 45145
SWIDTH 780 0
DWIDTH 13 0
BBX 12 15 1 -1
BITMAP
0780
FBC0
18C0
18C0
1880
1000
63F0
7FE0
0000
0300
0F80
0D80
0D80
0D80
0F00
ENDCHAR
STARTCHAR B05A
ENCODING 45146
SWIDTH 960 0
DWIDTH 16 0
BBX 0 0 0 0
BITMAP
ENDCHAR
STARTCHAR B05B
ENCODING 45147
SWIDTH 960 0
DWIDTH 16 0
BBX 0 0 0 0
BITMAP
ENDCHAR
STARTCHAR B05C
ENCODING 45148
SWIDTH 960 0
DWIDTH 16 0
BBX 0 0 0 0
BITMAP
ENDCHAR
STARTCHAR B05D
ENCODING 45149
SWIDTH 780 0
DWIDTH 13 0
BBX 12 16 1 -2
BITMAP
6780
F9C0
18C0
1880
1880
0000
7FF0
FFC0
0000
1F80
0F80
0F80
0F80
0800
0FC0
0780
ENDCHAR
STARTCHAR B05E
ENCODING 45150
SWIDTH 960 0
DWIDTH 16 0
BBX 0 0 0 0
BITMAP
ENDCHAR
STARTCHAR B05F
ENCODING 45151
SWIDTH 960 0
DWIDTH 16 0
BBX 0 0 0 0
BITMAP
ENDCHAR
STARTCHAR B060
ENCODING 45152
SWIDTH 960 0
DWIDTH 16 0
BBX 0 0 0 0
BITMAP
ENDCHAR
STARTCHAR B061
ENCODING 45153
SWIDTH 960 0
DWIDTH 16 0
BBX 0 0 0 0
BITMAP
ENDCHAR
STARTCHAR B062
ENCODING 45154
SWIDTH 960 0
DWIDTH 16 0
BBX 0 0 0 0
BITMAP
ENDCHAR
STARTCHAR B063
ENCODING 45155
SWIDTH 960 0
DWIDTH 16 0
BBX 0 0 0 0
BITMAP
ENDCHAR
STARTCHAR B064
ENCODING 45156
SWIDTH 960 0
DWIDTH 16 0
BBX 0 0 0 0
BITMAP
ENDCHAR
STARTCHAR B065
ENCODING 45157
SWIDTH 960 0
DWIDTH 16 0
BBX 0 0 0 0
BITMAP
ENDCHAR
STARTCHAR B066
ENCODING 45158
SWIDTH 960 0
DWIDTH 16 0
BBX 0 0 0 0
BITMAP
ENDCHAR
STARTCHAR B067
ENCODING 45159
SWIDTH 960 0
DWIDTH 16 0
BBX 0 0 0 0
BITMAP
ENDCHAR
STARTCHAR B068
ENCODING 45160
SWIDTH 900 0
DWIDTH 15 0
BBX 13 16 1 -3
BITMAP
EF18
FF98
3198
3198
3198
2118
FFD8
FFD8
0000
3FF0
3FF0
3FF0
3FF0
3000
3FF8
1FF8
ENDCHAR
STARTCHAR B069
ENCODING 45161
SWIDTH 960 0
DWIDTH 16 0
BBX 0 0 0 0
BITMAP
ENDCHAR
STARTCHAR B06A
ENCODING 45162
SWIDTH 960 0
DWIDTH 16 0
BBX 0 0 0 0
BITMAP
ENDCHAR
STARTCHAR B06B
ENCODING 45163
SWIDTH 960 0
DWIDTH 16 0
BBX 0 0 0 0
BITMAP
ENDCHAR
STARTCHAR B06C
ENCODING 45164
SWIDTH 960 0
DWIDTH 16 0
BBX 0 0 0 0
BITMAP
ENDCHAR
STARTCHAR B06D
ENCODING 45165
SWIDTH 960 0
DWIDTH 16 0
BBX 0 0 0 0
BITMAP
ENDCHAR
STARTCHAR B06E
ENCODING 45166
SWIDTH 960 0
DWIDTH 16 0
BBX 0 0 0 0
BITMAP
ENDCHAR
STARTCHAR B06F
ENCODING 45167
SWIDTH 960 0
DWIDTH 16 0
BBX 0 0 0 0
BITMAP
ENDCHAR
STARTCHAR B070
ENCODING 45168
SWIDTH 960 0
DWIDTH 16 0
BBX 0 0 0 0
BITMAP
ENDCHAR
STARTCHAR B071
ENCODING 45169
SWIDTH 960 0
DWIDTH 16 0
BBX 0 0 0 0
BITMAP
ENDCHAR
STARTCHAR B072
ENCODING 45170
SWIDTH 960 0
DWIDTH 16 0
BBX 0 0 0 0
BITMAP
ENDCHAR
STARTCHAR B073
ENCODING 45171
SWIDTH 960 0
DWIDTH 16 0
BBX 0 0 0 0
BITMAP
ENDCHAR
STARTCHAR B074
ENCODING 45172
SWIDTH 960 0
DWIDTH 16 0
BBX 0 0 0 0
BITMAP
ENDCHAR
STARTCHAR B075
ENCODING 45173
SWIDTH 960 0
DWIDTH 16 0
BBX 0 0 0 0
BITMAP
ENDCHAR
STARTCHAR B076
ENCODING 45174
SWIDTH 960 0
DWIDTH 16 0
BBX 0 0 0 0
BITMAP
ENDCHAR
STARTCHAR B077
ENCODING 45175
SWIDTH 960 0
DWIDTH 16 0
BBX 0 0 0 0
BITMAP
ENDCHAR
STARTCHAR B078
ENCODING 45176
SWIDTH 960 0
DWIDTH 16 0
BBX 0 0 0 0
BITMAP
ENDCHAR
STARTCHAR B079
ENCODING 45177
SWIDTH 960 0
DWIDTH 16 0
BBX 0 0 0 0
BITMAP
ENDCHAR
STARTCHAR B07A
ENCODING 45178
SWIDTH 960 0
DWIDTH 16 0
BBX 0 0 0 0
BITMAP
ENDCHAR
STARTCHAR B07B
ENCODING 45179
SWIDTH 960 0
DWIDTH 16 0
BBX 0 0 0 0
BITMAP
ENDCHAR
STARTCHAR B07C
ENCODING 45180
SWIDTH 900 0
DWIDTH 15 0
BBX 14 12 1 0
BITMAP
0008
0008
0008
7788
FB88
188C
188C
198C
198C
190C
0008
0008
ENDCHAR
STARTCHAR B07D
ENCODING 45181
SWIDTH 900 0
DWIDTH 15 0
BBX 13 15 1 -2
BITMAP
0018
0618
F798
3998
1998
1998
1918
1118
0018
03E0
03F0
0030
0010
0010
0010
ENDCHAR
STARTCHAR B07E
ENCODING 45182
SWIDTH 960 0
DWIDTH 16 0
BBX 0 0 0 0
BITMAP
ENDCHAR
STARTCHAR B07F
ENCODING 45183
SWIDTH 960 0
DWIDTH 16 0
BBX 0 0 0 0
BITMAP
ENDCHAR
STARTCHAR B080
ENCODING 45184
SWIDTH 900 0
DWIDTH 15 0
BBX 13 13 1 0
BITMAP
0010
0018
FF18
FB98
1998
1918
1118
1118
0018
0300
0300
03F8
01F0
ENDCHAR
STARTCHAR B081
ENCODING 45185
SWIDTH 960 0
DWIDTH 16 0
BBX 0 0 0 0
BITMAP
ENDCHAR
STARTCHAR B082
ENCODING 45186
SWIDTH 960 0
DWIDTH 16 0
BBX 0 0 0 0
BITMAP
ENDCHAR
STARTCHAR B083
ENCODING 45187
SWIDTH 960 0
DWIDTH 16 0
BBX 0 0 0 0
BITMAP
ENDCHAR
STARTCHAR B084
ENCODING 45188
SWIDTH 900 0
DWIDTH 15 0
BBX 13 17 1 -2
BITMAP
0008
0718
FF88
1988
1988
1988
1908
0008
01F0
0130
0010
0030
00E0
0180
0180
01F8
00F0
ENDCHAR
STARTCHAR B085
ENCODING 45189
SWIDTH 960 0
DWIDTH 16 0
BBX 0 0 0 0
BITMAP
ENDCHAR
STARTCHAR B086
ENCODING 45190
SWIDTH 960 0
DWIDTH 16 0
BBX 0 0 0 0
BITMAP
ENDCHAR
STARTCHAR B087
ENCODING 45191
SWIDTH 960 0
DWIDTH 16 0
BBX 0 0 0 0
BITMAP
ENDCHAR
STARTCHAR B088
ENCODING 45192
SWIDTH 960 0
DWIDTH 16 0
BBX 0 0 0 0
BITMAP
ENDCHAR
STARTCHAR B089
ENCODING 45193
SWIDTH 960 0
DWIDTH 16 0
BBX 0 0 0 0
BITMAP
ENDCHAR
STARTCHAR B08A
ENCODING 45194
SWIDTH 960 0
DWIDTH 16 0
BBX 0 0 0 0
BITMAP
ENDCHAR
STARTCHAR B08B
ENCODING 45195
SWIDTH 960 0
DWIDTH 16 0
BBX 0 0 0 0
BITMAP
ENDCHAR
STARTCHAR B08C
ENCODING 45196
SWIDTH 900 0
DWIDTH 15 0
BBX 13 15 1 -2
BITMAP
0018
F718
FB98
1998
1998
1918
1118
0018
0000
01F0
0198
0198
0198
01F8
00F0
ENDCHAR
STARTCHAR B08D
ENCODING 45197
SWIDTH 900 0
DWIDTH 15 0
BBX 13 15 1 -1
BITMAP
0008
0708
FF88
1988
1988
1988
1988
1008
0108
0118
0158
0178
0118
01B0
00F0
ENDCHAR
STARTCHAR B08E
ENCODING 45198
SWIDTH 960 0
DWIDTH 16 0
BBX 0 0 0 0
BITMAP
ENDCHAR
STARTCHAR B08F
ENCODING 45199
SWIDTH 900 0
DWIDTH 15 0
BBX 13 14 1 0
BITMAP
0018
0618
F718
7998
1998
1998
1918
1118
0040
00C0
00E0
01B0
01B8
0118
ENDCHAR
STARTCHAR B090
ENCODING 45200
SWIDTH 960 0
DWIDTH 16 0
BBX 0 0 0 0
BITMAP
ENDCHAR
STARTCHAR B091
ENCODING 45201
SWIDTH 900 0
DWIDTH 15 0
BBX 13 14 1 -1
BITMAP
0008
6708
FF88
1988
1988
1988
1988
1008
0070
00F0
0090
0190
00B0
00E0
ENDCHAR
STARTCHAR B092
ENCODING 45202
SWIDTH 960 0
DWIDTH 16 0
BBX 0 0 0 0
BITMAP
ENDCHAR
STARTCHAR B093
ENCODING 45203
SWIDTH 960 0
DWIDTH 16 0
BBX 0 0 0 0
BITMAP
ENDCHAR
STARTCHAR B094
ENCODING 45204
SWIDTH 960 0
DWIDTH 16 0
BBX 0 0 0 0
BITMAP
ENDCHAR
STARTCHAR B095
ENCODING 45205
SWIDTH 960 0
DWIDTH 16 0
BBX 0 0 0 0
BITMAP
ENDCHAR
STARTCHAR B096
ENCODING 45206
SWIDTH 960 0
DWIDTH 16 0
BBX 0 0 0 0
BITMAP
ENDCHAR
STARTCHAR B097
ENCODING 45207
SWIDTH 960 0
DWIDTH 16 0
BBX 0 0 0 0
BITMAP
ENDCHAR
STARTCHAR B098
ENCODING 45208
SWIDTH 780 0
DWIDTH 13 0
BBX 12 12 1 1
BITMAP
0080
00C0
00C0
C0C0
C0C0
C0C0
C0C0
FCF0
7CC0
00C0
00C0
00C0
ENDCHAR
STARTCHAR B099
ENCODING 45209
SWIDTH 780 0
DWIDTH 13 0
BBX 13 15 1 -1
BITMAP
0040
0040
C040
C040
C060
6478
7C40
0040
0040
0F80
0FC0
00C0
00C0
00C0
0080
ENDCHAR
STARTCHAR B09A
ENCODING 45210
SWIDTH 780 0
DWIDTH 13 0
BBX 13 14 1 -1
BITMAP
0040
0040
4040
C060
C060
6478
7E60
0040
03C0
1CC0
1E40
0640
0640
0400
ENDCHAR
STARTCHAR B09B
ENCODING 45211
SWIDTH 960 0
DWIDTH 16 0
BBX 0 0 0 0
BITMAP
ENDCHAR
STARTCHAR B09C
ENCODING 45212
SWIDTH 780 0
DWIDTH 13 0
BBX 13 12 1 1
BITMAP
00C0
C0C0
C040
C040
C078
7C40
3840
0840
0C00
0C00
0FC0
07C0
ENDCHAR
STARTCHAR B09D
ENCODING 45213
SWIDTH 960 0
DWIDTH 16 0
BBX 0 0 0 0
BITMAP
ENDCHAR
STARTCHAR B09E
ENCODING 45214
SWIDTH 960 0
DWIDTH 16 0
BBX 0 0 0 0
BITMAP
ENDCHAR
STARTCHAR B09F
ENCODING 45215
SWIDTH 840 0
DWIDTH 14 0
BBX 13 14 1 -1
BITMAP
00C0
C0C0
C040
C040
C078
7C70
3840
0040
0F80
1F80
0800
0800
0FC0
0F80
ENDCHAR
STARTCHAR B0A0
ENCODING 45216
SWIDTH 780 0
DWIDTH 13 0
BBX 19 136 -5 -2
BITMAP
00C000
80C000
C0C000
C0C000
C0F000
FCC000
7CC000
070000
0F8000
008000
018000
038000
0E0000
0C0000
0C4000
07C000
000000
000000
000000
000000
000000
000000
000000
000000
000000
000000
000000
000000
000000
000000
000000
000000
000000
000000
000000
000000
000000
000000
000000
000000
000000
000000
000000
000000
000000
000000
000000
000000
000000
000000
000000
000000
000000
000000
000000
000000
000000
000000
000000
000000
000000
000000
000000
000000
000000
000000
000000
000000
000000
000000
000000
000000
000000
000000
000000
000000
000000
000000
000000
000000
000000
000000
000000
000000
000000
000000
000000
000000
000000
000000
000000
000000
000000
000000
000000
000000
000000
000000
000000
000000
000000
000000
000000
000000
000000
000000
000000
000000
000000
000000
000000
000000
000000
000000
000000
000000
000000
000000
000000
000000
000300
010100
030100
030100
0301E0
01F100
00F100
000000
003E00
000300
000300
000E00
003800
003000
003F00
001E00
ENDCHAR
STARTCHAR B0A1
ENCODING 45217
SWIDTH 780 0
DWIDTH 13 0
BBX 13 15 1 -2
BITMAP
0040
4040
C040
C040
C078
7C40
3C40
0000
1DC0
0DE0
0460
1C60
1060
1240
1E00
ENDCHAR
STARTCHAR B0A2
ENCODING 45218
SWIDTH 780 0
DWIDTH 13 0
BBX 13 15 1 -2
BITMAP
0040
40C0
C040
C040
C078
7C40
3C40
0000
3800
0DE0
0520
1D20
31E0
33E0
1E00
ENDCHAR
STARTCHAR B0A3
ENCODING 45219
SWIDTH 960 0
DWIDTH 16 0
BBX 0 0 0 0
BITMAP
ENDCHAR
STARTCHAR B0A4
ENCODING 45220
SWIDTH 960 0
DWIDTH 16 0
BBX 0 0 0 0
BITMAP
ENDCHAR
STARTCHAR B0A5
ENCODING 45221
SWIDTH 960 0
DWIDTH 16 0
BBX 0 0 0 0
BITMAP
ENDCHAR
STARTCHAR B0A6
ENCODING 45222
SWIDTH 960 0
DWIDTH 16 0
BBX 0 0 0 0
BITMAP
ENDCHAR
STARTCHAR B0A7
ENCODING 45223
SWIDTH 960 0
DWIDTH 16 0
BBX 0 0 0 0
BITMAP
ENDCHAR
STARTCHAR B0A8
ENCODING 45224
SWIDTH 780 0
DWIDTH 13 0
BBX 12 14 1 -1
BITMAP
00C0
80C0
C0C0
C0C0
C0F0
FCC0
38C0
0000
0FC0
0CC0
0CC0
0CC0
0FC0
0780
ENDCHAR
STARTCHAR B0A9
ENCODING 45225
SWIDTH 780 0
DWIDTH 13 0
BBX 13 14 1 -1
BITMAP
0040
4040
C040
C060
C078
7E40
3840
0440
0C60
0E60
0FC0
0440
06C0
0780
ENDCHAR
STARTCHAR B0AA
ENCODING 45226
SWIDTH 960 0
DWIDTH 16 0
BBX 0 0 0 0
BITMAP
ENDCHAR
STARTCHAR B0AB
ENCODING 45227
SWIDTH 780 0
DWIDTH 13 0
BBX 13 14 1 -1
BITMAP
0040
4040
C040
C040
C078
7C40
3C40
0000
0300
0300
0780
06C0
0CE0
0C60
ENDCHAR
STARTCHAR B0AC
ENCODING 45228
SWIDTH 840 0
DWIDTH 14 0
BBX 13 14 1 -1
BITMAP
0040
40C0
C040
C040
C078
7C40
3C40
0000
08C0
1CC0
1FC0
33E0
3330
0200
ENDCHAR
STARTCHAR B0AD
ENCODING 45229
SWIDTH 780 0
DWIDTH 13 0
BBX 13 14 1 -1
BITMAP
00C0
4040
C040
C040
C078
7C40
3840
0000
0380
0780
0480
0C80
0780
0300
ENDCHAR
STARTCHAR B0AE
ENCODING 45230
SWIDTH 780 0
DWIDTH 13 0
BBX 13 14 1 -1
BITMAP
00C0
C0C0
C040
C040
C078
7C40
3C40
0000
0F80
0180
0180
0380
0680
0CC0
ENDCHAR
STARTCHAR B0AF
ENCODING 45231
SWIDTH 780 0
DWIDTH 13 0
BBX 13 16 1 -2
BITMAP
0040
80C0
C040
C040
C078
FC60
7C40
0200
0300
0000
07C0
00C0
0180
0380
06C0
0440
ENDCHAR
STARTCHAR B0B0
ENCODING 45232
SWIDTH 960 0
DWIDTH 16 0
BBX 0 0 0 0
BITMAP
ENDCHAR
STARTCHAR B0B1
ENCODING 45233
SWIDTH 840 0
DWIDTH 14 0
BBX 13 16 1 -2
BITMAP
0040
00C0
C040
C040
C070
EC78
7C40
0040
0FC0
0FC0
0C00
0FC0
0F80
0C00
0FC0
07C0
ENDCHAR
STARTCHAR B0B2
ENCODING 45234
SWIDTH 960 0
DWIDTH 16 0
BBX 0 0 0 0
BITMAP
ENDCHAR
STARTCHAR B0B3
ENCODING 45235
SWIDTH 780 0
DWIDTH 13 0
BBX 13 16 1 -2
BITMAP
00C0
C0C0
C040
C040
C078
FC40
7C40
0200
0300
0100
07E0
0FC0
0380
0680
0780
0300
ENDCHAR
STARTCHAR B0B4
ENCODING 45236
SWIDTH 840 0
DWIDTH 14 0
BBX 13 11 1 1
BITMAP
0188
0198
4198
C198
C198
C1F8
C1F8
7D98
0198
0198
0090
ENDCHAR
STARTCHAR B0B5
ENCODING 45237
SWIDTH 840 0
DWIDTH 14 0
BBX 13 15 1 -1
BITMAP
0198
0198
4198
C198
C1F8
6198
7D90
0190
0000
03E0
03E0
0020
0020
0020
0020
ENDCHAR
STARTCHAR B0B6
ENCODING 45238
SWIDTH 960 0
DWIDTH 16 0
BBX 0 0 0 0
BITMAP
ENDCHAR
STARTCHAR B0B7
ENCODING 45239
SWIDTH 960 0
DWIDTH 16 0
BBX 0 0 0 0
BITMAP
ENDCHAR
STARTCHAR B0B8
ENCODING 45240
SWIDTH 840 0
DWIDTH 14 0
BBX 13 13 1 0
BITMAP
0198
4198
C198
C198
C1F8
7D98
3D90
0090
0000
0600
0600
07F0
03E0
ENDCHAR
STARTCHAR B0B9
ENCODING 45241
SWIDTH 960 0
DWIDTH 16 0
BBX 0 0 0 0
BITMAP
ENDCHAR
STARTCHAR B0BA
ENCODING 45242
SWIDTH 960 0
DWIDTH 16 0
BBX 0 0 0 0
BITMAP
ENDCHAR
STARTCHAR B0BB
ENCODING 45243
SWIDTH 960 0
DWIDTH 16 0
BBX 0 0 0 0
BITMAP
ENDCHAR
STARTCHAR B0BC
ENCODING 45244
SWIDTH 840 0
DWIDTH 14 0
BBX 13 17 1 -2
BITMAP
0198
4198
C198
C198
C1F8
7D98
3D90
0110
03E0
0060
0060
0060
03C0
0300
0200
03F0
01E0
ENDCHAR
STARTCHAR B0BD
ENCODING 45245
SWIDTH 960 0
DWIDTH 16 0
BBX 0 0 0 0
BITMAP
ENDCHAR
STARTCHAR B0BE
ENCODING 45246
SWIDTH 960 0
DWIDTH 16 0
BBX 0 0 0 0
BITMAP
ENDCHAR
STARTCHAR B0BF
ENCODING 45247
SWIDTH 960 0
DWIDTH 16 0
BBX 0 0 0 0
BITMAP
ENDCHAR
STARTCHAR B0C0
ENCODING 45248
SWIDTH 960 0
DWIDTH 16 0
BBX 0 0 0 0
BITMAP
ENDCHAR
STARTCHAR B0C1
ENCODING 45249
SWIDTH 960 0
DWIDTH 16 0
BBX 0 0 0 0
BITMAP
ENDCHAR
STARTCHAR B0C2
ENCODING 45250
SWIDTH 960 0
DWIDTH 16 0
BBX 0 0 0 0
BITMAP
ENDCHAR
STARTCHAR B0C3
ENCODING 45251
SWIDTH 960 0
DWIDTH 16 0
BBX 0 0 0 0
BITMAP
ENDCHAR
STARTCHAR B0C4
ENCODING 45252
SWIDTH 840 0
DWIDTH 14 0
BBX 13 15 1 -1
BITMAP
0198
0198
4198
C198
41F8
6598
7D98
0090
0000
03E0
03E0
0230
0230
03F0
03E0
ENDCHAR
STARTCHAR B0C5
ENCODING 45253
SWIDTH 900 0
DWIDTH 15 0
BBX 12 15 2 -1
BITMAP
0330
8330
8330
8330
83F0
FB30
7B30
0120
0420
0460
0660
05E0
0460
06C0
03C0
ENDCHAR
STARTCHAR B0C6
ENCODING 45254
SWIDTH 960 0
DWIDTH 16 0
BBX 0 0 0 0
BITMAP
ENDCHAR
STARTCHAR B0C7
ENCODING 45255
SWIDTH 840 0
DWIDTH 14 0
BBX 13 14 1 -1
BITMAP
0198
4198
4198
C1F8
41F8
7D98
3998
0010
00C0
00C0
01E0
01B0
0318
0200
ENDCHAR
STARTCHAR B0C8
ENCODING 45256
SWIDTH 840 0
DWIDTH 14 0
BBX 13 14 1 0
BITMAP
0198
4198
4198
C1F8
41F8
7D98
3D98
0110
0440
0C60
0EE0
0BF0
1998
1190
ENDCHAR
STARTCHAR B0C9
ENCODING 45257
SWIDTH 840 0
DWIDTH 14 0
BBX 13 15 1 -1
BITMAP
0198
0198
4198
C1F8
41F8
7D98
7D98
0110
0040
01E0
0160
0320
0360
01E0
0080
ENDCHAR
STARTCHAR B0CA
ENCODING 45258
SWIDTH 960 0
DWIDTH 16 0
BBX 0 0 0 0
BITMAP
ENDCHAR
STARTCHAR B0CB
ENCODING 45259
SWIDTH 960 0
DWIDTH 16 0
BBX 0 0 0 0
BITMAP
ENDCHAR
STARTCHAR B0CC
ENCODING 45260
SWIDTH 960 0
DWIDTH 16 0
BBX 0 0 0 0
BITMAP
ENDCHAR
STARTCHAR B0CD
ENCODING 45261
SWIDTH 960 0
DWIDTH 16 0
BBX 0 0 0 0
BITMAP
ENDCHAR
STARTCHAR B0CE
ENCODING 45262
SWIDTH 960 0
DWIDTH 16 0
BBX 0 0 0 0
BITMAP
ENDCHAR
STARTCHAR B0CF
ENCODING 45263
SWIDTH 960 0
DWIDTH 16 0
BBX 0 0 0 0
BITMAP
ENDCHAR
STARTCHAR B0D0
ENCODING 45264
SWIDTH 840 0
DWIDTH 14 0
BBX 14 12 1 1
BITMAP
00C0
00C0
00C0
40F8
40D0
C0C0
40C0
64F8
7EFC
00C0
00C0
00C0
ENDCHAR
STARTCHAR B0D1
ENCODING 45265
SWIDTH 840 0
DWIDTH 14 0
BBX 13 15 1 -1
BITMAP
0040
0040
40C0
4078
C040
4040
7E78
3C70
0040
0FC0
0F80
0080
0080
0080
0080
ENDCHAR
STARTCHAR B0D2
ENCODING 45266
SWIDTH 960 0
DWIDTH 16 0
BBX 0 0 0 0
BITMAP
ENDCHAR
STARTCHAR B0D3
ENCODING 45267
SWIDTH 960 0
DWIDTH 16 0
BBX 0 0 0 0
BITMAP
ENDCHAR
STARTCHAR B0D4
ENCODING 45268
SWIDTH 840 0
DWIDTH 14 0
BBX 13 13 1 0
BITMAP
00C0
00C0
C0D0
C0F8
C0C0
64F0
7EF8
00C0
0040
0C00
0C00
0FE0
07C0
ENDCHAR
STARTCHAR B0D5
ENCODING 45269
SWIDTH 960 0
DWIDTH 16 0
BBX 0 0 0 0
BITMAP
ENDCHAR
STARTCHAR B0D6
ENCODING 45270
SWIDTH 960 0
DWIDTH 16 0
BBX 0 0 0 0
BITMAP
ENDCHAR
STARTCHAR B0D7
ENCODING 45271
SWIDTH 960 0
DWIDTH 16 0
BBX 0 0 0 0
BITMAP
ENDCHAR
STARTCHAR B0D8
ENCODING 45272
SWIDTH 840 0
DWIDTH 14 0
BBX 13 18 1 -2
BITMAP
0080
00C0
40C0
C0F8
C0C0
C0C0
7CF8
38F8
00C0
07C0
09C0
00C0
0180
0780
0C00
0C00
0FC0
07C0
ENDCHAR
STARTCHAR B0D9
ENCODING 45273
SWIDTH 960 0
DWIDTH 16 0
BBX 0 0 0 0
BITMAP
ENDCHAR
STARTCHAR B0DA
ENCODING 45274
SWIDTH 960 0
DWIDTH 16 0
BBX 0 0 0 0
BITMAP
ENDCHAR
STARTCHAR B0DB
ENCODING 45275
SWIDTH 960 0
DWIDTH 16 0
BBX 0 0 0 0
BITMAP
ENDCHAR
STARTCHAR B0DC
ENCODING 45276
SWIDTH 960 0
DWIDTH 16 0
BBX 0 0 0 0
BITMAP
ENDCHAR
STARTCHAR B0DD
ENCODING 45277
SWIDTH 960 0
DWIDTH 16 0
BBX 0 0 0 0
BITMAP
ENDCHAR
STARTCHAR B0DE
ENCODING 45278
SWIDTH 960 0
DWIDTH 16 0
BBX 0 0 0 0
BITMAP
ENDCHAR
STARTCHAR B0DF
ENCODING 45279
SWIDTH 960 0
DWIDTH 16 0
BBX 0 0 0 0
BITMAP
ENDCHAR
STARTCHAR B0E0
ENCODING 45280
SWIDTH 840 0
DWIDTH 14 0
BBX 13 16 1 -1
BITMAP
0080
00C0
40C0
C0F8
C0C0
C0C0
7CF8
3CF0
00C0
0800
0F80
0CC0
08C0
08C0
0FC0
0F80
ENDCHAR
STARTCHAR B0E1
ENCODING 45281
SWIDTH 960 0
DWIDTH 16 0
BBX 0 0 0 0
BITMAP
ENDCHAR
STARTCHAR B0E2
ENCODING 45282
SWIDTH 960 0
DWIDTH 16 0
BBX 0 0 0 0
BITMAP
ENDCHAR
STARTCHAR B0E3
ENCODING 45283
SWIDTH 960 0
DWIDTH 16 0
BBX 0 0 0 0
BITMAP
ENDCHAR
STARTCHAR B0E4
ENCODING 45284
SWIDTH 960 0
DWIDTH 16 0
BBX 0 0 0 0
BITMAP
ENDCHAR
STARTCHAR B0E5
ENCODING 45285
SWIDTH 840 0
DWIDTH 14 0
BBX 12 16 2 -1
BITMAP
0080
0080
8080
80B0
80B0
8080
FCF0
78E0
0080
0400
0F00
0D00
1900
1900
0F00
0600
ENDCHAR
STARTCHAR B0E6
ENCODING 45286
SWIDTH 960 0
DWIDTH 16 0
BBX 0 0 0 0
BITMAP
ENDCHAR
STARTCHAR B0E7
ENCODING 45287
SWIDTH 960 0
DWIDTH 16 0
BBX 0 0 0 0
BITMAP
ENDCHAR
STARTCHAR B0E8
ENCODING 45288
SWIDTH 960 0
DWIDTH 16 0
BBX 0 0 0 0
BITMAP
ENDCHAR
STARTCHAR B0E9
ENCODING 45289
SWIDTH 960 0
DWIDTH 16 0
BBX 0 0 0 0
BITMAP
ENDCHAR
STARTCHAR B0EA
ENCODING 45290
SWIDTH 960 0
DWIDTH 16 0
BBX 0 0 0 0
BITMAP
ENDCHAR
STARTCHAR B0EB
ENCODING 45291
SWIDTH 960 0
DWIDTH 16 0
BBX 0 0 0 0
BITMAP
ENDCHAR
STARTCHAR B0EC
ENCODING 45292
SWIDTH 960 0
DWIDTH 16 0
BBX 0 0 0 0
BITMAP
ENDCHAR
STARTCHAR B0ED
ENCODING 45293
SWIDTH 960 0
DWIDTH 16 0
BBX 0 0 0 0
BITMAP
ENDCHAR
STARTCHAR B0EE
ENCODING 45294
SWIDTH 960 0
DWIDTH 16 0
BBX 0 0 0 0
BITMAP
ENDCHAR
STARTCHAR B0EF
ENCODING 45295
SWIDTH 960 0
DWIDTH 16 0
BBX 0 0 0 0
BITMAP
ENDCHAR
STARTCHAR B0F0
ENCODING 45296
SWIDTH 960 0
DWIDTH 16 0
BBX 0 0 0 0
BITMAP
ENDCHAR
STARTCHAR B0F1
ENCODING 45297
SWIDTH 960 0
DWIDTH 16 0
BBX 0 0 0 0
BITMAP
ENDCHAR
STARTCHAR B0F2
ENCODING 45298
SWIDTH 960 0
DWIDTH 16 0
BBX 0 0 0 0
BITMAP
ENDCHAR
STARTCHAR B0F3
ENCODING 45299
SWIDTH 960 0
DWIDTH 16 0
BBX 0 0 0 0
BITMAP
ENDCHAR
STARTCHAR B0F4
ENCODING 45300
SWIDTH 960 0
DWIDTH 16 0
BBX 0 0 0 0
BITMAP
ENDCHAR
STARTCHAR B0F5
ENCODING 45301
SWIDTH 960 0
DWIDTH 16 0
BBX 0 0 0 0
BITMAP
ENDCHAR
STARTCHAR B0F6
ENCODING 45302
SWIDTH 960 0
DWIDTH 16 0
BBX 0 0 0 0
BITMAP
ENDCHAR
STARTCHAR B0F7
ENCODING 45303
SWIDTH 960 0
DWIDTH 16 0
BBX 0 0 0 0
BITMAP
ENDCHAR
STARTCHAR B0F8
ENCODING 45304
SWIDTH 960 0
DWIDTH 16 0
BBX 0 0 0 0
BITMAP
ENDCHAR
STARTCHAR B0F9
ENCODING 45305
SWIDTH 960 0
DWIDTH 16 0
BBX 0 0 0 0
BITMAP
ENDCHAR
STARTCHAR B0FA
ENCODING 45306
SWIDTH 960 0
DWIDTH 16 0
BBX 0 0 0 0
BITMAP
ENDCHAR
STARTCHAR B0FB
ENCODING 45307
SWIDTH 960 0
DWIDTH 16 0
BBX 0 0 0 0
BITMAP
ENDCHAR
STARTCHAR B0FC
ENCODING 45308
SWIDTH 960 0
DWIDTH 16 0
BBX 0 0 0 0
BITMAP
ENDCHAR
STARTCHAR B0FD
ENCODING 45309
SWIDTH 960 0
DWIDTH 16 0
BBX 0 0 0 0
BITMAP
ENDCHAR
STARTCHAR B0FE
ENCODING 45310
SWIDTH 960 0
DWIDTH 16 0
BBX 0 0 0 0
BITMAP
ENDCHAR
STARTCHAR B0FF
ENCODING 45311
SWIDTH 960 0
DWIDTH 16 0
BBX 0 0 0 0
BITMAP
ENDCHAR
STARTCHAR B100
ENCODING 45312
SWIDTH 960 0
DWIDTH 16 0
BBX 0 0 0 0
BITMAP
ENDCHAR
STARTCHAR B101
ENCODING 45313
SWIDTH 960 0
DWIDTH 16 0
BBX 0 0 0 0
BITMAP
ENDCHAR
STARTCHAR B102
ENCODING 45314
SWIDTH 960 0
DWIDTH 16 0
BBX 0 0 0 0
BITMAP
ENDCHAR
STARTCHAR B103
ENCODING 45315
SWIDTH 960 0
DWIDTH 16 0
BBX 0 0 0 0
BITMAP
ENDCHAR
STARTCHAR B104
ENCODING 45316
SWIDTH 960 0
DWIDTH 16 0
BBX 0 0 0 0
BITMAP
ENDCHAR
STARTCHAR B105
ENCODING 45317
SWIDTH 960 0
DWIDTH 16 0
BBX 0 0 0 0
BITMAP
ENDCHAR
STARTCHAR B106
ENCODING 45318
SWIDTH 960 0
DWIDTH 16 0
BBX 0 0 0 0
BITMAP
ENDCHAR
STARTCHAR B107
ENCODING 45319
SWIDTH 960 0
DWIDTH 16 0
BBX 0 0 0 0
BITMAP
ENDCHAR
STARTCHAR B108
ENCODING 45320
SWIDTH 780 0
DWIDTH 13 0
BBX 11 10 2 3
BITMAP
0060
0060
8060
8060
83E0
83E0
C060
FC60
0060
0060
ENDCHAR
STARTCHAR B109
ENCODING 45321
SWIDTH 780 0
DWIDTH 13 0
BBX 11 15 1 -2
BITMAP
0020
0060
C060
C060
C1E0
C1E0
7C20
0060
0020
0780
0FC0
00C0
0040
0040
0040
ENDCHAR
STARTCHAR B10A
ENCODING 45322
SWIDTH 960 0
DWIDTH 16 0
BBX 0 0 0 0
BITMAP
ENDCHAR
STARTCHAR B10B
ENCODING 45323
SWIDTH 780 0
DWIDTH 13 0
BBX 12 14 1 -1
BITMAP
0020
0020
4030
C030
C1F0
6430
7C20
0020
0880
1EC0
02C0
02E0
03B0
0100
ENDCHAR
STARTCHAR B10C
ENCODING 45324
SWIDTH 780 0
DWIDTH 13 0
BBX 11 13 1 0
BITMAP
0020
0020
C020
C020
C1E0
61E0
7C20
0020
0020
0C00
0C00
07E0
07C0
ENDCHAR
STARTCHAR B10D
ENCODING 45325
SWIDTH 960 0
DWIDTH 16 0
BBX 0 0 0 0
BITMAP
ENDCHAR
STARTCHAR B10E
ENCODING 45326
SWIDTH 960 0
DWIDTH 16 0
BBX 0 0 0 0
BITMAP
ENDCHAR
STARTCHAR B10F
ENCODING 45327
SWIDTH 960 0
DWIDTH 16 0
BBX 0 0 0 0
BITMAP
ENDCHAR
STARTCHAR B110
ENCODING 45328
SWIDTH 780 0
DWIDTH 13 0
BBX 12 18 1 -2
BITMAP
0020
0020
4020
C030
C1F0
41F0
7C20
3820
0020
0780
04C0
00C0
00C0
0780
0600
0C00
07E0
03C0
ENDCHAR
STARTCHAR B111
ENCODING 45329
SWIDTH 960 0
DWIDTH 16 0
BBX 0 0 0 0
BITMAP
ENDCHAR
STARTCHAR B112
ENCODING 45330
SWIDTH 780 0
DWIDTH 13 0
BBX 12 15 1 -1
BITMAP
0020
4020
C020
C060
C1E0
7C20
7C20
0020
1800
0DE0
05A0
1DA0
11F0
12E0
1E00
ENDCHAR
STARTCHAR B113
ENCODING 45331
SWIDTH 780 0
DWIDTH 13 0
BBX 12 16 1 -1
BITMAP
0020
0020
4020
C030
C1F0
C1E0
7C20
3820
0020
3B20
0B20
0FE0
1B20
3360
35C0
1C00
ENDCHAR
STARTCHAR B114
ENCODING 45332
SWIDTH 960 0
DWIDTH 16 0
BBX 0 0 0 0
BITMAP
ENDCHAR
STARTCHAR B115
ENCODING 45333
SWIDTH 960 0
DWIDTH 16 0
BBX 0 0 0 0
BITMAP
ENDCHAR
STARTCHAR B116
ENCODING 45334
SWIDTH 960 0
DWIDTH 16 0
BBX 0 0 0 0
BITMAP
ENDCHAR
STARTCHAR B117
ENCODING 45335
SWIDTH 960 0
DWIDTH 16 0
BBX 0 0 0 0
BITMAP
ENDCHAR
STARTCHAR B118
ENCODING 45336
SWIDTH 780 0
DWIDTH 13 0
BBX 11 15 1 -1
BITMAP
0020
0020
4020
C020
C1E0
41E0
7C20
0020
0020
07C0
07E0
0660
0660
07E0
07C0
ENDCHAR
STARTCHAR B119
ENCODING 45337
SWIDTH 780 0
DWIDTH 13 0
BBX 11 15 1 -1
BITMAP
0020
4020
C020
C060
C1E0
7C20
3C20
0020
0440
0C60
0E60
0FC0
0C40
06C0
0780
ENDCHAR
STARTCHAR B11A
ENCODING 45338
SWIDTH 960 0
DWIDTH 16 0
BBX 0 0 0 0
BITMAP
ENDCHAR
STARTCHAR B11B
ENCODING 45339
SWIDTH 780 0
DWIDTH 13 0
BBX 11 14 1 0
BITMAP
0020
0020
C020
C020
C1E0
6420
7C20
0020
0180
0180
0380
03C0
0660
0620
ENDCHAR
STARTCHAR B11C
ENCODING 45340
SWIDTH 780 0
DWIDTH 13 0
BBX 12 14 1 0
BITMAP
0020
0020
C020
C020
C1E0
6420
7C20
0020
0800
0CC0
1CC0
1EE0
13A0
3130
ENDCHAR
STARTCHAR B11D
ENCODING 45341
SWIDTH 780 0
DWIDTH 13 0
BBX 11 14 1 0
BITMAP
0060
4060
C060
C060
C1E0
FC60
7860
0020
0180
03C0
0640
0640
07C0
0380
ENDCHAR
STARTCHAR B11E
ENCODING 45342
SWIDTH 960 0
DWIDTH 16 0
BBX 0 0 0 0
BITMAP
ENDCHAR
STARTCHAR B11F
ENCODING 45343
SWIDTH 960 0
DWIDTH 16 0
BBX 0 0 0 0
BITMAP
ENDCHAR
STARTCHAR B120
ENCODING 45344
SWIDTH 960 0
DWIDTH 16 0
BBX 0 0 0 0
BITMAP
ENDCHAR
STARTCHAR B121
ENCODING 45345
SWIDTH 960 0
DWIDTH 16 0
BBX 0 0 0 0
BITMAP
ENDCHAR
STARTCHAR B122
ENCODING 45346
SWIDTH 960 0
DWIDTH 16 0
BBX 0 0 0 0
BITMAP
ENDCHAR
STARTCHAR B123
ENCODING 45347
SWIDTH 780 0
DWIDTH 13 0
BBX 12 16 1 -1
BITMAP
0020
0020
C030
C030
C1F0
6C20
7C20
0220
0380
0100
07E0
0FE0
0280
02C0
03C0
0380
ENDCHAR
STARTCHAR B124
ENCODING 45348
SWIDTH 840 0
DWIDTH 14 0
BBX 12 11 1 1
BITMAP
0020
01B0
01B0
41B0
C1B0
C7B0
C1B0
E9B0
7DB0
01B0
01B0
ENDCHAR
STARTCHAR B125
ENCODING 45349
SWIDTH 780 0
DWIDTH 13 0
BBX 12 15 1 -1
BITMAP
0120
01B0
01B0
C1B0
C7B0
C7B0
E5B0
7DB0
00A0
07C0
07C0
0060
0060
0040
0040
ENDCHAR
STARTCHAR B126
ENCODING 45350
SWIDTH 960 0
DWIDTH 16 0
BBX 0 0 0 0
BITMAP
ENDCHAR
STARTCHAR B127
ENCODING 45351
SWIDTH 960 0
DWIDTH 16 0
BBX 0 0 0 0
BITMAP
ENDCHAR
STARTCHAR B128
ENCODING 45352
SWIDTH 840 0
DWIDTH 14 0
BBX 12 14 1 0
BITMAP
0020
01B0
01B0
41B0
43B0
C7B0
61B0
7CB0
10B0
0000
0600
0600
07E0
03E0
ENDCHAR
STARTCHAR B129
ENCODING 45353
SWIDTH 960 0
DWIDTH 16 0
BBX 0 0 0 0
BITMAP
ENDCHAR
STARTCHAR B12A
ENCODING 45354
SWIDTH 960 0
DWIDTH 16 0
BBX 0 0 0 0
BITMAP
ENDCHAR
STARTCHAR B12B
ENCODING 45355
SWIDTH 960 0
DWIDTH 16 0
BBX 0 0 0 0
BITMAP
ENDCHAR
STARTCHAR B12C
ENCODING 45356
SWIDTH 840 0
DWIDTH 14 0
BBX 11 18 2 -2
BITMAP
0240
0360
0360
8360
8760
8F60
C360
F960
0060
0780
04C0
00C0
01C0
0780
0E00
0C00
07E0
03C0
ENDCHAR
STARTCHAR B12D
ENCODING 45357
SWIDTH 960 0
DWIDTH 16 0
BBX 0 0 0 0
BITMAP
ENDCHAR
STARTCHAR B12E
ENCODING 45358
SWIDTH 960 0
DWIDTH 16 0
BBX 0 0 0 0
BITMAP
ENDCHAR
STARTCHAR B12F
ENCODING 45359
SWIDTH 960 0
DWIDTH 16 0
BBX 0 0 0 0
BITMAP
ENDCHAR
STARTCHAR B130
ENCODING 45360
SWIDTH 960 0
DWIDTH 16 0
BBX 0 0 0 0
BITMAP
ENDCHAR
STARTCHAR B131
ENCODING 45361
SWIDTH 960 0
DWIDTH 16 0
BBX 0 0 0 0
BITMAP
ENDCHAR
STARTCHAR B132
ENCODING 45362
SWIDTH 960 0
DWIDTH 16 0
BBX 0 0 0 0
BITMAP
ENDCHAR
STARTCHAR B133
ENCODING 45363
SWIDTH 960 0
DWIDTH 16 0
BBX 0 0 0 0
BITMAP
ENDCHAR
STARTCHAR B134
ENCODING 45364
SWIDTH 780 0
DWIDTH 13 0
BBX 12 16 1 -2
BITMAP
0120
01B0
01B0
C1B0
C7B0
C7B0
EDB0
7DB0
0020
0000
07C0
0660
0660
0660
07E0
07C0
ENDCHAR
STARTCHAR B135
ENCODING 45365
SWIDTH 780 0
DWIDTH 13 0
BBX 12 16 1 -1
BITMAP
0120
01A0
01B0
C1B0
C7B0
C7B0
C1B0
7DB0
0020
0420
0460
0560
05E0
0460
06C0
03C0
ENDCHAR
STARTCHAR B136
ENCODING 45366
SWIDTH 960 0
DWIDTH 16 0
BBX 0 0 0 0
BITMAP
ENDCHAR
STARTCHAR B137
ENCODING 45367
SWIDTH 840 0
DWIDTH 14 0
BBX 12 14 1 0
BITMAP
01B0
01B0
41B0
C1B0
C7B0
41B0
7DB0
38B0
0100
0300
0380
07C0
06E0
0460
ENDCHAR
STARTCHAR B138
ENCODING 45368
SWIDTH 840 0
DWIDTH 14 0
BBX 12 14 1 1
BITMAP
01B0
01B0
41B0
C1B0
C7B0
61B0
7DB0
00B0
0400
0C40
0EC0
1EE0
1BB0
1190
ENDCHAR
STARTCHAR B139
ENCODING 45369
SWIDTH 840 0
DWIDTH 14 0
BBX 12 16 1 -1
BITMAP
0020
01A0
01B0
41B0
C1B0
C7B0
C1B0
7DB0
3920
0080
03C0
0240
0260
02C0
03C0
0180
ENDCHAR
STARTCHAR B13A
ENCODING 45370
SWIDTH 960 0
DWIDTH 16 0
BBX 0 0 0 0
BITMAP
ENDCHAR
STARTCHAR B13B
ENCODING 45371
SWIDTH 960 0
DWIDTH 16 0
BBX 0 0 0 0
BITMAP
ENDCHAR
STARTCHAR B13C
ENCODING 45372
SWIDTH 960 0
DWIDTH 16 0
BBX 0 0 0 0
BITMAP
ENDCHAR
STARTCHAR B13D
ENCODING 45373
SWIDTH 960 0
DWIDTH 16 0
BBX 0 0 0 0
BITMAP
ENDCHAR
STARTCHAR B13E
ENCODING 45374
SWIDTH 960 0
DWIDTH 16 0
BBX 0 0 0 0
BITMAP
ENDCHAR
STARTCHAR B13F
ENCODING 45375
SWIDTH 960 0
DWIDTH 16 0
BBX 0 0 0 0
BITMAP
ENDCHAR
STARTCHAR B140
ENCODING 45376
SWIDTH 780 0
DWIDTH 13 0
BBX 11 12 1 1
BITMAP
0040
0060
0060
03E0
C3E0
C060
C060
C1E0
7FE0
3860
0060
0020
ENDCHAR
STARTCHAR B141
ENCODING 45377
SWIDTH 780 0
DWIDTH 13 0
BBX 11 15 1 -1
BITMAP
0020
0060
0060
43E0
C060
C060
43E0
7FE0
3860
07E0
0FC0
00C0
0040
0040
0040
ENDCHAR
STARTCHAR B142
ENCODING 45378
SWIDTH 960 0
DWIDTH 16 0
BBX 0 0 0 0
BITMAP
ENDCHAR
STARTCHAR B143
ENCODING 45379
SWIDTH 960 0
DWIDTH 16 0
BBX 0 0 0 0
BITMAP
ENDCHAR
STARTCHAR B144
ENCODING 45380
SWIDTH 780 0
DWIDTH 13 0
BBX 11 14 1 0
BITMAP
0040
0060
0060
43E0
C060
C060
C3E0
7FE0
3860
0060
0C00
0C00
0FE0
07C0
ENDCHAR
STARTCHAR B145
ENCODING 45381
SWIDTH 960 0
DWIDTH 16 0
BBX 0 0 0 0
BITMAP
ENDCHAR
STARTCHAR B146
ENCODING 45382
SWIDTH 960 0
DWIDTH 16 0
BBX 0 0 0 0
BITMAP
ENDCHAR
STARTCHAR B147
ENCODING 45383
SWIDTH 960 0
DWIDTH 16 0
BBX 0 0 0 0
BITMAP
ENDCHAR
STARTCHAR B148
ENCODING 45384
SWIDTH 780 0
DWIDTH 13 0
BBX 11 18 1 -2
BITMAP
0060
0060
03E0
C1E0
C060
C060
6BE0
7C60
0060
0780
04C0
00C0
00C0
0780
0600
0C00
07E0
03C0
ENDCHAR
STARTCHAR B149
ENCODING 45385
SWIDTH 960 0
DWIDTH 16 0
BBX 0 0 0 0
BITMAP
ENDCHAR
STARTCHAR B14A
ENCODING 45386
SWIDTH 960 0
DWIDTH 16 0
BBX 0 0 0 0
BITMAP
ENDCHAR
STARTCHAR B14B
ENCODING 45387
SWIDTH 960 0
DWIDTH 16 0
BBX 0 0 0 0
BITMAP
ENDCHAR
STARTCHAR B14C
ENCODING 45388
SWIDTH 960 0
DWIDTH 16 0
BBX 0 0 0 0
BITMAP
ENDCHAR
STARTCHAR B14D
ENCODING 45389
SWIDTH 960 0
DWIDTH 16 0
BBX 0 0 0 0
BITMAP
ENDCHAR
STARTCHAR B14E
ENCODING 45390
SWIDTH 960 0
DWIDTH 16 0
BBX 0 0 0 0
BITMAP
ENDCHAR
STARTCHAR B14F
ENCODING 45391
SWIDTH 960 0
DWIDTH 16 0
BBX 0 0 0 0
BITMAP
ENDCHAR
STARTCHAR B150
ENCODING 45392
SWIDTH 780 0
DWIDTH 13 0
BBX 10 16 2 -1
BITMAP
0040
00C0
00C0
03C0
82C0
80C0
83C0
FFC0
F8C0
0040
0F80
0FC0
0CC0
0CC0
08C0
0F80
ENDCHAR
STARTCHAR B151
ENCODING 45393
SWIDTH 780 0
DWIDTH 13 0
BBX 11 17 1 -1
BITMAP
0040
0060
0060
43E0
C060
C060
C3E0
7FE0
3860
0060
0440
0C40
0E40
0FC0
0CC0
06C0
0780
ENDCHAR
STARTCHAR B152
ENCODING 45394
SWIDTH 960 0
DWIDTH 16 0
BBX 0 0 0 0
BITMAP
ENDCHAR
STARTCHAR B153
ENCODING 45395
SWIDTH 960 0
DWIDTH 16 0
BBX 0 0 0 0
BITMAP
ENDCHAR
STARTCHAR B154
ENCODING 45396
SWIDTH 780 0
DWIDTH 13 0
BBX 11 15 2 0
BITMAP
0040
0040
0340
8340
8040
8040
C3C0
FBC0
0040
0840
18C0
1D80
37C0
3360
2320
ENDCHAR
STARTCHAR B155
ENCODING 45397
SWIDTH 720 0
DWIDTH 12 0
BBX 11 16 1 -1
BITMAP
0040
0060
0060
03E0
C360
C060
C3E0
EBE0
7860
0040
0180
03C0
06C0
06C0
06C0
0780
ENDCHAR
STARTCHAR B156
ENCODING 45398
SWIDTH 960 0
DWIDTH 16 0
BBX 0 0 0 0
BITMAP
ENDCHAR
STARTCHAR B157
ENCODING 45399
SWIDTH 960 0
DWIDTH 16 0
BBX 0 0 0 0
BITMAP
ENDCHAR
STARTCHAR B158
ENCODING 45400
SWIDTH 780 0
DWIDTH 13 0
BBX 11 15 1 0
BITMAP
0040
0060
0160
C3E0
C060
C060
C3E0
7FE0
0060
0060
0FC0
0040
07C0
0040
0040
ENDCHAR
STARTCHAR B159
ENCODING 45401
SWIDTH 960 0
DWIDTH 16 0
BBX 0 0 0 0
BITMAP
ENDCHAR
STARTCHAR B15A
ENCODING 45402
SWIDTH 960 0
DWIDTH 16 0
BBX 0 0 0 0
BITMAP
ENDCHAR
STARTCHAR B15B
ENCODING 45403
SWIDTH 960 0
DWIDTH 16 0
BBX 0 0 0 0
BITMAP
ENDCHAR
ENDFONT
